<svg width="1440" height="1363" viewBox="0 0 1440 1363" fill="none" xmlns="http://www.w3.org/2000/svg">
    <style>
        @keyframes change_fill {
            0% { opacity: 1 }
            50% { opacity: 0.4 }
            100% { opacity: 1 }
        }
        @keyframes change_position {
            0% { transform: translate(-6%, 2%); opacity: 0 }
            50% { transform: translate(0%, 0%); opacity: 1  }
            100% { transform: translate(-6%, 2%); opacity: 0 }
        }
        @keyframes change_center-people {
            <!-- 0% {  opacity: 1 }
            50% { transform: scale(-1, -1);); opacity: 1;   }
            100% { opacity: 1 } -->
        }
        .table{ animation: change_fill 5s infinite}
    </style>

<rect width="505.28" height="505.28" transform="matrix(0.866044 0.499967 -0.866044 0.499967 1533.59 39)" fill="#F0F0F0"/>
<rect width="85.7303" height="196.839" transform="matrix(0.866044 0.499967 -0.866044 0.499967 1385.62 125)" fill="#C4C4C4"/>
<g clip-path="url(#clip0)" style="animation: change_fill 5s 0s infinite">>
<path d="M1258.08 303.554L1218 323.593V330.88L1219.82 331.79V365.492L1223.47 367.313L1227.11 365.492V335.434L1245.33 344.542V352.74L1248.97 354.561L1252.61 352.74V348.186L1283.58 363.67L1285.4 362.759V398.282L1289.05 400.104L1292.69 398.282V359.116L1310.91 350.007V385.53L1314.55 387.352L1318.19 385.53V346.364L1323.66 343.631V336.345L1258.08 303.554Z" fill="#CBB292"/>
<path d="M1283.58 356.383V363.67L1218 330.88V323.593L1283.58 356.383Z" fill="#CB8252"/>
<path d="M1323.66 336.345V343.631L1283.58 363.67V356.383L1323.66 336.345Z" fill="#805333"/>
<path d="M1318.19 346.364V385.53L1314.55 387.352V348.186L1318.19 346.364Z" fill="#5E5F62"/>
<path d="M1314.55 348.186V387.352L1310.91 385.53V350.007L1314.55 348.186Z" fill="#A5A5A4"/>
<path d="M1292.69 359.116V398.282L1289.05 400.104V360.937L1292.69 359.116Z" fill="#5E5F62"/>
<path d="M1289.05 360.937V400.104L1285.4 398.282V362.759L1289.05 360.937Z" fill="#A5A5A4"/>
<path d="M1252.61 348.186V352.74L1248.97 354.561V346.364L1252.61 348.186Z" fill="#5E5F62"/>
<path d="M1248.97 346.364V354.561L1245.33 352.74V344.542L1248.97 346.364Z" fill="#A5A5A4"/>
<path d="M1223.47 333.612V367.313L1219.82 365.492V331.79L1223.47 333.612Z" fill="#A5A5A4"/>
<path d="M1227.11 335.434V365.492L1223.47 367.313V333.612L1227.11 335.434Z" fill="#5E5F62"/>
</g>
<g clip-path="url(#clip1)" style="animation: change_fill 5s 5s infinite">>
<path d="M1382.08 375.554L1342 395.593V402.88L1343.82 403.79V437.492L1347.47 439.313L1351.11 437.492V407.434L1369.33 416.542V424.74L1372.97 426.561L1376.61 424.74V420.186L1407.58 435.67L1409.4 434.759V470.282L1413.05 472.104L1416.69 470.282V431.116L1434.91 422.007V457.53L1438.55 459.352L1442.19 457.53V418.364L1447.66 415.631V408.345L1382.08 375.554Z" fill="#CBB292"/>
<path d="M1407.58 428.383V435.67L1342 402.88V395.593L1407.58 428.383Z" fill="#CB8252"/>
<path d="M1447.66 408.345V415.631L1407.58 435.67V428.383L1447.66 408.345Z" fill="#805333"/>
<path d="M1442.19 418.364V457.53L1438.55 459.352V420.186L1442.19 418.364Z" fill="#5E5F62"/>
<path d="M1438.55 420.186V459.352L1434.91 457.53V422.007L1438.55 420.186Z" fill="#A5A5A4"/>
<path d="M1416.69 431.116V470.282L1413.05 472.104V432.937L1416.69 431.116Z" fill="#5E5F62"/>
<path d="M1413.05 432.937V472.104L1409.4 470.282V434.759L1413.05 432.937Z" fill="#A5A5A4"/>
<path d="M1376.61 420.186V424.74L1372.97 426.561V418.364L1376.61 420.186Z" fill="#5E5F62"/>
<path d="M1372.97 418.364V426.561L1369.33 424.74V416.542L1372.97 418.364Z" fill="#A5A5A4"/>
<path d="M1347.47 405.612V439.313L1343.82 437.492V403.79L1347.47 405.612Z" fill="#A5A5A4"/>
<path d="M1351.11 407.434V437.492L1347.47 439.313V405.612L1351.11 407.434Z" fill="#5E5F62"/>
</g>
<g clip-path="url(#clip2)" style="animation: change_fill 5s 2s infinite">>
<path d="M1136.08 231.554L1096 251.593V258.88L1097.82 259.79V293.492L1101.47 295.313L1105.11 293.492V263.434L1123.33 272.542V280.74L1126.97 282.561L1130.61 280.74V276.186L1161.58 291.67L1163.4 290.759V326.282L1167.05 328.104L1170.69 326.282V287.116L1188.91 278.007V313.53L1192.55 315.352L1196.19 313.53V274.364L1201.66 271.631V264.345L1136.08 231.554Z" fill="#CBB292"/>
<path d="M1161.58 284.383V291.67L1096 258.88V251.593L1161.58 284.383Z" fill="#CB8252"/>
<path d="M1201.66 264.345V271.631L1161.58 291.67V284.383L1201.66 264.345Z" fill="#805333"/>
<path d="M1196.19 274.364V313.53L1192.55 315.352V276.186L1196.19 274.364Z" fill="#5E5F62"/>
<path d="M1192.55 276.186V315.352L1188.91 313.53V278.007L1192.55 276.186Z" fill="#A5A5A4"/>
<path d="M1170.69 287.116V326.282L1167.05 328.104V288.937L1170.69 287.116Z" fill="#5E5F62"/>
<path d="M1167.05 288.937V328.104L1163.4 326.282V290.759L1167.05 288.937Z" fill="#A5A5A4"/>
<path d="M1130.61 276.186V280.74L1126.97 282.561V274.364L1130.61 276.186Z" fill="#5E5F62"/>
<path d="M1126.97 274.364V282.561L1123.33 280.74V272.542L1126.97 274.364Z" fill="#A5A5A4"/>
<path d="M1101.47 261.612V295.313L1097.82 293.492V259.79L1101.47 261.612Z" fill="#A5A5A4"/>
<path d="M1105.11 263.434V293.492L1101.47 295.313V261.612L1105.11 263.434Z" fill="#5E5F62"/>
</g>
<g clip-path="url(#clip3)">
<path d="M1419.58 147.554L1459.66 167.593V174.88L1457.84 175.79V209.492L1454.19 211.313L1450.55 209.492V179.434L1432.33 188.542V196.74L1428.69 198.561L1425.05 196.74V192.186L1394.08 207.67L1392.26 206.759V242.282L1388.61 244.104L1384.97 242.282V203.116L1366.75 194.007V229.53L1363.11 231.352L1359.47 229.53V190.364L1354 187.631V180.345L1419.58 147.554Z" fill="#CBB292"/>
<path d="M1394.08 200.383V207.67L1459.66 174.88V167.593L1394.08 200.383Z" fill="#CB8252"/>
<path d="M1354 180.345V187.631L1394.08 207.67V200.383L1354 180.345Z" fill="#805333"/>
<path d="M1359.47 190.364V229.53L1363.11 231.352V192.186L1359.47 190.364Z" fill="#5E5F62"/>
<path d="M1363.11 192.186V231.352L1366.75 229.53V194.007L1363.11 192.186Z" fill="#A5A5A4"/>
<path d="M1384.97 203.116V242.282L1388.61 244.104V204.937L1384.97 203.116Z" fill="#5E5F62"/>
<path d="M1388.61 204.937V244.104L1392.26 242.282V206.759L1388.61 204.937Z" fill="#A5A5A4"/>
<path d="M1425.05 192.186V196.74L1428.69 198.561V190.364L1425.05 192.186Z" fill="#5E5F62"/>
<path d="M1428.69 190.364V198.561L1432.33 196.74V188.542L1428.69 190.364Z" fill="#A5A5A4"/>
</g>
<rect width="505.28" height="505.28" transform="matrix(0.866044 0.499967 -0.866044 0.499967 1040.59 321.753)" fill="#F0F0F0"/>
<g clip-path="url(#clip4)">
<path d="M1036.46 291.402L996.386 311.441V318.728L998.208 319.639V353.34L1001.85 355.161L1005.49 353.34V323.282L1023.71 332.39V340.588L1027.36 342.409L1031 340.588V336.034L1061.97 351.518L1063.79 350.607V386.13L1067.43 387.952L1071.08 386.13V346.964L1089.29 337.855V373.378L1092.94 375.2L1096.58 373.378V334.212L1102.04 331.479V324.193L1036.46 291.402Z" fill="#CBB292"/>
<path d="M1061.97 344.231V351.518L996.386 318.728V311.441L1061.97 344.231Z" fill="#CB8252"/>
<path d="M1102.04 324.193V331.479L1061.97 351.518V344.231L1102.04 324.193Z" fill="#805333"/>
<path d="M1096.58 334.212V373.378L1092.94 375.2V336.034L1096.58 334.212Z" fill="#5E5F62"/>
<path d="M1092.94 336.034V375.2L1089.29 373.378V337.855L1092.94 336.034Z" fill="#A5A5A4"/>
<path d="M1071.08 346.964V386.13L1067.43 387.952V348.785L1071.08 346.964Z" fill="#5E5F62"/>
<path d="M1067.43 348.785V387.952L1063.79 386.13V350.607L1067.43 348.785Z" fill="#A5A5A4"/>
<path d="M1031 336.034V340.588L1027.36 342.41V334.212L1031 336.034Z" fill="#5E5F62"/>
<path d="M1027.36 334.212V342.409L1023.71 340.588V332.39L1027.36 334.212Z" fill="#A5A5A4"/>
<path d="M1001.85 321.46V355.161L998.208 353.34V319.639L1001.85 321.46Z" fill="#A5A5A4"/>
<path d="M1005.49 323.282V353.34L1001.85 355.161V321.46L1005.49 323.282Z" fill="#5E5F62"/>
</g>
<g clip-path="url(#clip5)" style="animation: change_fill 5s 3s infinite">>
<path d="M1156.27 344.231L1116.19 364.27V371.557L1118.02 372.467V406.169L1121.66 407.99L1125.3 406.169V376.111L1143.52 385.219V393.417L1147.16 395.238L1150.81 393.417V388.863L1181.78 404.347L1183.6 403.436V438.959L1187.24 440.781L1190.88 438.959V399.793L1209.1 390.684V426.207L1212.74 428.029L1216.39 426.207V387.041L1221.85 384.308V377.022L1156.27 344.231Z" fill="#CBB292"/>
<path d="M1181.78 397.06V404.347L1116.19 371.557V364.27L1181.78 397.06Z" fill="#CB8252"/>
<path d="M1221.85 377.022V384.308L1181.78 404.347V397.06L1221.85 377.022Z" fill="#805333"/>
<path d="M1216.39 387.041V426.207L1212.74 428.029V388.863L1216.39 387.041Z" fill="#5E5F62"/>
<path d="M1212.74 388.863V428.029L1209.1 426.207V390.684L1212.74 388.863Z" fill="#A5A5A4"/>
<path d="M1190.88 399.793V438.959L1187.24 440.781V401.614L1190.88 399.793Z" fill="#5E5F62"/>
<path d="M1187.24 401.614V440.781L1183.6 438.959V403.436L1187.24 401.614Z" fill="#A5A5A4"/>
<path d="M1150.81 388.863V393.417L1147.16 395.238V387.041L1150.81 388.863Z" fill="#5E5F62"/>
<path d="M1147.16 387.041V395.238L1143.52 393.417V385.219L1147.16 387.041Z" fill="#A5A5A4"/>
<path d="M1121.66 374.289V407.99L1118.02 406.169V372.467L1121.66 374.289Z" fill="#A5A5A4"/>
<path d="M1125.3 376.111V406.169L1121.66 407.99V374.289L1125.3 376.111Z" fill="#5E5F62"/>
</g>
<g opacity="0.4">
<g clip-path="url(#clip6)">
<path d="M952.503 338.571L912.426 358.609V365.896L914.248 366.807V400.508L917.891 402.33L921.535 400.508V370.451L939.752 379.559V387.757L943.395 389.578L947.038 387.757V383.202L978.007 398.687L979.829 397.776V433.299L983.472 435.12L987.115 433.299V394.132L1005.33 385.024V420.547L1008.98 422.369L1012.62 420.547V381.381L1018.08 378.648V371.361L952.503 338.571Z" fill="#CBB292"/>
<path d="M978.007 391.4V398.687L912.426 365.896V358.609L978.007 391.4Z" fill="#CB8252"/>
<path d="M1018.08 371.361V378.648L978.007 398.687V391.4L1018.08 371.361Z" fill="#805333"/>
<path d="M1012.62 381.381V420.547L1008.98 422.369V383.202L1012.62 381.381Z" fill="#5E5F62"/>
<path d="M1008.98 383.202V422.369L1005.33 420.547V385.024L1008.98 383.202Z" fill="#A5A5A4"/>
<path d="M987.115 394.132V433.299L983.472 435.12V395.954L987.115 394.132Z" fill="#5E5F62"/>
<path d="M983.472 395.954V435.12L979.829 433.299V397.776L983.472 395.954Z" fill="#A5A5A4"/>
<path d="M947.038 383.202V387.757L943.395 389.578V381.381L947.038 383.202Z" fill="#5E5F62"/>
<path d="M943.395 381.381V389.578L939.752 387.757V379.559L943.395 381.381Z" fill="#A5A5A4"/>
<path d="M917.891 368.629V402.33L914.248 400.508V366.807L917.891 368.629Z" fill="#A5A5A4"/>
<path d="M921.535 370.451V400.508L917.891 402.33V368.629L921.535 370.451Z" fill="#5E5F62"/>
</g>
</g>
<g clip-path="url(#clip7)" style="animation: change_fill 5s infinite">>
<path d="M891.184 652.714L851.107 672.753V680.039L852.929 680.95V714.651L856.572 716.473L860.216 714.651V684.594L878.432 693.702V701.9L882.076 703.721L885.719 701.9V697.345L916.688 712.83L918.51 711.919V747.442L922.153 749.263L925.796 747.442V708.275L944.013 699.167V734.69L947.656 736.512L951.3 734.69V695.524L956.765 692.791V685.505L891.184 652.714Z" fill="#CBB292"/>
<path d="M916.688 705.543V712.83L851.107 680.039V672.753L916.688 705.543Z" fill="#CB8252"/>
<path d="M956.765 685.505V692.791L916.688 712.83V705.543L956.765 685.505Z" fill="#805333"/>
<path d="M951.3 695.524V734.69L947.656 736.512V697.345L951.3 695.524Z" fill="#5E5F62"/>
<path d="M947.656 697.345V736.512L944.013 734.69V699.167L947.656 697.345Z" fill="#A5A5A4"/>
<path d="M925.796 708.275V747.442L922.153 749.263V710.097L925.796 708.275Z" fill="#5E5F62"/>
<path d="M922.153 710.097V749.263L918.51 747.442V711.919L922.153 710.097Z" fill="#A5A5A4"/>
<path d="M885.719 697.345V701.9L882.076 703.721V695.524L885.719 697.345Z" fill="#5E5F62"/>
<path d="M882.076 695.524V703.721L878.432 701.9V693.702L882.076 695.524Z" fill="#A5A5A4"/>
<path d="M856.572 682.772V716.473L852.929 714.651V680.95L856.572 682.772Z" fill="#A5A5A4"/>
<path d="M860.216 684.594V714.651L856.572 716.473V682.772L860.216 684.594Z" fill="#5E5F62"/>
</g>
<g opacity="0.4">
<g clip-path="url(#clip8)" >
<path d="M1009.11 722.524L969.029 742.562V749.849L970.85 750.76V784.461L974.494 786.283L978.137 784.461V754.403L996.354 763.512V771.709L999.997 773.531L1003.64 771.709V767.155L1034.61 782.639L1036.43 781.729V817.251L1040.07 819.073L1043.72 817.251V778.085L1061.93 768.977V804.499L1065.58 806.321L1069.22 804.499V765.333L1074.69 762.601V755.314L1009.11 722.524Z" fill="#CBB292"/>
<path d="M1034.61 775.353V782.639L969.029 749.849V742.562L1034.61 775.353Z" fill="#CB8252"/>
<path d="M1074.69 755.314V762.601L1034.61 782.639V775.353L1074.69 755.314Z" fill="#805333"/>
<path d="M1069.22 765.333V804.499L1065.58 806.321V767.155L1069.22 765.333Z" fill="#5E5F62"/>
<path d="M1065.58 767.155V806.321L1061.93 804.499V768.977L1065.58 767.155Z" fill="#A5A5A4"/>
<path d="M1043.72 778.085V817.251L1040.07 819.073V779.907L1043.72 778.085Z" fill="#5E5F62"/>
<path d="M1040.07 779.907V819.073L1036.43 817.251V781.729L1040.07 779.907Z" fill="#A5A5A4"/>
<path d="M1003.64 767.155V771.709L999.997 773.531V765.333L1003.64 767.155Z" fill="#5E5F62"/>
<path d="M999.997 765.333V773.531L996.354 771.709V763.512L999.997 765.333Z" fill="#A5A5A4"/>
<path d="M974.494 752.581V786.283L970.85 784.461V750.76L974.494 752.581Z" fill="#A5A5A4"/>
<path d="M978.137 754.403V784.461L974.494 786.283V752.581L978.137 754.403Z" fill="#5E5F62"/>
</g>
</g>
<g clip-path="url(#clip9)" >
<path d="M868.931 340.113L799.715 380.031L763.742 359.302V400.815L736.066 416.761V458.221L708.418 474.167H708.39V474.194V515.681V515.708H708.445L763.742 547.599L888.282 475.761V434.302V392.815V392.788V370.463V351.301V351.273L868.931 340.111V340.113Z" fill="white"/>
<path d="M832.962 319.457L763.772 359.377V400.89L823.232 402.052L888.336 351.315L832.962 319.457Z" fill="white"/>
<path d="M888.282 351.3L819.093 391.219V432.706L791.417 448.679V490.111L763.742 506.084V547.597L888.282 475.76V434.3V392.814V392.786V351.3V351.3Z" fill="#EFEFEF"/>
<path d="M708.42 474.202V515.715L763.772 547.636V506.121L708.42 474.202ZM736.096 416.797V458.31L791.448 490.229V448.716L736.096 416.797ZM763.772 359.335V400.85L819.124 432.769V391.256L763.772 359.335Z" fill="#CACACA"/>
</g>
<g clip-path="url(#clip10)" >
<path d="M688.842 639.399L656.789 658.026L656.772 663.973L731.304 707.004L763.357 688.377L763.373 682.429L688.842 639.399Z" fill="#554432"/>
<path d="M763.373 682.429L763.357 688.377L731.304 707.004L731.32 701.056L763.373 682.429Z" fill="#554432"/>
<path d="M731.32 701.056L731.304 707.004L656.772 663.973L656.789 658.026L731.32 701.056Z" fill="#5E4C36"/>
<path d="M763.373 682.429L731.32 701.056L656.789 658.026L688.842 639.399L763.373 682.429Z" fill="#806749"/>
<path d="M763.252 683.01L761.121 683.294L761.837 685.684L759.975 685.431L758.689 686.166L756.676 685.847L755.612 687.124L754.913 688.371L752.243 688.299L752.414 690.122L750.261 690.62L748.482 689.257L748.522 692.278L746.447 691.659L746.309 694.37L743.873 693.13L742.13 693.08L740.726 693.614L741.146 697.29L739.176 696.913L738.482 698.61L735.848 697.031L735.305 699.047L734.936 701.366L731.998 699.266L731.331 702.66L730.006 700.416L729.67 698.083L726.933 699.906L727.027 696.827L724.599 698.116L723.468 697.159L723.469 694.242L721.185 695.279L720.54 693.481L718.635 693.864L716.67 694.351L716.43 691.85L715.328 690.842L713.843 690.498L712.204 690.42L711.15 689.328L710.77 687.069L709.56 686.248L707.383 687.101L705.07 688.192L704.264 686.673L702.852 686.204L701.925 684.897L700.17 685.02L700.274 681.924L698.652 681.817L697.667 680.608L694.987 682.334L695.309 678.861L693.233 679.538L691.242 680.07L691.468 676.764L688.832 678.413L688.946 675.296L688.09 673.863L685.474 675.476L685.084 673.444L683.134 673.695L681.254 673.019L681.405 670.855L679.126 672.046L677.923 670.228L676.054 671.367L676.501 667.676L675.463 666.555L672.371 668.991L672.735 665.443L670.202 666.914L669.721 664.828L668.054 664.799L666.337 664.854L665.425 663.514L664.006 663.052L663.789 662.067L661.677 661.487L659.593 661.937L659.118 659.839L657.384 659.919L656.902 658.027L659.093 657.272L659.245 655.448L661.111 655.514L660.943 654.783L662.947 653.873L663.542 651.946L665.433 652.251L666.9 651.824L668.03 650.817L669.799 650.911L670.484 649.138L672.769 650.119L674.003 649.292L674.927 647.933L676.765 648.144L676.257 644.32L678.815 645.77L680.681 646.029L680.577 642.898L683.176 644.418L683.208 641.521L684.621 641L687.181 642.452L687.204 639.535L688.845 639.763L689.933 640.426L692.258 639.315L692.65 641.554L694.766 640.805L694.464 644.243L696.73 643.234L698.135 643.718L698.898 645.313L700.075 646.192L702.398 645.084L702.131 648.462L703.444 649.105L706.157 647.323L706.292 650.006L707.152 651.432L708.851 651.407L709.979 652.37L712.184 651.467L711.884 654.903L714.529 653.24L716.139 653.365L715.929 656.645L718.123 655.758L719.149 656.895L719.493 659.217L722.08 657.653L723.76 657.658L724.699 658.947L726.38 658.951L726.309 661.991L728.752 660.677L728.314 664.351L730.793 662.974L731.364 664.903L733.138 664.747L733.997 666.175L735.908 665.785L737.485 665.969L739.137 666.026L739.094 668.864L740.554 669.026L741.283 670.729L743.35 670.228L744.146 671.94L745.625 672.298L747.558 671.868L748.151 673.76L750.349 672.868L750.001 676.39L752.075 675.715L752.197 678.422L755.033 676.428L755.963 677.738L758.015 677.103L757.902 680.051L760.009 680.355L760.518 681.529L761.673 681.448L763.252 683.01Z" fill="#957755"/>
<path d="M694.032 657.643L692.378 656.688L685.199 658.508L686.577 656.756L690.699 655.734L689.292 654.922L686.481 655.712L687.847 654.088L686.442 653.276L684.702 655.674L681.671 656.471L684.787 652.306L683.146 651.359L679.207 656.937L680.639 657.764L684.774 656.703L682.969 659.109L684.403 659.937L694.032 657.643Z" fill="#554432"/>
<path d="M693.166 660.409C693.433 660.275 693.72 660.175 694.027 660.113C694.333 660.05 694.639 660.021 694.941 660.026C695.244 660.032 695.539 660.069 695.824 660.139C696.111 660.209 696.37 660.312 696.605 660.447C697.082 660.723 697.335 661.047 697.363 661.416C697.391 661.788 697.174 662.133 696.707 662.453L693.166 660.409ZM697.886 659.732C697.331 659.412 696.734 659.178 696.098 659.03C695.46 658.882 694.824 658.812 694.188 658.819C693.553 658.828 692.938 658.907 692.348 659.06C691.756 659.213 691.219 659.43 690.735 659.711C690.27 659.981 689.909 660.288 689.656 660.631C689.402 660.975 689.273 661.33 689.266 661.694C689.259 662.061 689.386 662.426 689.643 662.789C689.9 663.152 690.301 663.492 690.848 663.807C691.612 664.249 692.436 664.532 693.319 664.656C694.202 664.783 695.028 664.766 695.797 664.612L694.715 663.507C694.325 663.602 693.893 663.609 693.417 663.529C692.941 663.448 692.529 663.309 692.182 663.108C691.955 662.977 691.777 662.83 691.647 662.665C691.516 662.499 691.441 662.326 691.424 662.146C691.406 661.965 691.447 661.785 691.55 661.604C691.653 661.424 691.825 661.249 692.065 661.078L697.338 664.123C697.425 664.093 697.523 664.048 697.632 663.991C697.739 663.933 697.849 663.872 697.961 663.807C698.418 663.542 698.776 663.239 699.04 662.901C699.301 662.563 699.438 662.213 699.448 661.849C699.459 661.486 699.341 661.123 699.092 660.759C698.843 660.396 698.442 660.053 697.886 659.732Z" fill="#554432"/>
<path d="M706.788 661.92L705.043 660.913L697.165 665.491C696.63 665.802 696.369 666.128 696.378 666.469C696.389 666.809 696.668 667.138 697.215 667.454C697.467 667.599 697.78 667.744 698.152 667.89C698.525 668.035 698.885 668.142 699.232 668.212L700.317 667.31C700.151 667.276 699.988 667.232 699.829 667.18C699.668 667.127 699.537 667.07 699.433 667.01C699.206 666.879 699.102 666.739 699.119 666.589C699.134 666.438 699.268 666.29 699.517 666.145L706.788 661.92Z" fill="#554432"/>
<path d="M709.801 666.611C709.245 666.29 708.649 666.058 708.018 665.912C707.385 665.767 706.753 665.698 706.122 665.702C705.49 665.707 704.88 665.785 704.293 665.935C703.705 666.086 703.174 666.299 702.7 666.574C702.235 666.845 701.873 667.153 701.615 667.499C701.358 667.845 701.224 668.202 701.213 668.57C701.203 668.938 701.322 669.305 701.576 669.671C701.828 670.037 702.233 670.38 702.788 670.701C703.544 671.138 704.353 671.415 705.221 671.536C706.086 671.656 706.894 671.634 707.646 671.468L706.459 670.183C706.131 670.253 705.755 670.256 705.337 670.194C704.916 670.131 704.549 670.009 704.238 669.829C703.995 669.689 703.813 669.528 703.695 669.344C703.578 669.162 703.529 668.971 703.55 668.773C703.57 668.574 703.658 668.376 703.813 668.175C703.966 667.975 704.195 667.787 704.496 667.611C704.798 667.436 705.12 667.302 705.462 667.209C705.803 667.116 706.143 667.065 706.48 667.055C706.817 667.045 707.144 667.074 707.46 667.141C707.776 667.209 708.06 667.316 708.312 667.461C708.607 667.631 708.81 667.825 708.918 668.044C709.027 668.262 709.031 668.486 708.929 668.716L711.153 669.4C711.408 668.949 711.434 668.48 711.228 667.991C711.023 667.502 710.547 667.042 709.801 666.611Z" fill="#554432"/>
<path d="M711.516 674.031C711.264 673.886 711.079 673.722 710.961 673.539C710.843 673.356 710.795 673.166 710.815 672.967C710.836 672.769 710.923 672.574 711.079 672.378C711.233 672.182 711.461 671.997 711.763 671.822C712.056 671.652 712.373 671.519 712.715 671.426C713.056 671.334 713.397 671.281 713.739 671.268C714.08 671.256 714.412 671.282 714.732 671.347C715.052 671.413 715.338 671.518 715.59 671.663C715.841 671.808 716.027 671.973 716.145 672.155C716.262 672.339 716.31 672.529 716.29 672.727C716.27 672.925 716.18 673.124 716.022 673.321C715.862 673.52 715.636 673.703 715.343 673.874C715.041 674.049 714.72 674.184 714.379 674.276C714.037 674.369 713.696 674.421 713.354 674.433C713.012 674.446 712.683 674.419 712.367 674.351C712.051 674.284 711.767 674.176 711.516 674.031ZM717.066 670.806C716.51 670.485 715.915 670.253 715.283 670.107C714.65 669.962 714.019 669.894 713.388 669.904C712.757 669.915 712.147 669.995 711.56 670.145C710.971 670.295 710.44 670.508 709.966 670.784C709.5 671.054 709.138 671.36 708.882 671.701C708.623 672.042 708.488 672.395 708.472 672.761C708.456 673.126 708.575 673.493 708.828 673.858C709.081 674.225 709.485 674.568 710.041 674.889C710.596 675.209 711.19 675.442 711.823 675.587C712.456 675.734 713.085 675.799 713.713 675.787C714.34 675.774 714.946 675.694 715.534 675.543C716.121 675.393 716.648 675.181 717.113 674.911C717.588 674.635 717.954 674.327 718.213 673.986C718.47 673.646 718.606 673.292 718.622 672.927C718.637 672.56 718.519 672.196 718.271 671.832C718.023 671.47 717.621 671.126 717.066 670.806Z" fill="#554432"/>
<path d="M730.36 678.481C729.813 678.166 729.203 677.957 728.533 677.854C727.861 677.751 727.155 677.755 726.41 677.865C726.728 677.579 726.87 677.266 726.833 676.925C726.798 676.585 726.493 676.249 725.919 675.917C725.356 675.592 724.735 675.371 724.06 675.257C723.385 675.141 722.701 675.139 722.009 675.249L723.263 674.52L721.688 673.611L714.91 677.55L716.655 678.557L720.614 676.256C721.166 676.086 721.726 676.014 722.293 676.042C722.859 676.07 723.312 676.182 723.651 676.377C723.98 676.567 724.115 676.789 724.051 677.042C723.987 677.295 723.683 677.579 723.14 677.895L719.337 680.105L721.082 681.112L725.027 678.82C725.58 678.649 726.14 678.575 726.707 678.597C727.274 678.62 727.73 678.732 728.078 678.932C728.407 679.123 728.542 679.344 728.478 679.597C728.414 679.85 728.111 680.135 727.568 680.451L723.765 682.661L725.508 683.668L729.739 681.209C730.066 681.019 730.361 680.815 730.626 680.597C730.887 680.379 731.071 680.155 731.173 679.924C731.275 679.693 731.27 679.455 731.155 679.21C731.041 678.965 730.777 678.722 730.36 678.481Z" fill="#554432"/>
<path d="M732.384 683.052C732.65 682.916 732.938 682.818 733.246 682.755C733.552 682.692 733.857 682.664 734.16 682.668C734.461 682.673 734.756 682.711 735.043 682.781C735.328 682.851 735.589 682.954 735.823 683.089C736.3 683.365 736.552 683.688 736.581 684.059C736.609 684.43 736.39 684.775 735.926 685.096L732.384 683.052ZM737.104 682.375C736.548 682.054 735.952 681.821 735.315 681.672C734.678 681.525 734.042 681.455 733.406 681.462C732.77 681.47 732.156 681.551 731.566 681.703C730.973 681.855 730.435 682.072 729.952 682.353C729.487 682.623 729.127 682.931 728.875 683.274C728.62 683.618 728.49 683.972 728.484 684.338C728.478 684.704 728.604 685.069 728.861 685.432C729.119 685.795 729.519 686.135 730.066 686.451C730.831 686.892 731.655 687.175 732.538 687.3C733.42 687.425 734.247 687.41 735.015 687.255L733.932 686.15C733.544 686.246 733.111 686.252 732.635 686.173C732.159 686.092 731.746 685.951 731.4 685.752C731.173 685.621 730.996 685.474 730.865 685.308C730.735 685.142 730.66 684.97 730.642 684.789C730.623 684.608 730.665 684.428 730.768 684.247C730.871 684.067 731.042 683.892 731.283 683.721L736.557 686.766C736.644 686.736 736.741 686.692 736.848 686.634C736.957 686.576 737.067 686.516 737.18 686.45C737.636 686.185 737.995 685.883 738.257 685.544C738.519 685.207 738.654 684.855 738.667 684.492C738.676 684.129 738.557 683.765 738.31 683.402C738.061 683.039 737.66 682.696 737.104 682.375Z" fill="#554432"/>
</g>
<rect width="138.644" height="197.182" transform="matrix(0.866044 -0.499967 0.866044 0.499967 1186 545.784)" fill="#C4C4C4"/>
<path d="M1319.09 544.205L1328.24 549.485L1326.76 550.335L1319.33 546.045L1315.87 548.045L1319.65 550.225C1321.09 551.058 1321.89 551.865 1322.04 552.645C1322.19 553.425 1321.7 554.141 1320.56 554.794C1319.37 555.481 1318.05 555.771 1316.6 555.664C1315.15 555.564 1313.68 555.078 1312.16 554.205L1306.97 551.205L1319.09 544.205ZM1313.46 553.375C1314.46 553.948 1315.4 554.275 1316.3 554.355C1317.2 554.435 1318.02 554.261 1318.76 553.835C1320.23 552.988 1319.95 551.978 1317.91 550.805L1314.5 548.835L1310.05 551.405L1313.46 553.375ZM1330.5 561.289L1324.05 557.569L1319.69 558.549L1317.91 557.519L1335.52 553.69L1337.24 554.68L1330.62 564.859L1328.8 563.809L1330.5 561.289ZM1331.28 560.139L1334.6 555.2L1326.05 557.119L1331.28 560.139ZM1349.56 561.797C1351.14 562.704 1352 563.634 1352.15 564.587C1352.3 565.54 1351.71 566.397 1350.4 567.157C1349.08 567.917 1347.6 568.254 1345.94 568.167C1344.29 568.08 1342.68 567.584 1341.11 566.677L1338.12 564.947L1334.44 567.067L1332.71 566.067L1344.84 559.067L1349.56 561.797ZM1342.57 565.777C1343.66 566.41 1344.73 566.76 1345.77 566.827C1346.82 566.887 1347.79 566.664 1348.66 566.157C1349.54 565.65 1349.92 565.097 1349.81 564.497C1349.7 563.891 1349.1 563.271 1348.01 562.637L1345.06 560.937L1339.62 564.077L1342.57 565.777Z" fill="#6D6D6D"/>
<g clip-path="url(#clip11)" style="animation: change_position 5s 0s infinite">>
<path d="M1224.61 649.548V656.435C1224.61 656.435 1226.18 658.646 1229.14 657.812C1232.09 656.979 1242.44 651.599 1241.67 649.912C1239.81 645.809 1235.31 648.591 1229.59 649.038C1226.44 649.285 1224.61 649.548 1224.61 649.548Z" fill="#884D01"/>
<path d="M1208.67 640.694V647.58C1208.67 647.58 1210.25 649.791 1213.2 648.958C1216.15 648.125 1226.76 642.598 1225.73 641.058C1223.13 637.159 1219.37 639.737 1213.65 640.184C1210.5 640.43 1208.67 640.694 1208.67 640.694Z" fill="#884D01"/>
<path d="M1206.73 573.536L1207.05 579.522C1207.05 579.522 1209.04 580.85 1209.26 581.071C1209.48 581.293 1214.42 579.498 1214.42 578.931C1214.42 578.366 1213.32 574.873 1213.32 574.357C1213.32 573.84 1212.95 571.184 1212.95 571.184L1206.73 573.536Z" fill="#FEC377"/>
<path d="M1215 523.276C1213.16 523.029 1206.9 522.596 1205.92 534.928C1205.49 540.273 1205.11 548.871 1205.38 555.298C1205.79 565.324 1206.15 574.182 1206.15 574.182C1206.15 574.182 1209.77 577.458 1214.58 573.692C1214.58 573.692 1213.22 552.881 1213.89 545.357C1214.87 534.239 1218.81 523.787 1215 523.276Z" fill="#AD2201"/>
<path d="M1208.45 569.193L1207.67 641.026C1207.67 641.026 1207.52 643.004 1212.79 643.004C1218.07 643.004 1218.34 640.481 1218.34 640.481L1220.44 587.687L1221.4 588.213L1223.59 650.031C1223.59 650.031 1223.43 652.009 1228.71 652.009C1233.98 652.009 1234.26 649.487 1234.26 649.487L1235.02 573.89L1208.45 569.193Z" fill="#013F8A"/>
<path d="M1208.11 571.566C1208.11 571.566 1207.14 561.041 1207.31 551.076C1207.45 542.714 1207.67 539.602 1207.67 535.277C1207.67 525.547 1211.84 523.215 1215 523.276C1215 523.276 1227.63 527.046 1237.37 535.67L1235.64 575.213C1232.1 579.876 1214.85 578.498 1208.11 571.566Z" fill="#AD2201"/>
<path d="M1208.11 571.566C1208.11 571.566 1207.14 561.041 1207.31 551.076C1207.45 542.714 1207.67 539.602 1207.67 535.277C1207.67 534.961 1207.68 534.653 1207.69 534.352L1207.67 534.239C1207.67 534.239 1205.31 551.595 1207.29 571.184C1207.43 572.576 1207.56 573.869 1207.69 575.076C1208.82 575.525 1210.51 575.806 1212.52 574.937L1212.49 574.695C1210.79 573.824 1209.29 572.781 1208.11 571.566Z" fill="#891D00"/>
<path d="M1219.34 518.08L1217.24 528.785C1217.24 528.785 1220.76 532.575 1227.3 529.861C1227.3 529.861 1227.9 521.622 1228.49 520.367C1229.08 519.113 1219.34 518.08 1219.34 518.08Z" fill="#FEC377"/>
<path d="M1232.84 508.547C1232.84 508.547 1233.42 518.906 1230.89 520.761C1228.36 522.617 1216.34 521.399 1212.78 515.139C1209.22 508.879 1211.17 497.052 1219.09 495.767C1228.33 494.267 1233.4 499.244 1232.84 508.547Z" fill="#FEC377"/>
<path d="M1218.92 519.969C1216.21 519.84 1213 517.207 1211.44 513.104C1210.12 509.626 1210.59 503.225 1211.86 500.875C1213.55 497.739 1215.68 496.017 1218.72 495.397C1222.21 494.686 1223.57 494.987 1227.03 495.85C1229.32 496.423 1233.79 498.743 1235.41 497.024C1235.81 500.876 1233.55 503.56 1231.54 504.748C1230.48 505.374 1230.52 505.553 1229.64 506.413C1228.37 507.649 1228.31 509.637 1228.34 511.409C1228.51 509.845 1227.09 508.296 1225.52 508.353C1223.95 508.411 1222.65 510.106 1223.03 511.63C1223.2 512.329 1224.4 514.881 1224.84 515.449L1218.92 519.969Z" fill="#DDB201"/>
<path d="M1232.96 587.341C1232.96 587.341 1233.11 592.442 1233.14 593.093C1233.17 593.75 1232.52 594.197 1233.04 595.495C1233.12 595.698 1234.64 596.757 1235.18 596.933C1235.77 597.124 1239.42 594.623 1239.96 594.227C1240.5 593.831 1240.05 590.651 1240.01 589.89C1240 589.658 1239.91 585.918 1239.46 585.756C1239 585.594 1232.96 587.341 1232.96 587.341Z" fill="#FEC377"/>
<path d="M1237.97 536.128C1236.92 534.528 1232.68 531.878 1230.71 538.569C1228.74 545.259 1232.14 588.888 1232.14 588.888C1232.14 588.888 1237.3 592.216 1240.72 586.977C1240.72 586.977 1238.78 570.616 1238.78 560.533C1238.78 550.452 1239.96 539.14 1237.97 536.128Z" fill="#AD2201"/>
<path d="M1230.18 543.345L1230.1 542.306L1228.9 577.843C1229.77 577.765 1230.58 577.635 1231.34 577.464C1230.66 566.861 1229.84 551.523 1230.18 543.345Z" fill="#891D00"/>
<path d="M1217.01 528.53C1216.91 527.94 1217.24 525.787 1217.8 525.953C1217.8 525.953 1217.92 528.615 1227.51 527.285L1228.52 529.264C1228.52 529.264 1225.33 531.523 1222.27 531.283C1220.09 531.114 1217.24 529.777 1217.01 528.53Z" fill="#CD2A01"/>
</g>
<g style="animation: change_center-people 5s 0s infinite">
<path d="M1000.92 480.838C1000.92 480.838 1000.3 486.742 1000.67 487.108C1001.03 487.475 1002.72 488.502 1003.12 488.502C1003.53 488.502 1006.48 487.37 1006.82 486.598C1007.12 485.932 1006.9 484.252 1006.06 483.241C1005.09 482.08 1005.22 480.041 1005.22 480.041L1000.92 480.838Z" fill="#FEC377"/>
<path d="M1007.73 546.816C1007.73 546.816 997.744 556.576 999.911 557.94C1002.93 559.839 1015.2 552.002 1015.2 551.373C1015.2 550.745 1014.33 544.636 1014.33 544.636L1007.73 546.816Z" fill="#884D01"/>
<path d="M1021.28 554.326C1021.28 554.326 1011.63 564.851 1014.42 566.72C1017.38 568.704 1028.74 559.512 1028.74 558.883C1028.74 558.254 1027.87 552.146 1027.87 552.146L1021.28 554.326Z" fill="#884D01"/>
<path d="M1005.59 486.301L1005.37 547.882C1005.37 547.882 1005.23 549.689 1010.05 549.689C1014.86 549.689 1015.11 547.385 1015.11 547.385L1016.4 502.775L1016.63 502.808L1019.15 555.552C1019.15 555.552 1018.85 556.966 1023.67 556.966C1028.49 556.966 1028.74 554.662 1028.74 554.662L1029.21 488.386L1005.59 486.301Z" fill="#57565C"/>
<path d="M1008.99 439.569C1008.28 439.494 1004.1 440.308 1003.29 446.731C1003 449.045 1002.43 457.248 1002.12 464.977C1001.78 473.832 1000.92 480.838 1000.92 480.838C1000.92 482.859 1004.47 484.372 1005.95 482.89C1006.18 482.668 1008.71 472.012 1008.81 462.97C1008.95 451.406 1013.91 440.09 1008.99 439.569Z" fill="#FEC377"/>
<path d="M1008.96 439.569C1008.25 439.493 1003.92 440.104 1003.19 446.82C1002.93 449.168 1002.32 457.468 1002.01 465.293C1002.01 465.328 1002.01 465.363 1002.01 465.399C1003.85 466.764 1006.38 467.18 1008.65 466.55C1008.72 465.444 1008.77 464.341 1008.78 463.261C1008.92 451.553 1013.95 440.096 1008.96 439.569Z" fill="#008778"/>
<path d="M1004.85 485.847C1004.85 485.847 1004.22 475.488 1004.38 465.943C1004.51 457.934 1003.72 450.027 1003.75 448.034C1003.84 443.093 1006.95 439.596 1008.77 439.565C1008.77 439.565 1021.48 440.611 1032.1 448.871C1032.1 448.871 1030.98 490.259 1029.57 490.738C1017.93 494.688 1005.32 488.003 1004.85 485.847Z" fill="#008778"/>
<path d="M1029.2 478.909C1029.2 478.323 1029.19 477.758 1029.18 477.204C1029.11 477.19 1029.05 477.175 1028.99 477.161C1028.84 469.593 1028.45 465.059 1028.15 461.778L1027.61 491.301C1028.19 491.163 1028.76 490.998 1029.33 490.811C1029.31 488.095 1029.28 484.161 1029.2 478.909Z" fill="#02665A"/>
<path d="M1013.68 437.209C1013.68 437.209 1013.01 442.262 1012.69 445.038C1012.45 447.092 1013.77 448.5 1016.62 447.894C1020.7 447.022 1022.75 444.62 1022.75 444.62C1021.44 440.214 1021.53 433.827 1021.53 433.827L1013.68 437.209Z" fill="#FFB657"/>
<path d="M1022.4 443.265C1022.4 443.265 1022.54 443.717 1022.21 444.05C1021.43 444.826 1018.95 447.223 1015.7 448.024L1017 452.32C1017 452.32 1023.67 447.313 1023.56 445.04C1023.47 443.165 1022.18 442.145 1022.18 442.145L1022.4 443.265Z" fill="#00AB95"/>
<path d="M1012.93 443.065C1012.93 443.065 1012 444.154 1011.37 446.238C1010.75 448.322 1012.15 451.239 1012.15 451.239L1013.86 447.702C1013.86 447.702 1012.87 446.089 1012.78 445.463C1012.69 444.836 1012.93 443.065 1012.93 443.065Z" fill="#00AB95"/>
<path d="M1007.07 428.905C1007.07 428.905 1007.7 438.396 1009.99 440.092C1012.27 441.787 1019.42 440.162 1023.4 433.389C1026.72 427.738 1025.33 416.655 1018.2 415.48C1009.87 414.108 1006.57 420.411 1007.07 428.905Z" fill="#FEC377"/>
<path d="M1018.2 422.482C1016.25 423.32 1014.05 423.376 1011.95 423.143C1008.92 422.809 1006.17 421.221 1004.92 418.443C1005.53 418.081 1015.15 414.344 1018.44 415.101C1020.01 415.463 1023.12 416.535 1022.67 418.522C1022.28 420.259 1019.74 421.817 1018.2 422.482Z" fill="#806749"/>
<path d="M1019.53 421.065C1018.82 423.115 1019.84 425.306 1020.44 427.39C1020.95 429.165 1020.73 431.026 1020.63 432.871C1020.91 431.615 1021.02 431.321 1021.51 430.129C1021.87 429.231 1022.42 428.282 1023.12 428.281C1023.89 428.28 1023.89 429.209 1023.89 429.982C1023.89 432.188 1023.02 433.762 1021.97 435.703C1024.18 433.894 1026.21 431.187 1026.59 428.36C1026.97 425.531 1026.39 422.362 1024.91 419.9C1024.27 418.831 1023.44 417.832 1022.13 418.349C1021.03 418.786 1019.91 419.958 1019.53 421.065Z" fill="#806749"/>
<path d="M1029.41 494.923C1029.41 494.923 1029.3 498.533 1029.4 499.222C1029.5 499.911 1030.25 500.595 1030.25 500.595C1030.25 500.595 1030.18 502.264 1030.83 502.744C1031.47 503.225 1035.22 501.405 1035.8 500.814C1036.6 499.985 1035.61 494.008 1035.61 494.008C1035.61 494.008 1030.35 491.906 1029.41 494.923Z" fill="#FEC377"/>
<path d="M1032.1 448.871C1032.1 448.871 1028.15 449.809 1027.96 454.516C1027.77 459.222 1029 463.586 1029.2 478.909C1029.36 490.284 1029.36 495.49 1029.36 495.49C1029.36 495.49 1031.16 497.423 1035.61 494.009C1035.61 494.009 1036.34 472.987 1036.29 470.212C1036 452.925 1035.23 450.756 1032.1 448.871Z" fill="#FEC377"/>
<path d="M1036.37 476.179C1036.43 473.805 1036.38 471.622 1036.37 470.918C1036.06 453.059 1035.97 450.819 1032.03 448.871C1032.03 448.871 1027.95 449.84 1027.76 454.702C1027.57 459.369 1028.71 462.819 1028.99 477.162C1030.81 477.601 1036.4 478.276 1036.37 476.179Z" fill="#008778"/>
<path d="M1020.63 432.816C1020.63 432.816 1021.38 427.582 1022.93 427.513C1024.02 427.464 1024.5 429.723 1023.7 431.46C1022.89 433.196 1020.63 434.816 1020.63 434.816V432.816Z" fill="#FEC377"/>
</g>
<g clip-path="url(#clip12)"  style="animation: change_fill 5s 1s infinite">
<path d="M761.593 643.678V650.459C761.593 650.459 763.143 652.636 766.049 651.815C768.956 650.995 779.144 645.698 778.391 644.037C776.559 639.998 772.128 642.737 766.497 643.177C763.397 643.419 761.593 643.678 761.593 643.678Z" fill="#3E3D43"/>
<path d="M745.901 634.96V641.741C745.901 641.741 747.451 643.918 750.357 643.098C753.263 642.277 763.71 636.836 762.698 635.319C760.138 631.48 756.436 634.019 750.804 634.459C747.705 634.701 745.901 634.96 745.901 634.96Z" fill="#3E3D43"/>
<path d="M743.992 568.839L744.303 574.733C744.303 574.733 746.264 576.041 746.482 576.259C746.7 576.477 751.556 574.709 751.556 574.152C751.556 573.595 750.478 570.156 750.478 569.648C750.478 569.139 750.115 566.524 750.115 566.524L743.992 568.839Z" fill="#FEC377"/>
<path d="M752.13 519.355C750.318 519.112 744.157 518.685 743.189 530.828C742.769 536.09 742.396 544.555 742.655 550.884C743.06 560.755 743.42 569.476 743.42 569.476C743.42 569.476 746.979 572.702 751.713 568.994C751.713 568.994 750.379 548.505 751.035 541.096C752.003 530.149 755.878 519.858 752.13 519.355Z" fill="#2E2E30"/>
<path d="M744.916 567.327C744.916 567.327 744.394 556.537 744.557 546.726C744.682 539.134 744.881 535.937 744.912 532.147V532.147C743.541 543.727 744.525 570.159 744.526 570.178C745.075 570.443 745.809 570.698 746.69 570.762L746.641 569.719C746.026 569.008 745.451 568.22 744.916 567.327Z" fill="#1D1D1F"/>
<path d="M745.687 564.563L744.917 635.287C744.917 635.287 744.763 637.235 749.956 637.235C755.149 637.235 755.423 634.751 755.423 634.751L757.492 582.771L758.433 583.289L760.587 644.153C760.587 644.153 760.434 646.101 765.626 646.101C770.819 646.101 771.093 643.617 771.093 643.617L771.839 569.187L745.687 564.563Z" fill="#1D1D1F"/>
<path d="M744.916 567.327C744.916 567.327 744.394 556.537 744.557 546.726C744.693 538.493 744.916 535.429 744.916 531.171C744.916 521.592 749.025 519.295 752.13 519.355C752.13 519.355 764.564 523.067 774.16 531.557L774.749 569.238C772.798 575.958 763.246 578.204 754.911 575.159L753.732 570.777L752.54 574.129C749.396 572.531 746.892 570.624 744.916 567.327Z" fill="#2E2E30"/>
<path d="M769.755 505.209C769.755 505.209 770.333 515.633 767.785 517.501C765.237 519.369 753.144 518.143 749.561 511.843C745.979 505.543 747.944 493.64 755.909 492.347C765.214 490.837 770.31 495.846 769.755 505.209Z" fill="#FEC377"/>
<path d="M756.406 514.239L754.337 524.78C754.337 524.78 757.798 528.512 764.237 525.839C764.237 525.839 764.834 517.727 765.415 516.491C765.996 515.256 756.406 514.239 756.406 514.239Z" fill="#FEC377"/>
<path d="M770.284 500.087C773.726 489.76 756.009 489.35 751.672 493.349C749.766 495.107 744.728 501.507 748.946 510.899C750.768 514.955 756.061 518.64 756.061 518.64C756.061 518.64 761.84 513.674 762.056 512.702C762.056 512.702 759.416 508.141 762.056 506.366C765.073 504.338 765.774 511.6 765.774 511.6C765.774 511.6 766.209 504.67 766.197 502.559C766.825 497.77 769.556 502.273 770.284 500.087Z" fill="#3E3D43"/>
<path d="M769.815 582.431C769.815 582.431 769.96 587.453 769.992 588.095C770.025 588.741 769.381 589.182 769.893 590.46C769.974 590.659 771.466 591.703 772.002 591.876C772.581 592.063 776.175 589.602 776.705 589.212C777.234 588.822 776.793 585.691 776.755 584.942C776.744 584.713 776.654 581.031 776.21 580.872C775.765 580.712 769.815 582.431 769.815 582.431Z" fill="#FEC377"/>
<path d="M774.749 532.008C773.711 530.434 769.536 527.825 767.599 534.412C765.662 540.999 769.008 583.955 769.008 583.955C769.008 583.955 774.083 587.232 777.454 582.073C777.454 582.073 775.542 565.965 775.542 556.038C775.542 546.112 776.704 534.974 774.749 532.008Z" fill="#2E2E30"/>
<path d="M767.004 541.95C766.865 548.613 766.622 565.733 767.514 575.773C767.817 575.683 768.112 575.58 768.403 575.473C767.777 566.141 766.906 551.24 767.004 541.95Z" fill="#1D1D1F"/>
<path d="M767.069 539.18V539.179C767.069 539.179 767.069 539.186 767.069 539.194C767.069 539.189 767.069 539.184 767.069 539.18Z" fill="#1D1D1F"/>
<path d="M754.115 524.528C754.009 523.947 754.337 521.827 754.885 521.991C754.885 521.991 755.004 524.612 764.448 523.302L765.441 525.251C765.441 525.251 762.3 527.475 759.285 527.239C757.142 527.072 754.337 525.756 754.115 524.528Z" fill="#CD2A01"/>
</g>
<rect width="505.28" height="505.28" transform="matrix(0.866044 0.499967 -0.866044 0.499967 528.595 604)" fill="#F0F0F0"/>
<rect width="85.7303" height="196.839" transform="matrix(0.866044 0.499967 -0.866044 0.499967 380.622 690)" fill="#C4C4C4"/>
<rect width="282.922" height="196.839" transform="matrix(0.866044 0.499967 -0.866044 0.499967 721.694 715.411)" fill="#C4C4C4"/>
<rect width="174.95" height="100.158" transform="matrix(0.866044 0.499967 -0.866044 0.499967 814.741 769)" fill="#747474"/>
<rect width="350.198" height="42.9409" transform="matrix(0.866044 0.499967 -0.866044 0.499967 579.107 731)" fill="#F0F0F0"/>
<rect width="48.6283" height="116.03" transform="matrix(0.866044 0.499967 -0.866044 0.499967 772.549 744.75)" fill="#F0F0F0"/>
<g clip-path="url(#clip13)" style="animation: change_fill 5s 2s infinite">
<path d="M529.077 569.554L489 589.593V596.88L490.822 597.79V631.492L494.465 633.313L498.108 631.492V601.434L516.325 610.542V618.74L519.969 620.561L523.612 618.74V614.186L554.581 629.67L556.402 628.759V664.282L560.046 666.104L563.689 664.282V625.116L581.906 616.007V651.53L585.549 653.352L589.193 651.53V612.364L594.658 609.631V602.345L529.077 569.554Z" fill="#CBB292"/>
<path d="M554.581 622.383V629.67L489 596.88V589.593L554.581 622.383Z" fill="#CB8252"/>
<path d="M594.658 602.345V609.631L554.581 629.67V622.383L594.658 602.345Z" fill="#805333"/>
<path d="M589.193 612.364V651.53L585.549 653.352V614.186L589.193 612.364Z" fill="#5E5F62"/>
<path d="M585.549 614.186V653.352L581.906 651.53V616.007L585.549 614.186Z" fill="#A5A5A4"/>
<path d="M563.689 625.116V664.282L560.046 666.104V626.937L563.689 625.116Z" fill="#5E5F62"/>
<path d="M560.046 626.937V666.104L556.402 664.282V628.759L560.046 626.937Z" fill="#A5A5A4"/>
<path d="M523.612 614.186V618.74L519.969 620.561V612.364L523.612 614.186Z" fill="#5E5F62"/>
<path d="M519.969 612.364V620.561L516.325 618.74V610.542L519.969 612.364Z" fill="#A5A5A4"/>
<path d="M494.465 599.612V633.313L490.822 631.492V597.79L494.465 599.612Z" fill="#A5A5A4"/>
<path d="M498.108 601.434V631.492L494.465 633.313V599.612L498.108 601.434Z" fill="#5E5F62"/>
</g>
<g clip-path="url(#clip14)" style="animation: change_fill 5s 3s infinite">
<path d="M253.077 868.554L213 888.593V895.88L214.822 896.79V930.492L218.465 932.313L222.108 930.492V900.434L240.325 909.542V917.74L243.969 919.561L247.612 917.74V913.186L278.581 928.67L280.402 927.759V963.282L284.046 965.104L287.689 963.282V924.116L305.906 915.007V950.53L309.549 952.352L313.193 950.53V911.364L318.658 908.631V901.345L253.077 868.554Z" fill="#CBB292"/>
<path d="M278.581 921.383V928.67L213 895.88V888.593L278.581 921.383Z" fill="#CB8252"/>
<path d="M318.658 901.345V908.631L278.581 928.67V921.383L318.658 901.345Z" fill="#805333"/>
<path d="M313.193 911.364V950.53L309.549 952.352V913.186L313.193 911.364Z" fill="#5E5F62"/>
<path d="M309.549 913.186V952.352L305.906 950.53V915.007L309.549 913.186Z" fill="#A5A5A4"/>
<path d="M287.689 924.116V963.282L284.046 965.104V925.937L287.689 924.116Z" fill="#5E5F62"/>
<path d="M284.046 925.937V965.104L280.402 963.282V927.759L284.046 925.937Z" fill="#A5A5A4"/>
<path d="M247.612 913.186V917.74L243.969 919.561V911.364L247.612 913.186Z" fill="#5E5F62"/>
<path d="M243.969 911.364V919.561L240.325 917.74V909.542L243.969 911.364Z" fill="#A5A5A4"/>
<path d="M218.465 898.612V932.313L214.822 930.492V896.79L218.465 898.612Z" fill="#A5A5A4"/>
<path d="M222.108 900.434V930.492L218.465 932.313V898.612L222.108 900.434Z" fill="#5E5F62"/>
</g>
<g clip-path="url(#clip15)" style="animation: change_fill 5s infinite">
<path d="M377.077 940.554L337 960.593V967.88L338.822 968.79V1002.49L342.465 1004.31L346.108 1002.49V972.434L364.325 981.542V989.74L367.969 991.561L371.612 989.74V985.186L402.581 1000.67L404.402 999.759V1035.28L408.046 1037.1L411.689 1035.28V996.116L429.906 987.007V1022.53L433.549 1024.35L437.193 1022.53V983.364L442.658 980.631V973.345L377.077 940.554Z" fill="#CBB292"/>
<path d="M402.581 993.383V1000.67L337 967.88V960.593L402.581 993.383Z" fill="#CB8252"/>
<path d="M442.658 973.345V980.631L402.581 1000.67V993.383L442.658 973.345Z" fill="#805333"/>
<path d="M437.193 983.364V1022.53L433.549 1024.35V985.186L437.193 983.364Z" fill="#5E5F62"/>
<path d="M433.549 985.186V1024.35L429.906 1022.53V987.007L433.549 985.186Z" fill="#A5A5A4"/>
<path d="M411.689 996.116V1035.28L408.046 1037.1V997.937L411.689 996.116Z" fill="#5E5F62"/>
<path d="M408.046 997.937V1037.1L404.402 1035.28V999.759L408.046 997.937Z" fill="#A5A5A4"/>
<path d="M371.612 985.186V989.74L367.969 991.561V983.364L371.612 985.186Z" fill="#5E5F62"/>
<path d="M367.969 983.364V991.561L364.325 989.74V981.542L367.969 983.364Z" fill="#A5A5A4"/>
<path d="M342.465 970.612V1004.31L338.822 1002.49V968.79L342.465 970.612Z" fill="#A5A5A4"/>
<path d="M346.108 972.434V1002.49L342.465 1004.31V970.612L346.108 972.434Z" fill="#5E5F62"/>
</g>
<g clip-path="url(#clip16)" style="animation: change_fill 5s 0s infinite">>
<path d="M504.077 1007.55L464 1027.59V1034.88L465.822 1035.79V1069.49L469.465 1071.31L473.108 1069.49V1039.43L491.325 1048.54V1056.74L494.969 1058.56L498.612 1056.74V1052.19L529.581 1067.67L531.402 1066.76V1102.28L535.046 1104.1L538.689 1102.28V1063.12L556.906 1054.01V1089.53L560.549 1091.35L564.193 1089.53V1050.36L569.658 1047.63V1040.34L504.077 1007.55Z" fill="#CBB292"/>
<path d="M529.581 1060.38V1067.67L464 1034.88V1027.59L529.581 1060.38Z" fill="#CB8252"/>
<path d="M569.658 1040.34V1047.63L529.581 1067.67V1060.38L569.658 1040.34Z" fill="#805333"/>
<path d="M564.193 1050.36V1089.53L560.549 1091.35V1052.19L564.193 1050.36Z" fill="#5E5F62"/>
<path d="M560.549 1052.19V1091.35L556.906 1089.53V1054.01L560.549 1052.19Z" fill="#A5A5A4"/>
<path d="M538.689 1063.12V1102.28L535.046 1104.1V1064.94L538.689 1063.12Z" fill="#5E5F62"/>
<path d="M535.046 1064.94V1104.1L531.402 1102.28V1066.76L535.046 1064.94Z" fill="#A5A5A4"/>
<path d="M498.612 1052.19V1056.74L494.969 1058.56V1050.36L498.612 1052.19Z" fill="#5E5F62"/>
<path d="M494.969 1050.36V1058.56L491.325 1056.74V1048.54L494.969 1050.36Z" fill="#A5A5A4"/>
<path d="M469.465 1037.61V1071.31L465.822 1069.49V1035.79L469.465 1037.61Z" fill="#A5A5A4"/>
<path d="M473.108 1039.43V1069.49L469.465 1071.31V1037.61L473.108 1039.43Z" fill="#5E5F62"/>
</g>
<g clip-path="url(#clip17)" style="animation: change_fill 5s 15s infinite">>
<path d="M131.077 796.554L91 816.593V823.88L92.8218 824.79V858.492L96.4651 860.313L100.108 858.492V828.434L118.325 837.542V845.74L121.969 847.561L125.612 845.74V841.186L156.581 856.67L158.402 855.759V891.282L162.046 893.104L165.689 891.282V852.116L183.906 843.007V878.53L187.549 880.352L191.193 878.53V839.364L196.658 836.631V829.345L131.077 796.554Z" fill="#CBB292"/>
<path d="M156.581 849.383V856.67L91 823.88V816.593L156.581 849.383Z" fill="#CB8252"/>
<path d="M196.658 829.345V836.631L156.581 856.67V849.383L196.658 829.345Z" fill="#805333"/>
<path d="M191.193 839.364V878.53L187.549 880.352V841.186L191.193 839.364Z" fill="#5E5F62"/>
<path d="M187.549 841.186V880.352L183.906 878.53V843.007L187.549 841.186Z" fill="#A5A5A4"/>
<path d="M165.689 852.116V891.282L162.046 893.104V853.937L165.689 852.116Z" fill="#5E5F62"/>
<path d="M162.046 853.937V893.104L158.402 891.282V855.759L162.046 853.937Z" fill="#A5A5A4"/>
<path d="M125.612 841.186V845.74L121.969 847.561V839.364L125.612 841.186Z" fill="#5E5F62"/>
<path d="M121.969 839.364V847.561L118.325 845.74V837.542L121.969 839.364Z" fill="#A5A5A4"/>
<path d="M96.4651 826.612V860.313L92.8218 858.492V824.79L96.4651 826.612Z" fill="#A5A5A4"/>
<path d="M100.108 828.434V858.492L96.4651 860.313V826.612L100.108 828.434Z" fill="#5E5F62"/>
</g>
<g clip-path="url(#clip18)" style="animation: change_fill 5s 2s infinite">>
<path d="M414.581 712.554L454.658 732.593V739.88L452.836 740.79V774.492L449.193 776.313L445.549 774.492V744.434L427.332 753.542V761.74L423.689 763.561L420.046 761.74V757.186L389.077 772.67L387.255 771.759V807.282L383.612 809.104L379.969 807.282V768.116L361.752 759.007V794.53L358.108 796.352L354.465 794.53V755.364L349 752.631V745.345L414.581 712.554Z" fill="#CBB292"/>
<path d="M389.077 765.383V772.67L454.658 739.88V732.593L389.077 765.383Z" fill="#CB8252"/>
<path d="M349 745.345V752.631L389.077 772.67V765.383L349 745.345Z" fill="#805333"/>
<path d="M354.465 755.364V794.53L358.108 796.352V757.186L354.465 755.364Z" fill="#5E5F62"/>
<path d="M358.108 757.186V796.352L361.752 794.53V759.007L358.108 757.186Z" fill="#A5A5A4"/>
<path d="M379.969 768.116V807.282L383.612 809.104V769.937L379.969 768.116Z" fill="#5E5F62"/>
<path d="M383.612 769.937V809.104L387.255 807.282V771.759L383.612 769.937Z" fill="#A5A5A4"/>
<path d="M420.046 757.186V761.74L423.689 763.561V755.364L420.046 757.186Z" fill="#5E5F62"/>
<path d="M423.689 755.364V763.561L427.332 761.74V753.542L423.689 755.364Z" fill="#A5A5A4"/>
<path d="M449.193 742.612V776.313L452.836 774.492V740.79L449.193 742.612Z" fill="#A5A5A4"/>
<path d="M445.549 744.434V774.492L449.193 776.313V742.612L445.549 744.434Z" fill="#5E5F62"/>
</g>
<g clip-path="url(#clip19)" style="animation: change_fill 5s 10s infinite">>
<path d="M610.077 808.554L570 828.593V835.88L571.822 836.79V870.492L575.465 872.313L579.108 870.492V840.434L597.325 849.542V857.74L600.969 859.561L604.612 857.74V853.186L635.581 868.67L637.402 867.759V903.282L641.046 905.104L644.689 903.282V864.116L662.906 855.007V890.53L666.549 892.352L670.193 890.53V851.364L675.658 848.631V841.345L610.077 808.554Z" fill="#CBB292"/>
<path d="M635.581 861.383V868.67L570 835.88V828.593L635.581 861.383Z" fill="#CB8252"/>
<path d="M675.658 841.345V848.631L635.581 868.67V861.383L675.658 841.345Z" fill="#805333"/>
<path d="M670.193 851.364V890.53L666.549 892.352V853.186L670.193 851.364Z" fill="#5E5F62"/>
<path d="M666.549 853.186V892.352L662.906 890.53V855.007L666.549 853.186Z" fill="#A5A5A4"/>
<path d="M644.689 864.116V903.282L641.046 905.104V865.937L644.689 864.116Z" fill="#5E5F62"/>
<path d="M641.046 865.937V905.104L637.402 903.282V867.759L641.046 865.937Z" fill="#A5A5A4"/>
<path d="M604.612 853.186V857.74L600.969 859.561V851.364L604.612 853.186Z" fill="#5E5F62"/>
<path d="M600.969 851.364V859.561L597.325 857.74V849.542L600.969 851.364Z" fill="#A5A5A4"/>
<path d="M575.465 838.612V872.313L571.822 870.492V836.79L575.465 838.612Z" fill="#A5A5A4"/>
<path d="M579.108 840.434V870.492L575.465 872.313V838.612L579.108 840.434Z" fill="#5E5F62"/>
</g>
<g clip-path="url(#clip20)" style="animation: change_fill 5s 0s infinite">>
<path d="M868.077 765.554L828 785.593V792.88L829.822 793.79V827.492L833.465 829.313L837.108 827.492V797.434L855.325 806.542V814.74L858.969 816.561L862.612 814.74V810.186L893.581 825.67L895.402 824.759V860.282L899.046 862.104L902.689 860.282V821.116L920.906 812.007V847.53L924.549 849.352L928.193 847.53V808.364L933.658 805.631V798.345L868.077 765.554Z" fill="#CBB292"/>
<path d="M893.581 818.383V825.67L828 792.88V785.593L893.581 818.383Z" fill="#CB8252"/>
<path d="M933.658 798.345V805.631L893.581 825.67V818.383L933.658 798.345Z" fill="#805333"/>
<path d="M928.193 808.364V847.53L924.549 849.352V810.186L928.193 808.364Z" fill="#5E5F62"/>
<path d="M924.549 810.186V849.352L920.906 847.53V812.007L924.549 810.186Z" fill="#A5A5A4"/>
<path d="M902.689 821.116V860.282L899.046 862.104V822.937L902.689 821.116Z" fill="#5E5F62"/>
<path d="M899.046 822.937V862.104L895.402 860.282V824.759L899.046 822.937Z" fill="#A5A5A4"/>
<path d="M862.612 810.186V814.74L858.969 816.561V808.364L862.612 810.186Z" fill="#5E5F62"/>
<path d="M858.969 808.364V816.561L855.325 814.74V806.542L858.969 808.364Z" fill="#A5A5A4"/>
<path d="M833.465 795.612V829.313L829.822 827.492V793.79L833.465 795.612Z" fill="#A5A5A4"/>
<path d="M837.108 797.434V827.492L833.465 829.313V795.612L837.108 797.434Z" fill="#5E5F62"/>
</g>
<rect width="155.059" height="1156.8" transform="matrix(0.866044 0.499967 -0.866044 0.499967 1531.6 617)" fill="#F0F0F0"/>
<rect width="736.737" height="193.835" transform="matrix(0.866044 0.499967 -0.866044 0.499967 32.7517 897.665)" fill="#F0F0F0"/>
<path d="M536 1344.5L993.5 1080L1440 824V1363H-2.5V1071L30 1052.5L536 1344.5Z" fill="#0F4C81"/>
<defs>
<clipPath id="clip0">
<rect x="1218" y="299" width="105.658" height="105.658" fill="white"/>
</clipPath>
<clipPath id="clip1">
<rect x="1342" y="371" width="105.658" height="105.658" fill="white"/>
</clipPath>
<clipPath id="clip2">
<rect x="1096" y="227" width="105.658" height="105.658" fill="white"/>
</clipPath>
<clipPath id="clip3">
<rect width="105.658" height="105.658" transform="matrix(-1 0 0 1 1459.66 143)" fill="white"/>
</clipPath>
<clipPath id="clip4">
<rect x="996.386" y="286.848" width="105.658" height="105.658" fill="white"/>
</clipPath>
<clipPath id="clip5">
<rect x="1116.19" y="339.677" width="105.658" height="105.658" fill="white"/>
</clipPath>
<clipPath id="clip6">
<rect x="912.426" y="334.017" width="105.658" height="105.658" fill="white"/>
</clipPath>
<clipPath id="clip7">
<rect x="851.107" y="648.16" width="105.658" height="105.658" fill="white"/>
</clipPath>
<clipPath id="clip8">
<rect x="969.029" y="717.969" width="105.658" height="105.658" fill="white"/>
</clipPath>
<clipPath id="clip9">
<rect x="617.151" y="251" width="365.085" height="365.085" fill="white"/>
</clipPath>
<clipPath id="clip10">
<rect x="656.772" y="619.859" width="106.601" height="106.601" fill="white"/>
</clipPath>
<clipPath id="clip11">
<rect x="1142" y="495" width="163" height="163" fill="white"/>
</clipPath>
<clipPath id="clip12">
<rect x="680" y="491" width="161" height="161" fill="white"/>
</clipPath>
<clipPath id="clip13">
<rect x="489" y="565" width="105.658" height="105.658" fill="white"/>
</clipPath>
<clipPath id="clip14">
<rect x="213" y="864" width="105.658" height="105.658" fill="white"/>
</clipPath>
<clipPath id="clip15">
<rect x="337" y="936" width="105.658" height="105.658" fill="white"/>
</clipPath>
<clipPath id="clip16">
<rect x="464" y="1003" width="105.658" height="105.658" fill="white"/>
</clipPath>
<clipPath id="clip17">
<rect x="91" y="792" width="105.658" height="105.658" fill="white"/>
</clipPath>
<clipPath id="clip18">
<rect width="105.658" height="105.658" transform="matrix(-1 0 0 1 454.658 708)" fill="white"/>
</clipPath>
<clipPath id="clip19">
<rect x="570" y="804" width="105.658" height="105.658" fill="white"/>
</clipPath>
<clipPath id="clip20">
<rect x="828" y="761" width="105.658" height="105.658" fill="white"/>
</clipPath>
</defs>
</svg>
