<svg width="38" height="38" viewBox="0 0 38 38" fill="none" xmlns="http://www.w3.org/2000/svg">
<g clip-path="url(#clip0)">
<path d="M37.8821 10.082L34.7155 5.64866C34.5967 5.48229 34.4047 5.38333 34.2 5.38333H4.43333C4.2484 5.38364 4.07275 5.46435 3.95276 5.60506L0.152768 10.0384C0.0541191 10.1528 -0.000307934 10.2988 1.31059e-06 10.45V12.9833C1.31059e-06 13.3331 0.283578 13.6167 0.633334 13.6167H1.26667V31.9833C1.26667 32.3331 1.55024 32.6167 1.9 32.6167H4.43333C4.78309 32.6167 5.06666 32.3331 5.06666 31.9833V13.6167H5.7V27.55C5.7 27.8998 5.98357 28.1833 6.33333 28.1833H8.23333C8.58308 28.1833 8.86666 27.8998 8.86666 27.55V13.6167H29.1333V27.55C29.1333 27.8998 29.4169 28.1833 29.7666 28.1833H31.6666C32.0164 28.1833 32.3 27.8998 32.3 27.55V13.6167H32.9333V31.9833C32.9333 32.3331 33.2169 32.6167 33.5666 32.6167H36.1C36.4497 32.6167 36.7333 32.3331 36.7333 31.9833V13.6167H37.3666C37.7164 13.6167 38 13.3331 38 12.9833V10.45C38 10.318 37.9588 10.1893 37.8821 10.082ZM4.72464 6.65H33.8737L36.1362 9.81666H2.01009L4.72464 6.65ZM3.8 31.35H2.53333V13.6167H3.8V31.35ZM7.59999 26.9167H6.96666V13.6167H7.59999V26.9167ZM31.0333 26.9167H30.4V13.6167H31.0333V26.9167ZM35.4666 31.35H34.2V13.6167H35.4666V31.35ZM1.26667 12.35V11.0833H36.7333V12.35H1.26667Z" fill="black"/>
</g>
<defs>
<clipPath id="clip0">
<rect width="38" height="38" fill="white"/>
</clipPath>
</defs>
</svg>
