<svg width="29" height="29" viewBox="0 0 29 29" fill="none" xmlns="http://www.w3.org/2000/svg">
<path d="M27.3008 16.5532V2.60547C27.3008 2.13619 26.9204 1.75586 26.4512 1.75586H22.1465V0.849609C22.1465 0.380333 21.7662 0 21.2969 0C20.8276 0 20.4473 0.380333 20.4473 0.849609V1.75586H17.0488V0.849609C17.0488 0.380333 16.6685 0 16.1992 0C15.7299 0 15.3496 0.380333 15.3496 0.849609V1.75586H11.9512V0.849609C11.9512 0.380333 11.5708 0 11.1016 0C10.6323 0 10.252 0.380333 10.252 0.849609V1.75586H6.85352V0.849609C6.85352 0.380333 6.47318 0 6.00391 0C5.53463 0 5.1543 0.380333 5.1543 0.849609V1.75586H0.849609C0.380333 1.75586 0 2.13619 0 2.60547V24.752C0 25.2212 0.380333 25.6016 0.849609 25.6016H14.9987C16.3722 27.6493 18.708 29 21.3535 29C25.5697 29 29 25.5697 29 21.3535C29 19.537 28.3628 17.8666 27.3008 16.5532ZM5.1543 3.45508V4.30469C5.1543 4.77396 5.53463 5.1543 6.00391 5.1543C6.47318 5.1543 6.85352 4.77396 6.85352 4.30469V3.45508H10.252V4.30469C10.252 4.77396 10.6323 5.1543 11.1016 5.1543C11.5708 5.1543 11.9512 4.77396 11.9512 4.30469V3.45508H15.3496V4.30469C15.3496 4.77396 15.7299 5.1543 16.1992 5.1543C16.6685 5.1543 17.0488 4.77396 17.0488 4.30469V3.45508H20.4473V4.30469C20.4473 4.77396 20.8276 5.1543 21.2969 5.1543C21.7662 5.1543 22.1465 4.77396 22.1465 4.30469V3.45508H25.6016V6.85352H1.69922V3.45508H5.1543ZM1.69922 23.9023V8.55273H25.6016V14.9987C24.3858 14.1834 22.9242 13.707 21.3535 13.707C18.6688 13.707 16.3032 15.098 14.9385 17.1968C14.8237 17.1389 14.6943 17.1055 14.5566 17.1055H12.8574C12.3881 17.1055 12.0078 17.4858 12.0078 17.9551C12.0078 18.4244 12.3881 18.8047 12.8574 18.8047H14.1444C13.9526 19.3459 13.8199 19.9149 13.7546 20.5039H12.8574C12.3881 20.5039 12.0078 20.8842 12.0078 21.3535C12.0078 21.8228 12.3881 22.2031 12.8574 22.2031H13.7546C13.8199 22.7921 13.9524 23.3612 14.1444 23.9023H1.69922ZM21.3535 27.3008C18.0741 27.3008 15.4062 24.6329 15.4062 21.3535C15.4062 18.0741 18.0741 15.4062 21.3535 15.4062C24.6329 15.4062 27.3008 18.0741 27.3008 21.3535C27.3008 24.6329 24.6329 27.3008 21.3535 27.3008Z" fill="black"/>
<path d="M24.752 20.5039H22.2031V17.9551C22.2031 17.4858 21.8228 17.1055 21.3535 17.1055C20.8842 17.1055 20.5039 17.4858 20.5039 17.9551V21.3535C20.5039 21.8228 20.8842 22.2031 21.3535 22.2031H24.752C25.2212 22.2031 25.6016 21.8228 25.6016 21.3535C25.6016 20.8842 25.2212 20.5039 24.752 20.5039Z" fill="black"/>
<path d="M7.70312 10.3086H6.00391C5.53463 10.3086 5.1543 10.6889 5.1543 11.1582C5.1543 11.6275 5.53463 12.0078 6.00391 12.0078H7.70312C8.1724 12.0078 8.55273 11.6275 8.55273 11.1582C8.55273 10.6889 8.1724 10.3086 7.70312 10.3086Z" fill="black"/>
<path d="M7.70312 13.707H6.00391C5.53463 13.707 5.1543 14.0874 5.1543 14.5566C5.1543 15.0259 5.53463 15.4062 6.00391 15.4062H7.70312C8.1724 15.4062 8.55273 15.0259 8.55273 14.5566C8.55273 14.0874 8.1724 13.707 7.70312 13.707Z" fill="black"/>
<path d="M7.70312 17.1055H6.00391C5.53463 17.1055 5.1543 17.4858 5.1543 17.9551C5.1543 18.4244 5.53463 18.8047 6.00391 18.8047H7.70312C8.1724 18.8047 8.55273 18.4244 8.55273 17.9551C8.55273 17.4858 8.1724 17.1055 7.70312 17.1055Z" fill="black"/>
<path d="M12.8574 12.0078H14.5566C15.0259 12.0078 15.4062 11.6275 15.4062 11.1582C15.4062 10.6889 15.0259 10.3086 14.5566 10.3086H12.8574C12.3881 10.3086 12.0078 10.6889 12.0078 11.1582C12.0078 11.6275 12.3881 12.0078 12.8574 12.0078Z" fill="black"/>
<path d="M12.8574 15.4062H14.5566C15.0259 15.4062 15.4062 15.0259 15.4062 14.5566C15.4062 14.0874 15.0259 13.707 14.5566 13.707H12.8574C12.3881 13.707 12.0078 14.0874 12.0078 14.5566C12.0078 15.0259 12.3881 15.4062 12.8574 15.4062Z" fill="black"/>
<path d="M7.70312 20.5039H6.00391C5.53463 20.5039 5.1543 20.8842 5.1543 21.3535C5.1543 21.8228 5.53463 22.2031 6.00391 22.2031H7.70312C8.1724 22.2031 8.55273 21.8228 8.55273 21.3535C8.55273 20.8842 8.1724 20.5039 7.70312 20.5039Z" fill="black"/>
<path d="M19.6543 12.0078H21.3535C21.8228 12.0078 22.2031 11.6275 22.2031 11.1582C22.2031 10.6889 21.8228 10.3086 21.3535 10.3086H19.6543C19.185 10.3086 18.8047 10.6889 18.8047 11.1582C18.8047 11.6275 19.185 12.0078 19.6543 12.0078Z" fill="black"/>
</svg>
