<svg width="29" height="29" viewBox="0 0 29 29" fill="none" xmlns="http://www.w3.org/2000/svg">
<g clip-path="url(#clip0)">
<path d="M26.6731 19.0352C24.8976 19.0352 23.1542 18.7575 21.5022 18.2115C20.6786 17.9307 19.7408 18.1486 19.2035 18.6962L15.9428 21.1577C12.1612 19.1391 9.83183 16.8105 7.8408 13.0573L10.2299 9.88152C10.8506 9.26165 11.0732 8.35615 10.8065 7.50654C10.2582 5.84584 9.9797 4.10335 9.9797 2.3271C9.97978 1.04392 8.93585 0 7.65275 0H2.32695C1.04392 0 0 1.04392 0 2.32695C0 17.0347 11.9654 29 26.6731 29C27.9562 29 29.0001 27.9561 29.0001 26.673V21.3621C29 20.0791 27.9561 19.0352 26.6731 19.0352ZM27.3889 26.6731C27.3889 27.068 27.068 27.3889 26.6731 27.3889C12.8535 27.3889 1.61116 16.1465 1.61116 2.32702C1.61116 1.93213 1.93213 1.61116 2.32702 1.61116H7.65283C8.04773 1.61116 8.36869 1.93213 8.36869 2.32702C8.36869 4.27561 8.6747 6.18803 9.27335 7.99977C9.35673 8.26727 9.28906 8.54412 9.01847 8.82582L6.24935 12.4932C6.06372 12.7394 6.03457 13.069 6.17383 13.3435C8.43394 17.7859 11.1803 20.5322 15.654 22.8246C15.9262 22.9669 16.2598 22.9371 16.5068 22.7507L20.2585 19.9084C20.448 19.7189 20.7321 19.6512 20.9885 19.7385C22.8128 20.3411 24.7252 20.6463 26.6731 20.6463C27.068 20.6463 27.3889 20.9673 27.3889 21.3622V26.6731Z" fill="black"/>
</g>
<defs>
<clipPath id="clip0">
<rect width="29" height="29" fill="white"/>
</clipPath>
</defs>
</svg>
