<svg width="29" height="29" viewBox="0 0 29 29" fill="none" xmlns="http://www.w3.org/2000/svg">
<path d="M4.24691 18.7469C5.82623 17.1677 7.70601 15.9985 9.75697 15.2908C7.56033 13.7779 6.11719 11.2459 6.11719 8.38281C6.11719 3.76054 9.87773 0 14.5 0C19.1223 0 22.8828 3.76054 22.8828 8.38281C22.8828 11.2459 21.4397 13.7779 19.243 15.2908C21.2939 15.9985 23.1737 17.1677 24.753 18.7469C27.4917 21.4857 29 25.1269 29 29H26.7344C26.7344 22.2539 21.2461 16.7656 14.5 16.7656C7.75393 16.7656 2.26562 22.2539 2.26562 29H0C0 25.1269 1.50828 21.4857 4.24691 18.7469ZM14.5 14.5C17.873 14.5 20.6172 11.7559 20.6172 8.38281C20.6172 5.00975 17.873 2.26562 14.5 2.26562C11.127 2.26562 8.38281 5.00975 8.38281 8.38281C8.38281 11.7559 11.127 14.5 14.5 14.5Z" fill="#292929"/>
</svg>
