<svg width="38" height="38" viewBox="0 0 38 38" fill="none" xmlns="http://www.w3.org/2000/svg">
<path d="M33.5261 17.6092C32.2331 16.9627 29.8087 16.9552 29.7062 16.9552C29.3988 16.9552 29.1495 17.2044 29.1495 17.5119C29.1495 17.8193 29.3988 18.0685 29.7062 18.0685C30.3318 18.0686 32.1481 18.1649 33.0283 18.6049C33.1082 18.645 33.1931 18.6638 33.2768 18.6638C33.4809 18.6638 33.6775 18.551 33.7751 18.356C33.9126 18.081 33.8011 17.7467 33.5261 17.6092Z" fill="black"/>
<path d="M36.3013 25.5343L34.0024 24.8775C33.9031 24.8491 33.8338 24.7572 33.8338 24.654V23.8866C34.0208 23.7571 34.1993 23.612 34.366 23.4502C35.1743 22.6658 35.6194 21.6138 35.6194 20.4877V19.4288L35.8416 18.9844C36.0856 18.4964 36.2145 17.95 36.2145 17.4045V14.536C36.2145 14.2286 35.9653 13.9793 35.6579 13.9793H30.3013C28.3535 13.9793 26.7688 15.5641 26.7688 17.5119V17.545C26.7688 17.9987 26.876 18.4529 27.0789 18.8586L27.3639 19.4288V20.338C27.3639 21.7788 28.074 23.0717 29.1495 23.8496L29.1496 24.6538C29.1496 24.7779 29.1496 24.8292 28.69 24.9606L27.5683 25.2811L24.3233 24.1011C24.335 23.948 24.2833 23.7923 24.1716 23.675L23.1347 22.5856V20.7568C23.2443 20.6665 23.3524 20.5737 23.4571 20.4756C24.7652 19.2495 25.5154 17.5185 25.5154 15.7263V14.2658C25.9104 13.4063 26.1106 12.4967 26.1106 11.56V5.60843C26.1106 5.30101 25.8614 5.05179 25.554 5.05179H17.2215C14.2891 5.05179 11.9035 7.43747 11.9035 10.3698V11.5602C11.9035 12.4969 12.1037 13.4064 12.4987 14.266V15.5226C12.4987 17.6034 13.4239 19.478 14.8794 20.7139V22.5857L13.8425 23.675C13.7308 23.7924 13.6791 23.9481 13.6908 24.1012L10.2659 25.3465C10.0178 25.4368 9.78715 25.559 9.57778 25.7071L9.03999 25.4382C10.6409 24.7414 11.148 23.7613 11.1724 23.7126C11.2507 23.5559 11.2507 23.3714 11.1724 23.2147C10.7711 22.4121 10.7225 20.9411 10.6834 19.759C10.6704 19.3655 10.6581 18.9938 10.6346 18.6628C10.4448 15.9928 8.41507 13.9793 5.91316 13.9793C3.41124 13.9793 1.38143 15.9927 1.19173 18.6628C1.1682 18.9939 1.15588 19.3656 1.14289 19.7592C1.10386 20.9411 1.05517 22.4121 0.653941 23.2147C0.575566 23.3713 0.575566 23.5559 0.653941 23.7125C0.678285 23.7612 1.18438 24.7393 2.78847 25.4369L1.29467 26.1838C0.496078 26.5834 0 27.3861 0 28.2788V32.3912C0 32.6986 0.249227 32.9479 0.556641 32.9479C0.864055 32.9479 1.11328 32.6986 1.11328 32.3912V28.2788C1.11328 27.8104 1.37357 27.3892 1.79253 27.1797L3.65268 26.2496L4.29971 26.8645C4.75215 27.2945 5.33254 27.5093 5.91316 27.5093C6.49362 27.5093 7.07431 27.2943 7.5266 26.8645L8.17356 26.2497L8.78008 26.553C8.49448 27.0099 8.33239 27.5458 8.33239 28.1071V32.3914C8.33239 32.6988 8.58162 32.948 8.88903 32.948C9.19645 32.948 9.44567 32.6988 9.44567 32.3914V28.1071C9.44567 27.3429 9.92817 26.654 10.6464 26.3929L14.2573 25.0799L15.7604 27.3347C15.9526 27.623 16.2605 27.8078 16.6053 27.842C16.6437 27.8458 16.6819 27.8476 16.7201 27.8476C17.0242 27.8476 17.3155 27.7279 17.5333 27.5102L18.4503 26.5932V32.3914C18.4503 32.6989 18.6996 32.9481 19.007 32.9481C19.3144 32.9481 19.5636 32.6989 19.5636 32.3914V26.5932L20.4807 27.5102C20.6983 27.728 20.9897 27.8477 21.2939 27.8477C21.332 27.8477 21.3703 27.8458 21.4086 27.8421C21.7534 27.8079 22.0614 27.623 22.2535 27.3348L23.7568 25.08L27.3676 26.393C28.0857 26.6542 28.5683 27.3431 28.5683 28.1072V32.3915C28.5683 32.6989 28.8175 32.9482 29.1249 32.9482C29.4323 32.9482 29.6816 32.6989 29.6816 32.3915V28.1072C29.6816 27.3333 29.3741 26.6074 28.8583 26.0706L28.9958 26.0313C29.1345 25.9917 29.3238 25.9375 29.5138 25.8443L30.935 27.2655V32.3915C30.935 32.6989 31.1842 32.9482 31.4916 32.9482C31.799 32.9482 32.0483 32.6989 32.0483 32.3915V27.2655L33.4596 25.8542C33.5346 25.8923 33.6134 25.9245 33.6964 25.9482L35.9954 26.6051C36.5202 26.755 36.8867 27.2409 36.8867 27.7867V32.3915C36.8867 32.6989 37.1359 32.9482 37.4434 32.9482C37.7508 32.9482 38 32.6989 38 32.3915V27.7867C38 26.7463 37.3015 25.8201 36.3013 25.5343ZM3.57104 24.5511C2.52982 24.1765 2.00754 23.677 1.78459 23.4042C1.93659 23.0069 2.03515 22.5517 2.10188 22.0713C2.40884 22.8074 2.92296 23.4357 3.57104 23.884V24.5511ZM6.75984 26.0576C6.28507 26.5087 5.54132 26.5086 5.06669 26.0575L4.54902 25.5656C4.63637 25.402 4.68439 25.2164 4.68439 25.022V24.4287C5.0727 24.5501 5.48551 24.6155 5.9133 24.6155C6.34058 24.6155 6.75316 24.5498 7.14214 24.4291L7.14207 25.022C7.14207 25.2164 7.19002 25.402 7.27745 25.5658L6.75984 26.0576ZM5.91345 23.5023C4.25125 23.5023 2.89906 22.15 2.89906 20.4879C2.89906 20.1805 2.64983 19.9312 2.34242 19.9312C2.31125 19.9312 2.28082 19.9344 2.25105 19.9394C2.25269 19.8915 2.25425 19.8436 2.25588 19.7962C2.26827 19.4134 2.28022 19.0519 2.30227 18.7418C2.37337 17.7416 2.77304 16.82 3.42764 16.1465C4.08812 15.467 4.97088 15.0928 5.9133 15.0928C6.85573 15.0928 7.73842 15.467 8.39896 16.1465C9.05357 16.82 9.45324 17.7416 9.52434 18.7418C9.54631 19.0518 9.55834 19.4133 9.57095 19.7959C9.57207 19.8288 9.57318 19.8621 9.57429 19.8952C8.96867 18.9622 8.03336 18.2745 6.82486 17.8862C5.70839 17.5275 4.74814 17.5497 4.70762 17.5507C4.56186 17.5548 4.42351 17.6158 4.32235 17.7208L3.31802 18.7624C3.10464 18.9837 3.11103 19.3361 3.33235 19.5495C3.55367 19.7628 3.90606 19.7564 4.11944 19.5351L4.95514 18.6685C5.67484 18.7037 7.99024 18.9729 8.89074 20.9558C8.66415 22.417 7.40822 23.5023 5.91345 23.5023ZM8.25528 24.553L8.25535 23.8891C8.90291 23.4433 9.41777 22.8161 9.72496 22.0745C9.79168 22.5538 9.89017 23.0079 10.0419 23.4044C9.82018 23.6745 9.29545 24.1785 8.25528 24.553ZM13.6119 15.5225V14.1414C13.6119 14.0576 13.593 13.9749 13.5566 13.8994C13.1984 13.1577 13.0168 12.3706 13.0168 11.5602V10.3699C13.0168 8.05134 14.9031 6.16514 17.2215 6.16514H24.9973V11.5603C24.9973 12.3707 24.8157 13.1577 24.4575 13.8995C24.4211 13.975 24.4022 14.0577 24.4022 14.1415V15.7264C24.4022 17.2339 23.7962 18.6321 22.6958 19.6635C22.5584 19.7922 22.4158 19.9129 22.2684 20.0253C22.2652 20.0276 22.2621 20.03 22.2589 20.0323C21.228 20.815 19.9654 21.1953 18.6469 21.1099C15.8235 20.9271 13.6119 18.4728 13.6119 15.5225ZM16.7461 26.7229C16.7423 26.7268 16.7333 26.7359 16.7151 26.734C16.697 26.7322 16.6899 26.7216 16.6868 26.717L14.9557 24.1202L15.5128 23.5349L18.139 25.33L16.7461 26.7229ZM19.0071 24.5748L15.9927 22.5143V21.4753C16.7726 21.8969 17.646 22.1606 18.5748 22.2207C18.7215 22.2302 18.8674 22.2349 19.0128 22.2349C20.0771 22.2349 21.1015 21.9805 22.0214 21.4975V22.5143L19.0071 24.5748ZM21.3273 26.7171C21.3242 26.7217 21.3171 26.7323 21.299 26.7341C21.2808 26.7364 21.2719 26.7269 21.268 26.7231L19.8751 25.3302L22.5013 23.535L23.0585 24.1204L21.3273 26.7171ZM31.4916 26.2475L30.2284 24.9843C30.2504 24.8842 30.2629 24.7746 30.2628 24.6537L30.2628 24.4188C30.6133 24.5338 30.9828 24.6021 31.3651 24.6135C31.408 24.6149 31.4505 24.6155 31.4932 24.6155C31.9157 24.6155 32.3281 24.5516 32.7205 24.4299V24.654C32.7205 24.765 32.7345 24.8738 32.7607 24.9784L31.4916 26.2475ZM33.5907 22.6513C33.0008 23.2238 32.2214 23.5262 31.3985 23.5008C29.7877 23.4525 28.4772 22.0336 28.4772 20.3381V19.2975C28.4772 19.211 28.4571 19.1258 28.4184 19.0485L28.0746 18.3608C27.9486 18.1089 27.8821 17.8268 27.8821 17.5451V17.5119C27.8821 16.1779 28.9674 15.0927 30.3013 15.0927H35.1012V17.4046C35.1012 17.7782 35.0129 18.1524 34.8459 18.4866L34.5649 19.0485C34.5262 19.1259 34.5061 19.211 34.5061 19.2975V20.4878C34.5061 21.3101 34.181 22.0785 33.5907 22.6513Z" fill="black"/>
<path d="M35.0626 28.2635C34.7552 28.2635 34.506 28.5128 34.506 28.8202V32.3912C34.506 32.6986 34.7552 32.9479 35.0626 32.9479C35.37 32.9479 35.6193 32.6986 35.6193 32.3912V28.8202C35.6193 28.5129 35.37 28.2635 35.0626 28.2635Z" fill="black"/>
<path d="M2.93738 28.9993C2.62996 28.9993 2.38074 29.2486 2.38074 29.556V32.3912C2.38074 32.6986 2.62996 32.9478 2.93738 32.9478C3.24479 32.9478 3.49402 32.6986 3.49402 32.3912V29.556C3.49402 29.2486 3.24479 28.9993 2.93738 28.9993Z" fill="black"/>
<path d="M23.5669 11.7618C21.4616 9.65654 17.0568 10.059 15.2605 10.3298C14.6948 10.4151 14.2842 10.8938 14.2842 11.4682V12.7506C14.2842 13.058 14.5334 13.3072 14.8408 13.3072C15.1482 13.3072 15.3975 13.058 15.3975 12.7506V11.4681C15.3975 11.4492 15.4099 11.433 15.4266 11.4305C16.144 11.3224 17.5678 11.1555 19.0429 11.2539C20.7787 11.3694 22.036 11.8052 22.7797 12.549C22.9971 12.7664 23.3496 12.7664 23.5669 12.549C23.7843 12.3316 23.7843 11.9791 23.5669 11.7618Z" fill="black"/>
<path d="M12.4601 29.4539C12.1527 29.4539 11.9034 29.7031 11.9034 30.0106V32.3913C11.9034 32.6987 12.1527 32.9479 12.4601 32.9479C12.7675 32.9479 13.0167 32.6987 13.0167 32.3913V30.0106C13.0167 29.7032 12.7675 29.4539 12.4601 29.4539Z" fill="black"/>
<path d="M25.554 29.4539C25.2465 29.4539 24.9973 29.7031 24.9973 30.0106V32.3913C24.9973 32.6987 25.2465 32.9479 25.554 32.9479C25.8614 32.9479 26.1106 32.6987 26.1106 32.3913V30.0106C26.1106 29.7032 25.8614 29.4539 25.554 29.4539Z" fill="black"/>
</svg>
