<svg width="64" height="63" viewBox="0 0 64 63" fill="none" xmlns="http://www.w3.org/2000/svg">
<path d="M48.1862 8.00634C43.3875 5.487 37.9889 4.25732 31.9905 4.25732C25.9621 4.25732 20.5635 5.51699 15.7948 8.00634C10.996 10.5257 7.24703 14.0048 4.54774 18.5036C1.84845 22.9424 0.468811 27.9511 0.468811 33.5596C0.468811 39.1681 1.81846 44.2068 4.54774 48.6756C7.27702 53.1145 11.026 56.5636 15.7948 59.0829C20.5935 61.6022 25.9921 62.8319 31.9905 62.8319C38.0189 62.8319 43.4175 61.5722 48.1862 59.0829C52.955 56.5936 56.734 53.1145 59.4333 48.6756C62.1626 44.2068 63.5122 39.1381 63.5122 33.5596C63.5122 27.9511 62.1626 22.9424 59.4333 18.5036C56.734 14.0048 52.985 10.4957 48.1862 8.00634ZM42.8477 40.9677C41.7379 43.0371 40.2083 44.6867 38.2888 45.8564C36.4293 46.9661 34.3299 47.5359 31.9905 47.5359C29.6511 47.5359 27.5217 46.9661 25.6022 45.8564C23.7427 44.6867 22.2431 43.0671 21.1334 40.9677C20.0237 38.8382 19.4538 36.3489 19.4538 33.5296C19.4538 30.7104 20.0237 28.251 21.1334 26.1516C22.2431 24.0221 23.7427 22.4025 25.6022 21.2628C27.5217 20.0932 29.6511 19.4933 31.9905 19.4933C34.3299 19.4933 36.4293 20.0932 38.2888 21.2628C40.2083 22.3726 41.708 24.0221 42.8477 26.1516C43.9574 28.221 44.5272 30.6804 44.5272 33.5296C44.5272 36.3489 43.9574 38.8382 42.8477 40.9677Z" fill="#51F2B7"/>
<path d="M31.9605 19.5533C34.2999 19.5533 36.3994 20.1531 38.2589 21.3228C40.1784 22.4325 41.678 24.0821 42.8177 26.2115C43.9274 28.281 44.4972 30.7403 44.4972 33.5896C44.4972 34.7893 44.3773 35.899 44.1673 36.9787L63.8122 0.0584106L39.2486 4.88714L31.8406 19.5833C31.9006 19.5533 31.9306 19.5533 31.9605 19.5533Z" fill="#51F2B7"/>
</svg>
