<svg width="742" height="196" viewBox="0 0 742 196" fill="none" xmlns="http://www.w3.org/2000/svg">
<g clip-path="url(#clip0)">
<path d="M117.65 75.8201C108.69 68.5534 95.77 64.9167 78.89 64.9101H45.89V48.8501H120.05V13.5601H0.0499878V152.35H73.05C91.3767 152.35 105.68 148.32 115.96 140.26C126.24 132.2 131.383 121.097 131.39 106.95C131.337 93.3301 126.757 82.9534 117.65 75.8201ZM80.47 116.66C77.97 118.66 74.4133 119.66 69.8 119.66H45.88V97.4301H69.81C79.5633 97.4301 84.44 101 84.44 108.14C84.5283 109.776 84.2134 111.408 83.5229 112.894C82.8324 114.38 81.7874 115.673 80.48 116.66H80.47Z" fill="#3C3C3B"/>
<path d="M676.1 13.5601C663.047 13.5601 651.713 15.7401 642.1 20.1001C633.001 24.0247 625.234 30.5028 619.74 38.7501C614.6 46.8101 612.03 56.3267 612.03 67.3C612.03 77.8801 614.403 87.0667 619.15 94.86C624.202 102.699 631.411 108.912 639.91 112.75L612.65 152.35H661.5L682.65 119.44H695.11V152.35H740.99V13.5601H676.1ZM695.1 84.1501H676.9C665.04 84.1501 659.11 78.2667 659.11 66.5001C659.11 55.2601 665.04 49.6434 676.9 49.6501H695.1V84.1501Z" fill="#3C3C3B"/>
<path d="M403.71 19.7499C391.843 13.5299 378.46 10.4233 363.56 10.4299C348.66 10.4366 335.28 13.5433 323.42 19.7499C311.887 25.655 302.228 34.6588 295.53 45.75C288.81 56.7166 285.45 69.1433 285.45 83.0299C285.261 96.2141 288.752 109.19 295.53 120.5C302.282 131.492 311.931 140.412 323.42 146.28C335.28 152.487 348.66 155.59 363.56 155.59C378.46 155.59 391.843 152.487 403.71 146.28C415.36 140.389 425.108 131.325 431.831 120.135C438.554 108.944 441.979 96.082 441.71 83.0299C441.71 69.1499 438.347 56.7233 431.62 45.75C424.917 34.6553 415.251 25.6511 403.71 19.7499ZM390.46 101.44C387.857 106.409 383.964 110.585 379.19 113.53C374.465 116.336 369.055 117.776 363.56 117.69C358.008 117.758 352.541 116.32 347.74 113.53C343.042 110.53 339.218 106.347 336.65 101.4C333.783 95.6838 332.359 89.3531 332.5 82.9599C332.347 76.6392 333.773 70.3802 336.65 64.75C339.129 59.7537 342.967 55.5584 347.724 52.6466C352.481 49.7347 357.963 48.2247 363.54 48.29C369.061 48.2084 374.488 49.7223 379.17 52.6499C384.011 55.523 387.929 59.7217 390.46 64.75C393.351 70.3766 394.791 76.6358 394.65 82.9599C394.779 89.3564 393.341 95.6873 390.46 101.4V101.44Z" fill="#51F2B7"/>
<path d="M247.42 19.9101C237.927 15.6767 226.787 13.5601 214 13.5601H147.35V152.35H194.02V118.25H214.02C226.807 118.25 237.947 116.133 247.44 111.9C256.933 107.667 264.267 101.587 269.44 93.6601C274.58 85.7267 277.15 76.4734 277.15 65.9001C277.15 55.3267 274.58 46.0767 269.44 38.1501C264.247 30.2234 256.907 24.1434 247.42 19.9101ZM225.27 78.0001C222.11 80.7801 217.363 82.1667 211.03 82.1601H194.03V49.6501H211.03C217.363 49.6501 222.11 51.1034 225.27 54.0101C228.43 56.7767 230.013 60.7401 230.02 65.9001C230.027 71.0601 228.443 75.0934 225.27 78.0001Z" fill="#3C3C3B"/>
<path d="M548.26 62.7301H505.15V13.5601H458.48V152.35H505.15V101.2H548.26V152.35H594.93V13.5601H548.26V62.7301Z" fill="#3C3C3B"/>
<path d="M363.55 48.35C369.072 48.2806 374.496 49.8086 379.17 52.75C384.008 55.6188 387.923 59.8145 390.45 64.84C393.337 70.4646 394.781 76.719 394.65 83.04C394.646 85.8622 394.379 88.6778 393.85 91.45L442.54 0L381.68 12L363.32 48.39L363.55 48.35Z" fill="#51F2B7"/>
<path d="M4.39003 190.28C3.43341 189.781 2.63383 189.026 2.08002 188.1C1.54237 187.133 1.26019 186.046 1.26019 184.94C1.26019 183.834 1.54237 182.746 2.08002 181.78C2.63398 180.863 3.42969 180.115 4.38002 179.62C5.40858 179.078 6.55779 178.806 7.72003 178.83C8.79742 178.806 9.8635 179.054 10.82 179.55C11.6881 180.007 12.3885 180.729 12.82 181.61L10.65 182.86C10.3424 182.339 9.90023 181.911 9.37003 181.62C8.68261 181.263 7.90122 181.129 7.13428 181.237C6.36733 181.344 5.65287 181.688 5.09003 182.22C4.4318 182.971 4.06892 183.936 4.06892 184.935C4.06892 185.934 4.4318 186.899 5.09003 187.65C5.43408 187.986 5.84304 188.247 6.29184 188.419C6.74064 188.591 7.21982 188.67 7.70003 188.65C8.28893 188.658 8.87032 188.517 9.39003 188.24C9.91793 187.946 10.3593 187.518 10.67 187L12.82 188.25C12.3777 189.126 11.6804 189.848 10.82 190.32C9.87067 190.817 8.81162 191.068 7.74002 191.05C6.57671 191.076 5.42534 190.811 4.39003 190.28Z" fill="#3C3C3B"/>
<path d="M26.24 185.83H16.87C17.0045 186.668 17.4645 187.419 18.15 187.92C18.9043 188.457 19.8144 188.731 20.74 188.7C21.3404 188.718 21.938 188.611 22.4954 188.388C23.0529 188.164 23.5583 187.828 23.98 187.4L25.48 189.12C24.9451 189.763 24.2574 190.262 23.48 190.57C22.4736 190.943 21.4025 191.109 20.3305 191.059C19.2585 191.009 18.2075 190.744 17.24 190.28C16.2727 189.792 15.467 189.035 14.92 188.1C14.3637 187.141 14.0801 186.048 14.1 184.94C14.0856 183.838 14.3615 182.752 14.9 181.79C15.4153 180.875 16.1776 180.123 17.1 179.62C18.0709 179.108 19.1522 178.84 20.25 178.84C21.3478 178.84 22.429 179.108 23.4 179.62C24.3052 180.125 25.0475 180.878 25.54 181.79C26.0715 182.782 26.3368 183.895 26.31 185.02C26.28 185.2 26.27 185.48 26.24 185.83ZM17.98 181.83C17.3527 182.371 16.9497 183.127 16.85 183.95H23.65C23.5602 183.136 23.1718 182.384 22.56 181.84C21.9136 181.325 21.1115 181.044 20.285 181.044C19.4584 181.044 18.6563 181.325 18.01 181.84L17.98 181.83Z" fill="#3C3C3B"/>
<path d="M39.09 179.59C39.9992 180.092 40.7479 180.841 41.25 181.75C41.7847 182.73 42.0536 183.833 42.03 184.95C42.0521 186.069 41.7834 187.175 41.25 188.16C40.7497 189.07 40.0005 189.82 39.09 190.32C38.131 190.833 37.0575 191.095 35.97 191.08C35.2535 191.113 34.5386 190.986 33.8776 190.708C33.2167 190.429 32.6264 190.006 32.15 189.47V195.26H29.35V178.97H32.01V180.53C32.462 179.967 33.0508 179.53 33.72 179.26C34.433 178.965 35.1986 178.819 35.97 178.83C37.0575 178.815 38.131 179.077 39.09 179.59ZM38.2 187.59C38.5382 187.229 38.8009 186.805 38.9726 186.341C39.1443 185.877 39.2216 185.384 39.2 184.89C39.2207 184.395 39.143 183.9 38.9714 183.435C38.7997 182.97 38.5375 182.543 38.2 182.18C37.8683 181.847 37.4715 181.587 37.0344 181.415C36.5973 181.243 36.1294 181.163 35.66 181.18C35.0237 181.173 34.3965 181.331 33.84 181.64C33.3033 181.95 32.8635 182.404 32.57 182.95C32.2607 183.561 32.0995 184.235 32.0995 184.92C32.0995 185.604 32.2607 186.279 32.57 186.89C32.8637 187.433 33.3036 187.884 33.84 188.19C34.3947 188.503 35.0231 188.662 35.66 188.65C36.1304 188.668 36.5992 188.587 37.0366 188.413C37.474 188.239 37.8703 187.976 38.2 187.64V187.59Z" fill="#3C3C3B"/>
<path d="M55.65 187.56C55.673 188.042 55.5741 188.522 55.3626 188.955C55.1512 189.388 54.8339 189.762 54.44 190.04C53.3688 190.692 52.1214 190.996 50.87 190.91H44.78V178.97H50.65C51.8434 178.9 53.0314 179.178 54.07 179.77C54.4579 180.008 54.7759 180.344 54.9919 180.744C55.208 181.145 55.3142 181.595 55.3 182.05C55.3131 182.618 55.145 183.175 54.82 183.64C54.4762 184.109 54.0088 184.472 53.47 184.69C54.116 184.83 54.6908 185.196 55.0906 185.722C55.4904 186.248 55.6888 186.9 55.65 187.56ZM47.45 183.95H50.37C51.82 183.95 52.54 183.45 52.54 182.45C52.54 181.45 51.82 181 50.37 181H47.45V183.95ZM52.95 187.38C52.9654 187.154 52.9241 186.928 52.8298 186.721C52.7355 186.515 52.5912 186.336 52.41 186.2C51.9028 185.902 51.3167 185.766 50.73 185.81H47.45V188.87H50.65C52.2 188.87 52.97 188.38 52.97 187.38H52.95Z" fill="#3C3C3B"/>
<path d="M58.65 178.97H61.44V186.84L68.04 178.97H70.59V190.91H67.79V183.04L61.22 190.91H58.65V178.97Z" fill="#3C3C3B"/>
<path d="M76.45 190.28C75.4943 189.783 74.6973 189.028 74.15 188.1C73.6058 187.136 73.3199 186.047 73.3199 184.94C73.3199 183.833 73.6058 182.744 74.15 181.78C74.6975 180.861 75.4906 180.113 76.44 179.62C77.4686 179.078 78.6178 178.806 79.78 178.83C80.8574 178.806 81.9235 179.054 82.88 179.55C83.7481 180.007 84.4485 180.729 84.88 181.61L82.73 182.86C82.4223 182.339 81.9802 181.911 81.45 181.62C80.931 181.34 80.3497 181.195 79.76 181.2C79.2816 181.183 78.8049 181.263 78.3581 181.435C77.9114 181.607 77.5039 181.867 77.16 182.2C76.5057 182.953 76.1454 183.917 76.1454 184.915C76.1454 185.913 76.5057 186.877 77.16 187.63C77.5041 187.966 77.913 188.227 78.3618 188.399C78.8106 188.571 79.2898 188.65 79.77 188.63C80.3589 188.638 80.9403 188.497 81.46 188.22C81.9879 187.926 82.4293 187.498 82.74 186.98L84.89 188.23C84.4446 189.104 83.7481 189.825 82.89 190.3C81.9411 190.799 80.8817 191.05 79.81 191.03C78.645 191.064 77.4901 190.806 76.45 190.28Z" fill="#3C3C3B"/>
<path d="M102 180.1C102.493 180.597 102.873 181.195 103.115 181.853C103.357 182.51 103.454 183.212 103.4 183.91V190.91H100.76V189.46C100.402 189.997 99.8894 190.412 99.29 190.65C98.5645 190.949 97.7843 191.092 97 191.07C96.193 191.084 95.3922 190.927 94.65 190.61C94.0237 190.337 93.4867 189.893 93.1 189.33C92.732 188.788 92.54 188.145 92.55 187.49C92.5319 186.996 92.6313 186.504 92.8399 186.056C93.0485 185.607 93.3604 185.215 93.75 184.91C94.858 184.161 96.1865 183.809 97.52 183.91H100.65V183.75C100.672 183.395 100.616 183.039 100.487 182.707C100.357 182.376 100.157 182.076 99.9 181.83C99.2689 181.339 98.4775 181.1 97.68 181.16C97.0011 181.157 96.326 181.261 95.68 181.47C95.0822 181.651 94.5253 181.947 94.04 182.34L92.94 180.34C93.6196 179.838 94.3857 179.465 95.2 179.24C96.1078 178.985 97.0469 178.857 97.99 178.86C99.4347 178.757 100.865 179.2 102 180.1ZM99.45 188.55C99.9868 188.243 100.395 187.753 100.6 187.17V185.75H97.72C96.11 185.75 95.3 186.28 95.3 187.34C95.2926 187.575 95.3447 187.808 95.4513 188.018C95.5579 188.228 95.7157 188.407 95.91 188.54C96.4035 188.866 96.9893 189.024 97.58 188.99C98.2316 189.014 98.8777 188.862 99.45 188.55Z" fill="#3C3C3B"/>
<path d="M117.74 187.56C117.761 188.042 117.661 188.521 117.45 188.954C117.239 189.387 116.922 189.76 116.53 190.04C115.454 190.691 114.204 190.995 112.95 190.91H106.87V178.97H112.7C113.893 178.9 115.081 179.178 116.12 179.77C116.508 180.008 116.826 180.344 117.042 180.744C117.258 181.145 117.364 181.595 117.35 182.05C117.363 182.618 117.195 183.175 116.87 183.64C116.526 184.109 116.059 184.472 115.52 184.69C116.172 184.823 116.755 185.186 117.163 185.713C117.57 186.24 117.775 186.895 117.74 187.56ZM109.53 183.95H112.46C113.9 183.95 114.63 183.45 114.63 182.45C114.63 181.45 113.9 181 112.46 181H109.53V183.95ZM115.03 187.38C115.045 187.154 115.004 186.928 114.91 186.721C114.816 186.515 114.671 186.336 114.49 186.2C113.983 185.901 113.397 185.765 112.81 185.81H109.53V188.87H112.72C114.26 188.87 115.03 188.38 115.03 187.38Z" fill="#3C3C3B"/>
<path d="M130.17 181.34H125.99V190.91H123.19V181.34H118.99V178.97H130.17V181.34Z" fill="#3C3C3B"/>
<path d="M133.75 190.28C132.803 189.782 132.016 189.026 131.48 188.1C130.942 187.134 130.66 186.046 130.66 184.94C130.66 183.834 130.942 182.746 131.48 181.78C132.02 180.862 132.806 180.113 133.75 179.62C134.764 179.101 135.886 178.83 137.025 178.83C138.164 178.83 139.286 179.101 140.3 179.62C141.244 180.113 142.03 180.862 142.57 181.78C143.108 182.746 143.39 183.834 143.39 184.94C143.39 186.046 143.108 187.134 142.57 188.1C142.034 189.026 141.247 189.782 140.3 190.28C139.286 190.8 138.164 191.07 137.025 191.07C135.886 191.07 134.764 190.8 133.75 190.28ZM139.56 187.64C139.9 187.28 140.163 186.856 140.335 186.392C140.507 185.928 140.583 185.434 140.56 184.94C140.582 184.444 140.506 183.949 140.334 183.484C140.162 183.019 139.899 182.592 139.56 182.23C139.226 181.898 138.827 181.637 138.389 181.465C137.95 181.293 137.481 181.213 137.01 181.23C136.542 181.212 136.075 181.292 135.64 181.464C135.204 181.636 134.809 181.897 134.48 182.23C134.141 182.592 133.878 183.019 133.706 183.484C133.534 183.949 133.458 184.444 133.48 184.94C133.457 185.434 133.533 185.928 133.705 186.392C133.877 186.856 134.14 187.28 134.48 187.64C134.808 187.975 135.203 188.237 135.639 188.409C136.074 188.582 136.542 188.66 137.01 188.64C137.481 188.659 137.951 188.58 138.39 188.408C138.829 188.236 139.228 187.974 139.56 187.64Z" fill="#3C3C3B"/>
<path d="M157.88 190.91V182.99L153.88 189.66H152.65L148.65 182.97V190.91H146.1V178.97H149.03L153.28 186.44L157.73 178.97H160.34V190.91H157.88Z" fill="#3C3C3B"/>
<path d="M172.65 180.1C173.143 180.597 173.523 181.195 173.765 181.853C174.006 182.51 174.104 183.212 174.05 183.91V190.91H171.41V189.46C171.053 189.994 170.545 190.408 169.95 190.65C168.459 191.236 166.801 191.236 165.31 190.65C164.679 190.38 164.138 189.936 163.75 189.37C163.386 188.826 163.194 188.185 163.2 187.53C163.182 187.036 163.281 186.544 163.49 186.096C163.698 185.647 164.01 185.255 164.4 184.95C165.508 184.201 166.836 183.849 168.17 183.95H171.25V183.75C171.271 183.396 171.216 183.041 171.089 182.71C170.961 182.378 170.764 182.078 170.51 181.83C169.875 181.339 169.081 181.1 168.28 181.16C167.601 181.157 166.926 181.261 166.28 181.47C165.682 181.651 165.125 181.947 164.64 182.34L163.54 180.34C164.22 179.838 164.986 179.465 165.8 179.24C166.711 178.984 167.654 178.856 168.6 178.86C170.058 178.746 171.506 179.189 172.65 180.1ZM170.1 188.55C170.637 188.243 171.045 187.753 171.25 187.17V185.75H168.37C166.76 185.75 165.95 186.28 165.95 187.34C165.943 187.575 165.995 187.808 166.101 188.018C166.208 188.228 166.366 188.407 166.56 188.54C167.053 188.866 167.639 189.024 168.23 188.99C168.882 189.016 169.528 188.864 170.1 188.55Z" fill="#3C3C3B"/>
<path d="M186.98 181.34H182.79V190.91H180V181.34H175.79V178.97H186.98V181.34Z" fill="#3C3C3B"/>
<path d="M189.01 178.97H191.81V186.84L198.41 178.97H200.95V190.91H198.16V183.04L191.58 190.91H189.01V178.97Z" fill="#3C3C3B"/>
<path d="M213.42 185.75C213.831 186.216 214.052 186.819 214.04 187.44C214.045 188.154 213.78 188.843 213.3 189.37C212.754 189.968 212.066 190.419 211.3 190.68C210.335 191.01 209.32 191.169 208.3 191.15C207.404 191.12 206.515 190.985 205.65 190.75C204.813 190.547 204.006 190.234 203.25 189.82L204.06 187.74C204.688 188.085 205.361 188.341 206.06 188.5C206.776 188.678 207.512 188.769 208.25 188.77C209.008 188.807 209.764 188.656 210.45 188.33C210.685 188.228 210.885 188.061 211.027 187.848C211.169 187.635 211.246 187.386 211.25 187.13C211.255 186.912 211.199 186.697 211.09 186.508C210.981 186.32 210.821 186.164 210.63 186.06C210.098 185.78 209.5 185.649 208.9 185.68H206.57V183.8H208.65C209.222 183.831 209.792 183.707 210.3 183.44C210.481 183.344 210.632 183.2 210.736 183.023C210.84 182.847 210.894 182.645 210.89 182.44C210.879 182.223 210.807 182.014 210.681 181.836C210.555 181.659 210.381 181.522 210.18 181.44C209.555 181.151 208.868 181.02 208.18 181.06C206.873 181.084 205.586 181.38 204.4 181.93L203.68 179.87C205.16 179.162 206.779 178.79 208.42 178.78C209.346 178.767 210.268 178.906 211.15 179.19C211.867 179.413 212.516 179.812 213.04 180.35C213.477 180.816 213.721 181.431 213.72 182.07C213.73 182.633 213.542 183.181 213.19 183.62C212.801 184.101 212.29 184.467 211.71 184.68C212.374 184.858 212.969 185.231 213.42 185.75Z" fill="#3C3C3B"/>
<path d="M225.43 180.1C225.925 180.596 226.306 181.194 226.548 181.852C226.789 182.509 226.886 183.211 226.83 183.91V190.91H224.19V189.46C223.833 189.994 223.325 190.408 222.73 190.65C221.239 191.236 219.581 191.236 218.09 190.65C217.461 190.377 216.921 189.934 216.53 189.37C216.166 188.826 215.974 188.185 215.98 187.53C215.962 187.036 216.061 186.544 216.27 186.096C216.478 185.647 216.79 185.255 217.18 184.95C218.288 184.201 219.617 183.849 220.95 183.95H224.04V183.75C224.062 183.395 224.006 183.039 223.877 182.707C223.747 182.376 223.547 182.076 223.29 181.83C222.656 181.337 221.861 181.098 221.06 181.16C220.381 181.157 219.706 181.261 219.06 181.47C218.462 181.651 217.905 181.947 217.42 182.34L216.32 180.34C217 179.838 217.766 179.465 218.58 179.24C219.491 178.984 220.434 178.856 221.38 178.86C222.838 178.746 224.286 179.189 225.43 180.1ZM222.88 188.55C223.417 188.241 223.828 187.752 224.04 187.17V185.75H221.15C219.54 185.75 218.74 186.28 218.74 187.34C218.732 187.574 218.783 187.806 218.888 188.016C218.993 188.225 219.148 188.406 219.34 188.54C219.837 188.868 220.426 189.026 221.02 188.99C221.668 189.015 222.311 188.863 222.88 188.55Z" fill="#3C3C3B"/>
<path d="M243.4 188.54V193.66H240.79V190.91H230.3V178.97H233.09V188.54H238.8V178.97H241.59V188.54H243.4Z" fill="#3C3C3B"/>
<path d="M245.89 178.97H248.65V186.84L255.25 178.97H257.8V190.91H255V183.04L248.43 190.91H245.86L245.89 178.97Z" fill="#3C3C3B"/>
<path d="M261.59 178.97H264.38V186.84L270.98 178.97H273.53V190.91H270.73V183.04L264.16 190.91H261.59V178.97Z" fill="#3C3C3B"/>
<path d="M296.21 188.54V193.54H293.59V190.88H284.37V193.54H281.78V188.54H282.34C283.1 188.54 283.62 188.02 283.89 187.07C284.221 185.761 284.406 184.42 284.44 183.07L284.6 178.98H294.44V188.55L296.21 188.54ZM286.65 186.62C286.554 187.337 286.24 188.008 285.75 188.54H291.65V181.34H287.07L287 183.26C286.958 184.387 286.841 185.509 286.65 186.62Z" fill="#3C3C3B"/>
<path d="M309.85 185.83H300.48C300.615 186.668 301.075 187.419 301.76 187.92C302.514 188.457 303.424 188.731 304.35 188.7C304.95 188.718 305.548 188.611 306.105 188.388C306.663 188.164 307.168 187.828 307.59 187.4L309.09 189.12C308.555 189.763 307.867 190.262 307.09 190.57C306.207 190.914 305.267 191.083 304.32 191.07C303.116 191.092 301.926 190.821 300.85 190.28C299.885 189.792 299.083 189.035 298.54 188.1C297.984 187.141 297.7 186.048 297.72 184.94C297.706 183.838 297.982 182.752 298.52 181.79C299.035 180.875 299.798 180.123 300.72 179.62C301.691 179.108 302.772 178.84 303.87 178.84C304.968 178.84 306.049 179.108 307.02 179.62C307.923 180.128 308.665 180.88 309.16 181.79C309.692 182.782 309.957 183.895 309.93 185.02C309.89 185.2 309.88 185.48 309.85 185.83ZM301.59 181.83C300.963 182.373 300.558 183.128 300.45 183.95H307.23C307.14 183.136 306.752 182.384 306.14 181.84C305.501 181.301 304.686 181.016 303.85 181.04C303.021 181.022 302.215 181.315 301.59 181.86V181.83Z" fill="#3C3C3B"/>
<path d="M322.71 178.97V190.91H320.2V187.31H317.05L314.61 190.91H311.61L314.42 186.91C313.626 186.669 312.927 186.186 312.42 185.53C311.867 184.679 311.641 183.656 311.782 182.651C311.924 181.646 312.424 180.726 313.19 180.06C314.366 179.263 315.771 178.873 317.19 178.95L322.71 178.97ZM314.65 183.35C314.65 184.69 315.52 185.35 317.27 185.35H320.27V181.3H317.39C315.51 181.31 314.65 181.99 314.65 183.35Z" fill="#3C3C3B"/>
<path d="M335.93 181.34H331.74V190.91H328.95V181.34H324.74V178.97H335.93V181.34Z" fill="#3C3C3B"/>
<path d="M348.59 185.83H339.21C339.353 186.667 339.816 187.417 340.5 187.92C341.25 188.459 342.157 188.733 343.08 188.7C343.682 188.718 344.281 188.612 344.84 188.388C345.399 188.164 345.906 187.828 346.33 187.4L347.83 189.12C347.295 189.763 346.607 190.262 345.83 190.57C344.824 190.943 343.753 191.109 342.681 191.059C341.608 191.009 340.557 190.744 339.59 190.28C338.625 189.792 337.823 189.035 337.28 188.1C336.724 187.141 336.44 186.048 336.46 184.94C336.442 183.839 336.715 182.752 337.25 181.79C337.768 180.877 338.53 180.125 339.45 179.62C340.421 179.108 341.502 178.84 342.6 178.84C343.698 178.84 344.779 179.108 345.75 179.62C346.656 180.127 347.401 180.879 347.9 181.79C348.427 182.784 348.692 183.895 348.67 185.02C348.65 185.2 348.65 185.48 348.59 185.83ZM340.32 181.83C339.696 182.374 339.294 183.129 339.19 183.95H345.97C345.882 183.126 345.483 182.367 344.855 181.826C344.228 181.286 343.418 181.005 342.59 181.04C341.758 181.025 340.95 181.317 340.32 181.86V181.83Z" fill="#3C3C3B"/>
<path d="M362.36 178.97V190.91H359.57V181.34H355.09L354.98 183.71C354.936 185.052 354.792 186.389 354.55 187.71C354.392 188.63 354.015 189.497 353.45 190.24C353.19 190.544 352.863 190.785 352.496 190.944C352.129 191.104 351.73 191.177 351.33 191.16C350.809 191.144 350.291 191.063 349.79 190.92L349.93 188.57C350.104 188.609 350.282 188.632 350.46 188.64C350.716 188.653 350.971 188.596 351.197 188.474C351.422 188.353 351.61 188.171 351.74 187.95C352.034 187.451 352.221 186.896 352.29 186.32C352.37 185.69 352.44 184.78 352.5 183.6L352.7 179L362.36 178.97Z" fill="#3C3C3B"/>
<path d="M375.65 183.93C376.062 184.29 376.385 184.739 376.597 185.244C376.808 185.748 376.902 186.294 376.87 186.84C376.896 187.41 376.788 187.978 376.556 188.499C376.323 189.02 375.972 189.479 375.53 189.84C374.425 190.605 373.088 190.958 371.75 190.84H366.16V178.97H368.95V182.88H372.15C373.404 182.805 374.644 183.177 375.65 183.93ZM373.38 188.36C373.603 188.167 373.777 187.924 373.89 187.652C374.003 187.379 374.051 187.084 374.03 186.79C374.053 186.512 374.007 186.233 373.897 185.977C373.788 185.721 373.617 185.495 373.4 185.32C372.835 184.959 372.169 184.787 371.5 184.83H368.95V188.88H371.5C372.156 188.931 372.808 188.747 373.34 188.36H373.38Z" fill="#3C3C3B"/>
<path d="M379.29 178.97H382.09V183.82H388.09V178.97H390.89V190.91H388.09V186.19H382.09V190.91H379.29V178.97Z" fill="#3C3C3B"/>
<path d="M396.72 190.28C395.77 189.782 394.98 189.027 394.44 188.1C393.909 187.131 393.63 186.045 393.63 184.94C393.63 183.835 393.909 182.749 394.44 181.78C394.984 180.861 395.773 180.113 396.72 179.62C397.721 179.082 398.844 178.81 399.98 178.83C401.126 178.81 402.258 179.082 403.27 179.62C404.212 180.116 404.997 180.864 405.54 181.78C406.071 182.749 406.35 183.835 406.35 184.94C406.35 186.045 406.071 187.131 405.54 188.1C405.001 189.024 404.215 189.779 403.27 190.28C402.256 190.814 401.125 191.085 399.98 191.07C398.844 191.085 397.723 190.813 396.72 190.28ZM402.53 187.64C402.87 187.28 403.133 186.856 403.305 186.392C403.477 185.928 403.553 185.434 403.53 184.94C403.552 184.444 403.476 183.949 403.304 183.484C403.132 183.019 402.869 182.592 402.53 182.23C401.847 181.57 400.935 181.2 399.985 181.2C399.035 181.2 398.123 181.57 397.44 182.23C397.102 182.593 396.84 183.02 396.669 183.485C396.497 183.95 396.419 184.445 396.44 184.94C396.418 185.434 396.496 185.927 396.667 186.391C396.839 186.855 397.102 187.279 397.44 187.64C398.123 188.3 399.035 188.67 399.985 188.67C400.935 188.67 401.847 188.3 402.53 187.64Z" fill="#3C3C3B"/>
<path d="M411.21 190.28C410.252 189.783 409.451 189.028 408.9 188.1C408.362 187.133 408.08 186.046 408.08 184.94C408.08 183.834 408.362 182.746 408.9 181.78C409.454 180.863 410.25 180.115 411.2 179.62C412.229 179.078 413.378 178.806 414.54 178.83C415.617 178.806 416.683 179.054 417.64 179.55C418.506 180.01 419.206 180.731 419.64 181.61L417.49 182.86C417.181 182.337 416.735 181.908 416.2 181.62C415.685 181.339 415.107 181.194 414.52 181.2C414.042 181.182 413.564 181.262 413.118 181.433C412.671 181.605 412.263 181.866 411.92 182.2C411.266 182.953 410.905 183.917 410.905 184.915C410.905 185.913 411.266 186.877 411.92 187.63C412.264 187.966 412.673 188.227 413.122 188.399C413.571 188.571 414.05 188.65 414.53 188.63C415.132 188.647 415.727 188.503 416.254 188.213C416.782 187.923 417.222 187.497 417.53 186.98L419.68 188.23C419.237 189.105 418.54 189.827 417.68 190.3C416.735 190.799 415.679 191.05 414.61 191.03C413.432 191.07 412.262 190.812 411.21 190.28Z" fill="#3C3C3B"/>
<path d="M431.45 181.34H427.27V190.91H424.47V181.34H420.26V178.97H431.45V181.34Z" fill="#3C3C3B"/>
<path d="M433.48 178.97H436.28V186.84L442.88 178.97H445.43V190.91H442.65V183.04L436.08 190.91H433.5L433.48 178.97Z" fill="#3C3C3B"/>
<path d="M466.81 178.97V190.91H464.03V181.34H458.15V190.91H455.36V178.97H466.81Z" fill="#3C3C3B"/>
<path d="M480.33 179.59C481.233 180.092 481.977 180.837 482.48 181.74C483.023 182.718 483.295 183.822 483.27 184.94C483.294 186.061 483.021 187.168 482.48 188.15C481.981 189.058 481.235 189.806 480.33 190.31C479.371 190.823 478.298 191.085 477.21 191.07C476.492 191.102 475.776 190.974 475.114 190.696C474.451 190.417 473.859 189.995 473.38 189.46V195.25H470.59V178.97H473.25V180.53C473.702 179.967 474.291 179.53 474.96 179.26C475.673 178.965 476.439 178.819 477.21 178.83C478.298 178.815 479.371 179.077 480.33 179.59ZM479.43 187.59C479.768 187.229 480.03 186.804 480.202 186.341C480.374 185.877 480.451 185.384 480.43 184.89C480.45 184.395 480.372 183.9 480.201 183.435C480.029 182.97 479.767 182.543 479.43 182.18C479.099 181.847 478.702 181.586 478.265 181.414C477.828 181.242 477.359 181.162 476.89 181.18C476.257 181.174 475.633 181.333 475.08 181.64C474.541 181.947 474.1 182.402 473.81 182.95C473.501 183.561 473.34 184.235 473.34 184.92C473.34 185.604 473.501 186.279 473.81 186.89C474.101 187.436 474.541 187.887 475.08 188.19C475.632 188.502 476.256 188.66 476.89 188.65C477.36 188.669 477.83 188.589 478.267 188.415C478.705 188.241 479.101 187.977 479.43 187.64V187.59Z" fill="#3C3C3B"/>
<path d="M497.18 185.83H487.81C487.944 186.668 488.405 187.419 489.09 187.92C489.83 188.469 490.729 188.76 491.65 188.75C492.25 188.768 492.848 188.661 493.405 188.438C493.963 188.214 494.468 187.878 494.89 187.45L496.39 189.17C495.855 189.813 495.167 190.312 494.39 190.62C493.507 190.964 492.567 191.133 491.62 191.12C490.416 191.142 489.226 190.871 488.15 190.33C487.185 189.842 486.383 189.085 485.84 188.15C485.284 187.191 485 186.098 485.02 184.99C485.007 183.889 485.279 182.804 485.81 181.84C486.329 180.924 487.095 180.172 488.02 179.67C488.99 179.135 490.082 178.862 491.19 178.88C492.279 178.861 493.355 179.127 494.31 179.65C495.205 180.137 495.946 180.864 496.45 181.75C496.982 182.742 497.247 183.855 497.22 184.98C497.22 185.2 497.21 185.48 497.18 185.83ZM488.91 181.83C488.286 182.373 487.886 183.129 487.79 183.95H494.56C494.47 183.136 494.082 182.384 493.47 181.84C492.821 181.326 492.018 181.046 491.19 181.046C490.362 181.046 489.559 181.326 488.91 181.84V181.83Z" fill="#3C3C3B"/>
<path d="M512.88 188.54V193.54H510.26V190.88H501.05V193.54H498.45V188.54H499.01C499.77 188.54 500.29 188.05 500.57 187.07C500.897 185.761 501.078 184.419 501.11 183.07L501.27 178.98H511.11V188.55L512.88 188.54ZM503.33 186.62C503.234 187.337 502.92 188.008 502.43 188.54H508.32V181.34H503.73L503.66 183.26C503.625 184.386 503.515 185.509 503.33 186.62Z" fill="#3C3C3B"/>
<path d="M526.83 178.97V190.91H524.06V181.34H518.18V190.91H515.38V178.97H526.83Z" fill="#3C3C3B"/>
<path d="M540.35 179.59C541.258 180.089 542.006 180.835 542.51 181.74C543.048 182.72 543.32 183.823 543.3 184.94C543.319 186.06 543.047 187.167 542.51 188.15C542.01 189.061 541.261 189.81 540.35 190.31C539.392 190.825 538.318 191.087 537.23 191.07C536.514 191.103 535.799 190.975 535.138 190.697C534.477 190.418 533.887 189.996 533.41 189.46V195.25H530.65V178.97H533.32V180.53C533.772 179.967 534.361 179.53 535.03 179.26C535.739 178.964 536.502 178.818 537.27 178.83C538.344 178.82 539.404 179.081 540.35 179.59ZM539.46 187.59C539.798 187.229 540.061 186.805 540.233 186.341C540.404 185.877 540.482 185.384 540.46 184.89C540.481 184.395 540.403 183.9 540.231 183.435C540.06 182.97 539.798 182.543 539.46 182.18C539.129 181.847 538.732 181.586 538.295 181.414C537.858 181.242 537.39 181.162 536.92 181.18C536.287 181.174 535.663 181.333 535.11 181.64C534.57 181.95 534.127 182.403 533.83 182.95C533.521 183.561 533.36 184.236 533.36 184.92C533.36 185.604 533.521 186.279 533.83 186.89C534.127 187.434 534.571 187.884 535.11 188.19C535.662 188.502 536.287 188.661 536.92 188.65C537.391 188.669 537.86 188.589 538.297 188.415C538.735 188.241 539.131 187.977 539.46 187.64V187.59Z" fill="#3C3C3B"/>
<path d="M546.07 178.97H548.86V186.84L555.46 178.97H558.01V190.91H555.21V183.04L548.65 190.91H546.08L546.07 178.97Z" fill="#3C3C3B"/>
<path d="M571.86 178.97V190.91H569.35V187.31H566.2L563.76 190.91H560.76L563.58 186.91C562.786 186.668 562.087 186.186 561.58 185.53C561.027 184.679 560.801 183.656 560.942 182.651C561.084 181.646 561.584 180.726 562.35 180.06C563.526 179.261 564.931 178.871 566.35 178.95L571.86 178.97ZM563.76 183.35C563.76 184.69 564.63 185.35 566.38 185.35H569.38V181.3H566.5C564.65 181.31 563.76 181.99 563.76 183.35Z" fill="#3C3C3B"/>
<path d="M585.07 181.34H580.89V190.91H578.1V181.34H573.89V178.97H585.07V181.34Z" fill="#3C3C3B"/>
<path d="M587.11 178.97H589.9V186.84L596.5 178.97H599.05V190.91H596.25V183.04L589.65 190.91H587.08L587.11 178.97Z" fill="#3C3C3B"/>
<path d="M602.81 178.97H605.65V186.84L612.24 178.97H614.79V190.91H612V183.04L605.42 190.91H602.85L602.81 178.97ZM605.81 176.72C605.476 176.408 605.214 176.028 605.041 175.605C604.869 175.182 604.79 174.726 604.81 174.27H606.66C606.656 174.747 606.839 175.207 607.17 175.55C607.354 175.712 607.568 175.836 607.799 175.915C608.031 175.993 608.276 176.026 608.52 176.01C609.013 176.039 609.497 175.874 609.87 175.55C610.041 175.384 610.176 175.185 610.267 174.965C610.358 174.745 610.403 174.508 610.4 174.27H612.3C612.32 174.726 612.241 175.182 612.069 175.605C611.896 176.028 611.634 176.408 611.3 176.72C610.506 177.329 609.518 177.628 608.52 177.56C607.558 177.622 606.607 177.334 605.84 176.75L605.81 176.72Z" fill="#3C3C3B"/>
<path d="M626.74 190.28C625.793 189.782 625.006 189.026 624.47 188.1C623.932 187.134 623.65 186.046 623.65 184.94C623.65 183.834 623.932 182.746 624.47 181.78C625.01 180.862 625.796 180.113 626.74 179.62C627.754 179.101 628.876 178.83 630.015 178.83C631.154 178.83 632.277 179.101 633.29 179.62C634.234 180.113 635.02 180.862 635.56 181.78C636.098 182.746 636.38 183.834 636.38 184.94C636.38 186.046 636.098 187.134 635.56 188.1C635.024 189.026 634.237 189.782 633.29 190.28C632.277 190.8 631.154 191.07 630.015 191.07C628.876 191.07 627.754 190.8 626.74 190.28ZM632.55 187.64C632.892 187.282 633.156 186.857 633.328 186.393C633.5 185.929 633.576 185.434 633.55 184.94C633.575 184.444 633.499 183.949 633.327 183.483C633.155 183.017 632.891 182.591 632.55 182.23C631.869 181.57 630.958 181.201 630.01 181.201C629.062 181.201 628.151 181.57 627.47 182.23C627.131 182.592 626.868 183.019 626.696 183.484C626.524 183.949 626.448 184.444 626.47 184.94C626.447 185.434 626.523 185.928 626.695 186.392C626.867 186.856 627.13 187.28 627.47 187.64C628.151 188.3 629.062 188.669 630.01 188.669C630.958 188.669 631.869 188.3 632.55 187.64Z" fill="#3C3C3B"/>
<path d="M648.59 180.28C649.43 180.747 650.123 181.44 650.59 182.28C651.094 183.198 651.346 184.233 651.32 185.28C651.34 186.356 651.059 187.415 650.51 188.34C649.973 189.228 649.192 189.943 648.26 190.4C647.232 190.909 646.097 191.163 644.95 191.14C644.043 191.194 643.137 191.035 642.302 190.678C641.467 190.32 640.727 189.773 640.14 189.08C638.895 187.368 638.293 185.272 638.44 183.16C638.329 181.144 638.869 179.146 639.98 177.46C641.148 175.973 642.833 174.98 644.7 174.68L650.25 173.5L650.65 176L645.65 177C644.446 177.182 643.32 177.71 642.41 178.52C641.648 179.339 641.201 180.402 641.15 181.52C641.696 180.879 642.379 180.369 643.15 180.03C643.935 179.676 644.789 179.498 645.65 179.51C646.68 179.51 647.692 179.775 648.59 180.28ZM647.53 187.88C647.857 187.544 648.113 187.146 648.285 186.71C648.456 186.274 648.54 185.809 648.53 185.34C648.544 184.88 648.462 184.422 648.29 183.995C648.118 183.568 647.859 183.182 647.53 182.86C646.836 182.259 645.948 181.928 645.03 181.928C644.112 181.928 643.224 182.259 642.53 182.86C642.2 183.181 641.941 183.567 641.768 183.995C641.596 184.422 641.515 184.88 641.53 185.34C641.515 185.811 641.596 186.279 641.768 186.718C641.94 187.156 642.199 187.555 642.53 187.89C643.21 188.52 644.103 188.87 645.03 188.87C645.957 188.87 646.85 188.52 647.53 187.89V187.88Z" fill="#3C3C3B"/>
<path d="M671.65 178.97V190.91H654.05V178.97H656.84V188.54H661.47V178.97H664.27V188.54H668.85V178.97H671.65ZM673.37 188.54V193.37H670.75V190.91H668.75V188.54H673.37Z" fill="#3C3C3B"/>
<path d="M686.54 185.83H677.17C677.309 186.669 677.772 187.42 678.46 187.92C679.21 188.459 680.117 188.733 681.04 188.7C681.64 188.718 682.238 188.611 682.795 188.388C683.353 188.164 683.858 187.828 684.28 187.4L685.78 189.12C685.245 189.763 684.557 190.262 683.78 190.57C682.774 190.943 681.703 191.109 680.631 191.059C679.559 191.009 678.508 190.744 677.54 190.28C676.575 189.789 675.77 189.033 675.22 188.1C674.671 187.138 674.392 186.047 674.41 184.94C674.392 183.839 674.665 182.752 675.2 181.79C675.715 180.875 676.478 180.123 677.4 179.62C678.371 179.108 679.452 178.84 680.55 178.84C681.648 178.84 682.729 179.108 683.7 179.62C684.603 180.128 685.345 180.88 685.84 181.79C686.375 182.781 686.643 183.894 686.62 185.02C686.59 185.2 686.57 185.48 686.54 185.83ZM678.28 181.83C677.653 182.371 677.25 183.127 677.15 183.95H683.92C683.834 183.135 683.445 182.382 682.83 181.84C682.184 181.325 681.382 181.044 680.555 181.044C679.728 181.044 678.926 181.325 678.28 181.84V181.83Z" fill="#3C3C3B"/>
<path d="M701.1 178.97V190.91H698.33V181.34H692.45V190.91H689.65V178.97H701.1Z" fill="#3C3C3B"/>
<path d="M704.88 178.97H707.65V186.84L714.25 178.97H716.79V190.91H714V183.04L707.42 190.91H704.85L704.88 178.97Z" fill="#3C3C3B"/>
<path d="M730.05 181.34H725.86V190.91H723.07V181.34H718.86V178.97H730.05V181.34Z" fill="#3C3C3B"/>
<path d="M740.57 180.1C741.063 180.597 741.443 181.195 741.685 181.853C741.927 182.51 742.024 183.212 741.97 183.91V190.91H739.33V189.46C738.97 189.995 738.458 190.409 737.86 190.65C736.369 191.236 734.711 191.236 733.22 190.65C732.592 190.38 732.054 189.936 731.67 189.37C731.302 188.828 731.11 188.185 731.12 187.53C731.102 187.037 731.201 186.546 731.408 186.098C731.614 185.65 731.923 185.257 732.31 184.95C733.42 184.206 734.747 183.854 736.08 183.95H739.17V183.75C739.192 183.395 739.136 183.039 739.007 182.707C738.877 182.376 738.677 182.076 738.42 181.83C737.786 181.337 736.991 181.098 736.19 181.16C735.511 181.157 734.836 181.262 734.19 181.47C733.594 181.655 733.038 181.95 732.55 182.34L731.45 180.34C732.131 179.84 732.896 179.467 733.71 179.24C734.621 178.985 735.564 178.857 736.51 178.86C737.972 178.744 739.422 179.188 740.57 180.1ZM738.02 188.55C738.552 188.237 738.958 187.75 739.17 187.17V185.75H736.28C734.67 185.75 733.87 186.28 733.87 187.34C733.862 187.574 733.913 187.807 734.018 188.016C734.123 188.226 734.278 188.406 734.47 188.54C734.967 188.867 735.556 189.024 736.15 188.99C736.802 189.014 737.447 188.862 738.02 188.55Z" fill="#3C3C3B"/>
</g>
<defs>
<clipPath id="clip0">
<rect width="741.97" height="195.25" fill="white"/>
</clipPath>
</defs>
</svg>
