<svg width="301" height="96" viewBox="0 0 301 96" fill="none" xmlns="http://www.w3.org/2000/svg">
<path d="M47.6866 30.6504C44.0576 27.7111 38.839 26.2415 32.0308 26.2415H18.7143V19.7632H48.6464V5.51697H0.179138V61.5422H29.6314C37.0394 61.5422 42.7979 59.9227 46.9668 56.6535C51.1057 53.3844 53.2052 48.9156 53.2052 43.2171C53.2052 37.7285 51.3757 33.5296 47.6866 30.6504ZM32.6906 47.146C31.6709 47.9558 30.2312 48.3457 28.3717 48.3457H18.7143V39.3781H28.3717C32.3007 39.3781 34.2802 40.8177 34.2802 43.6969C34.2802 45.1965 33.7403 46.3362 32.6906 47.146Z" fill="white"/>
<path d="M273.167 5.51697C267.889 5.51697 263.33 6.38674 259.431 8.15628C255.532 9.92581 252.533 12.4152 250.403 15.6843C248.334 18.9534 247.284 22.7924 247.284 27.2013C247.284 31.4601 248.244 35.1792 250.163 38.3283C252.143 41.4175 254.932 43.8169 258.561 45.5265L247.554 61.5422H267.289L275.837 48.2557H280.875V61.5422H299.41V5.51697H273.167ZM280.815 34.0095H273.467C268.669 34.0095 266.269 31.6401 266.269 26.8714C266.269 22.3425 268.669 20.0631 273.467 20.0631H280.815V34.0095Z" fill="white"/>
<path d="M100.083 8.0663C96.2439 6.35675 91.7451 5.51697 86.5865 5.51697H59.6835V61.5422H78.5186V47.7759H86.5865C91.7451 47.7759 96.2439 46.9361 100.083 45.2265C103.922 43.517 106.861 41.0576 108.961 37.8485C111.03 34.6393 112.08 30.9203 112.08 26.6314C112.08 22.3725 111.03 18.6235 108.961 15.4144C106.861 12.2352 103.922 9.77585 100.083 8.0663ZM91.1453 31.5201C89.8556 32.6298 87.9661 33.1997 85.3868 33.1997H78.5186V20.0631H85.3868C87.9361 20.0631 89.8556 20.663 91.1453 21.8327C92.4349 22.9424 93.0647 24.562 93.0647 26.6314C93.0647 28.7309 92.4349 30.3504 91.1453 31.5201Z" fill="white"/>
<path d="M221.551 25.3717H204.156V5.51697H185.29V61.5422H204.156V40.9077H221.551V61.5422H240.386V5.51697H221.551V25.3717Z" fill="white"/>
<path d="M3.1768 78.0912C2.63467 78.0912 2.1432 77.9747 1.7024 77.7416C1.26667 77.5035 0.922133 77.1767 0.6688 76.7612C0.420533 76.3407 0.2964 75.8669 0.2964 75.34C0.2964 74.8131 0.420533 74.3419 0.6688 73.9264C0.922133 73.5059 1.26667 73.1791 1.7024 72.946C2.1432 72.7079 2.6372 72.5888 3.1844 72.5888C3.64547 72.5888 4.06093 72.6699 4.4308 72.832C4.80573 72.9941 5.11987 73.2272 5.3732 73.5312L4.5828 74.2608C4.22307 73.8453 3.7772 73.6376 3.2452 73.6376C2.91587 73.6376 2.622 73.7111 2.3636 73.858C2.1052 73.9999 1.90253 74.2 1.7556 74.4584C1.61373 74.7168 1.5428 75.0107 1.5428 75.34C1.5428 75.6693 1.61373 75.9632 1.7556 76.2216C1.90253 76.48 2.1052 76.6827 2.3636 76.8296C2.622 76.9715 2.91587 77.0424 3.2452 77.0424C3.7772 77.0424 4.22307 76.8321 4.5828 76.4116L5.3732 77.1412C5.11987 77.4503 4.80573 77.6859 4.4308 77.848C4.05587 78.0101 3.63787 78.0912 3.1768 78.0912ZM10.2949 77.012V78H6.17565V72.68H10.1961V73.668H7.39925V74.8232H9.86925V75.7808H7.39925V77.012H10.2949ZM13.5921 72.68C14.0633 72.68 14.4712 72.7585 14.8157 72.9156C15.1653 73.0727 15.4339 73.2956 15.6213 73.5844C15.8088 73.8732 15.9025 74.2152 15.9025 74.6104C15.9025 75.0005 15.8088 75.3425 15.6213 75.6364C15.4339 75.9252 15.1653 76.1481 14.8157 76.3052C14.4712 76.4572 14.0633 76.5332 13.5921 76.5332H12.5205V78H11.2893V72.68H13.5921ZM13.5237 75.53C13.8936 75.53 14.1748 75.4515 14.3673 75.2944C14.5599 75.1323 14.6561 74.9043 14.6561 74.6104C14.6561 74.3115 14.5599 74.0835 14.3673 73.9264C14.1748 73.7643 13.8936 73.6832 13.5237 73.6832H12.5205V75.53H13.5237ZM20.4007 75.226C20.725 75.3223 20.9732 75.4793 21.1455 75.6972C21.3178 75.9151 21.4039 76.1836 21.4039 76.5028C21.4039 76.974 21.224 77.3413 20.8643 77.6048C20.5096 77.8683 20.0004 78 19.3367 78H16.7147V72.68H19.1923C19.8104 72.68 20.2918 72.7991 20.6363 73.0372C20.9808 73.2753 21.1531 73.6148 21.1531 74.0556C21.1531 74.3191 21.0872 74.5521 20.9555 74.7548C20.8238 74.9524 20.6388 75.1095 20.4007 75.226ZM17.9383 74.884H19.0859C19.3544 74.884 19.5571 74.8308 19.6939 74.7244C19.8307 74.6129 19.8991 74.4508 19.8991 74.238C19.8991 74.0303 19.8282 73.8707 19.6863 73.7592C19.5495 73.6477 19.3494 73.592 19.0859 73.592H17.9383V74.884ZM19.2911 77.088C19.8687 77.088 20.1575 76.86 20.1575 76.404C20.1575 75.9632 19.8687 75.7428 19.2911 75.7428H17.9383V77.088H19.2911ZM22.3776 72.68H23.6012V76.1456L26.1396 72.68H27.2948V78H26.0788V74.542L23.5404 78H22.3776V72.68ZM31.135 78.0912C30.5929 78.0912 30.1014 77.9747 29.6606 77.7416C29.2249 77.5035 28.8803 77.1767 28.627 76.7612C28.3787 76.3407 28.2546 75.8669 28.2546 75.34C28.2546 74.8131 28.3787 74.3419 28.627 73.9264C28.8803 73.5059 29.2249 73.1791 29.6606 72.946C30.1014 72.7079 30.5954 72.5888 31.1426 72.5888C31.6037 72.5888 32.0191 72.6699 32.389 72.832C32.7639 72.9941 33.0781 73.2272 33.3314 73.5312L32.541 74.2608C32.1813 73.8453 31.7354 73.6376 31.2034 73.6376C30.8741 73.6376 30.5802 73.7111 30.3218 73.858C30.0634 73.9999 29.8607 74.2 29.7138 74.4584C29.5719 74.7168 29.501 75.0107 29.501 75.34C29.501 75.6693 29.5719 75.9632 29.7138 76.2216C29.8607 76.48 30.0634 76.6827 30.3218 76.8296C30.5802 76.9715 30.8741 77.0424 31.2034 77.0424C31.7354 77.0424 32.1813 76.8321 32.541 76.4116L33.3314 77.1412C33.0781 77.4503 32.7639 77.6859 32.389 77.848C32.0141 78.0101 31.5961 78.0912 31.135 78.0912ZM39.8886 76.86H37.4186L36.9474 78H35.6858L38.057 72.68H39.273L41.6518 78H40.3598L39.8886 76.86ZM39.501 75.9252L38.6574 73.8884L37.8138 75.9252H39.501ZM46.0433 75.226C46.3676 75.3223 46.6158 75.4793 46.7881 75.6972C46.9604 75.9151 47.0465 76.1836 47.0465 76.5028C47.0465 76.974 46.8666 77.3413 46.5069 77.6048C46.1522 77.8683 45.643 78 44.9793 78H42.3573V72.68H44.8349C45.453 72.68 45.9344 72.7991 46.2789 73.0372C46.6234 73.2753 46.7957 73.6148 46.7957 74.0556C46.7957 74.3191 46.7298 74.5521 46.5981 74.7548C46.4664 74.9524 46.2814 75.1095 46.0433 75.226ZM43.5809 74.884H44.7285C44.997 74.884 45.1997 74.8308 45.3365 74.7244C45.4733 74.6129 45.5417 74.4508 45.5417 74.238C45.5417 74.0303 45.4708 73.8707 45.3289 73.7592C45.1921 73.6477 44.992 73.592 44.7285 73.592H43.5809V74.884ZM44.9337 77.088C45.5113 77.088 45.8001 76.86 45.8001 76.404C45.8001 75.9632 45.5113 75.7428 44.9337 75.7428H43.5809V77.088H44.9337ZM52.012 73.6832H50.3096V78H49.0936V73.6832H47.3988V72.68H52.012V73.6832ZM55.2492 78.0912C54.6969 78.0912 54.1979 77.9721 53.752 77.734C53.3112 77.4959 52.9641 77.1691 52.7108 76.7536C52.4625 76.3331 52.3384 75.8619 52.3384 75.34C52.3384 74.8181 52.4625 74.3495 52.7108 73.934C52.9641 73.5135 53.3112 73.1841 53.752 72.946C54.1979 72.7079 54.6969 72.5888 55.2492 72.5888C55.8015 72.5888 56.298 72.7079 56.7388 72.946C57.1796 73.1841 57.5267 73.5135 57.78 73.934C58.0333 74.3495 58.16 74.8181 58.16 75.34C58.16 75.8619 58.0333 76.3331 57.78 76.7536C57.5267 77.1691 57.1796 77.4959 56.7388 77.734C56.298 77.9721 55.8015 78.0912 55.2492 78.0912ZM55.2492 77.0424C55.5633 77.0424 55.8471 76.9715 56.1004 76.8296C56.3537 76.6827 56.5513 76.48 56.6932 76.2216C56.8401 75.9632 56.9136 75.6693 56.9136 75.34C56.9136 75.0107 56.8401 74.7168 56.6932 74.4584C56.5513 74.2 56.3537 73.9999 56.1004 73.858C55.8471 73.7111 55.5633 73.6376 55.2492 73.6376C54.9351 73.6376 54.6513 73.7111 54.398 73.858C54.1447 73.9999 53.9445 74.2 53.7976 74.4584C53.6557 74.7168 53.5848 75.0107 53.5848 75.34C53.5848 75.6693 53.6557 75.9632 53.7976 76.2216C53.9445 76.48 54.1447 76.6827 54.398 76.8296C54.6513 76.9715 54.9351 77.0424 55.2492 77.0424ZM63.9497 78L63.9421 74.8156L62.3765 77.4376H61.8293L60.2637 74.8764V78H59.1085V72.68H60.1269L62.1181 75.986L64.0789 72.68H65.0973L65.1049 78H63.9497ZM70.0288 76.86H67.5588L67.0876 78H65.826L68.1972 72.68H69.4132L71.792 78H70.5L70.0288 76.86ZM69.6412 75.9252L68.7976 73.8884L67.954 75.9252H69.6412ZM76.2963 73.6832H74.5939V78H73.3779V73.6832H71.6831V72.68H76.2963V73.6832ZM77.0694 72.68H78.293V76.1456L80.8314 72.68H81.9866V78H80.7706V74.542L78.2322 78H77.0694V72.68ZM86.336 75.226C86.6451 75.3324 86.8857 75.4996 87.058 75.7276C87.2353 75.9505 87.324 76.2115 87.324 76.5104C87.324 76.8347 87.2176 77.1159 87.0048 77.354C86.792 77.5921 86.5032 77.7745 86.1384 77.9012C85.7787 78.0279 85.3835 78.0912 84.9528 78.0912C84.588 78.0912 84.2232 78.0456 83.8584 77.9544C83.4987 77.8632 83.1567 77.7239 82.8324 77.5364L83.2124 76.6548C83.4455 76.7967 83.7013 76.9056 83.98 76.9816C84.2637 77.0525 84.5399 77.088 84.8084 77.088C85.1732 77.088 85.4747 77.0221 85.7128 76.8904C85.956 76.7587 86.0776 76.5737 86.0776 76.3356C86.0776 76.138 85.994 75.9885 85.8268 75.8872C85.6647 75.7859 85.4417 75.7352 85.158 75.7352H83.8584V74.808H85.0668C85.3151 74.808 85.5076 74.7573 85.6444 74.656C85.7863 74.5547 85.8572 74.4153 85.8572 74.238C85.8572 74.0303 85.7559 73.8681 85.5532 73.7516C85.3556 73.6351 85.0997 73.5768 84.7856 73.5768C84.5525 73.5768 84.3119 73.6097 84.0636 73.6756C83.8153 73.7364 83.5797 73.8301 83.3568 73.9568L82.9844 72.9992C83.5468 72.7104 84.1548 72.566 84.8084 72.566C85.2239 72.566 85.6064 72.6268 85.956 72.7484C86.3056 72.87 86.5843 73.0473 86.792 73.2804C86.9997 73.5135 87.1036 73.7845 87.1036 74.0936C87.1036 74.3469 87.0352 74.5724 86.8984 74.77C86.7616 74.9676 86.5741 75.1196 86.336 75.226ZM91.9011 76.86H89.4311L88.9599 78H87.6983L90.0695 72.68H91.2855L93.6643 78H92.3723L91.9011 76.86ZM91.5135 75.9252L90.6699 73.8884L89.8263 75.9252H91.5135ZM99.9482 76.9968V79.1248H98.8158V78H94.3698V72.68H95.5934V76.9968H97.9646V72.68H99.1882V76.9968H99.9482ZM100.76 72.68H101.984V76.1456L104.522 72.68H105.677V78H104.461V74.542L101.923 78H100.76V72.68ZM107.002 72.68H108.225V76.1456L110.764 72.68H111.919V78H110.703V74.542L108.165 78H107.002V72.68ZM120.883 76.9968V79.102H119.743V78H115.989V79.102H114.849L114.856 76.9968H115.069C115.388 76.9867 115.614 76.7536 115.746 76.2976C115.877 75.8416 115.958 75.1905 115.989 74.3444L116.05 72.68H120.138V76.9968H120.883ZM117.076 74.4584C117.05 75.0917 116.997 75.6237 116.916 76.0544C116.835 76.48 116.711 76.7941 116.544 76.9968H118.922V73.6832H117.098L117.076 74.4584ZM125.831 77.012V78H121.712V72.68H125.732V73.668H122.936V74.8232H125.406V75.7808H122.936V77.012H125.831ZM131.022 72.68V78H129.806V76.5864H128.681L127.739 78H126.439L127.549 76.3964C127.189 76.2495 126.913 76.0291 126.72 75.7352C126.528 75.4363 126.432 75.0791 126.432 74.6636C126.432 74.2532 126.525 73.9011 126.713 73.6072C126.9 73.3083 127.166 73.0803 127.511 72.9232C127.855 72.7611 128.261 72.68 128.727 72.68H131.022ZM128.757 73.6832C128.408 73.6832 128.139 73.7643 127.952 73.9264C127.769 74.0885 127.678 74.3292 127.678 74.6484C127.678 74.9575 127.767 75.1956 127.944 75.3628C128.121 75.53 128.382 75.6136 128.727 75.6136H129.806V73.6832H128.757ZM136.421 73.6832H134.719V78H133.503V73.6832H131.808V72.68H136.421V73.6832ZM141.313 77.012V78H137.194V72.68H141.214V73.668H138.418V74.8232H140.888V75.7808H138.418V77.012H141.313ZM147.05 72.68V78H145.834V73.6832H144.01L143.972 74.7928C143.947 75.5477 143.886 76.1608 143.79 76.632C143.693 77.0981 143.531 77.4579 143.303 77.7112C143.08 77.9595 142.766 78.0836 142.361 78.0836C142.194 78.0836 141.991 78.0557 141.753 78L141.829 76.9588C141.895 76.9791 141.968 76.9892 142.049 76.9892C142.343 76.9892 142.548 76.8169 142.665 76.4724C142.781 76.1228 142.855 75.5781 142.885 74.8384L142.961 72.68H147.05ZM150.955 74.428C151.604 74.428 152.1 74.5724 152.445 74.8612C152.794 75.15 152.969 75.5781 152.969 76.1456C152.969 76.7485 152.777 77.2096 152.392 77.5288C152.012 77.8429 151.475 78 150.78 78H148.379V72.68H149.602V74.428H150.955ZM150.712 77.088C151.031 77.088 151.279 77.0095 151.457 76.8524C151.639 76.6953 151.73 76.4673 151.73 76.1684C151.73 75.6161 151.391 75.34 150.712 75.34H149.602V77.088H150.712ZM158.735 72.68V78H157.504V75.8188H155.087V78H153.856V72.68H155.087V74.7776H157.504V72.68H158.735ZM162.607 78.0912C162.054 78.0912 161.555 77.9721 161.109 77.734C160.669 77.4959 160.322 77.1691 160.068 76.7536C159.82 76.3331 159.696 75.8619 159.696 75.34C159.696 74.8181 159.82 74.3495 160.068 73.934C160.322 73.5135 160.669 73.1841 161.109 72.946C161.555 72.7079 162.054 72.5888 162.607 72.5888C163.159 72.5888 163.655 72.7079 164.096 72.946C164.537 73.1841 164.884 73.5135 165.137 73.934C165.391 74.3495 165.517 74.8181 165.517 75.34C165.517 75.8619 165.391 76.3331 165.137 76.7536C164.884 77.1691 164.537 77.4959 164.096 77.734C163.655 77.9721 163.159 78.0912 162.607 78.0912ZM162.607 77.0424C162.921 77.0424 163.204 76.9715 163.458 76.8296C163.711 76.6827 163.909 76.48 164.051 76.2216C164.198 75.9632 164.271 75.6693 164.271 75.34C164.271 75.0107 164.198 74.7168 164.051 74.4584C163.909 74.2 163.711 73.9999 163.458 73.858C163.204 73.7111 162.921 73.6376 162.607 73.6376C162.292 73.6376 162.009 73.7111 161.755 73.858C161.502 73.9999 161.302 74.2 161.155 74.4584C161.013 74.7168 160.942 75.0107 160.942 75.34C160.942 75.6693 161.013 75.9632 161.155 76.2216C161.302 76.48 161.502 76.6827 161.755 76.8296C162.009 76.9715 162.292 77.0424 162.607 77.0424ZM168.981 78.0912C168.439 78.0912 167.948 77.9747 167.507 77.7416C167.071 77.5035 166.727 77.1767 166.473 76.7612C166.225 76.3407 166.101 75.8669 166.101 75.34C166.101 74.8131 166.225 74.3419 166.473 73.9264C166.727 73.5059 167.071 73.1791 167.507 72.946C167.948 72.7079 168.442 72.5888 168.989 72.5888C169.45 72.5888 169.866 72.6699 170.235 72.832C170.61 72.9941 170.925 73.2272 171.178 73.5312L170.387 74.2608C170.028 73.8453 169.582 73.6376 169.05 73.6376C168.721 73.6376 168.427 73.7111 168.168 73.858C167.91 73.9999 167.707 74.2 167.56 74.4584C167.418 74.7168 167.347 75.0107 167.347 75.34C167.347 75.6693 167.418 75.9632 167.56 76.2216C167.707 76.48 167.91 76.6827 168.168 76.8296C168.427 76.9715 168.721 77.0424 169.05 77.0424C169.582 77.0424 170.028 76.8321 170.387 76.4116L171.178 77.1412C170.925 77.4503 170.61 77.6859 170.235 77.848C169.861 78.0101 169.443 78.0912 168.981 78.0912ZM175.994 73.6832H174.292V78H173.076V73.6832H171.381V72.68H175.994V73.6832ZM176.767 72.68H177.991V76.1456L180.529 72.68H181.685V78H180.469V74.542L177.93 78H176.767V72.68ZM190.01 72.68V78H188.787V73.6832H186.385V78H185.162V72.68H190.01ZM193.632 72.68C194.103 72.68 194.511 72.7585 194.856 72.9156C195.205 73.0727 195.474 73.2956 195.661 73.5844C195.849 73.8732 195.942 74.2152 195.942 74.6104C195.942 75.0005 195.849 75.3425 195.661 75.6364C195.474 75.9252 195.205 76.1481 194.856 76.3052C194.511 76.4572 194.103 76.5332 193.632 76.5332H192.56V78H191.329V72.68H193.632ZM193.564 75.53C193.933 75.53 194.215 75.4515 194.407 75.2944C194.6 75.1323 194.696 74.9043 194.696 74.6104C194.696 74.3115 194.6 74.0835 194.407 73.9264C194.215 73.7643 193.933 73.6832 193.564 73.6832H192.56V75.53H193.564ZM200.874 77.012V78H196.755V72.68H200.775V73.668H197.978V74.8232H200.448V75.7808H197.978V77.012H200.874ZM207.355 76.9968V79.102H206.215V78H202.461V79.102H201.321L201.329 76.9968H201.541C201.861 76.9867 202.086 76.7536 202.218 76.2976C202.35 75.8416 202.431 75.1905 202.461 74.3444L202.522 72.68H206.611V76.9968H207.355ZM203.548 74.4584C203.522 75.0917 203.469 75.6237 203.388 76.0544C203.307 76.48 203.183 76.7941 203.016 76.9968H205.395V73.6832H203.571L203.548 74.4584ZM213.033 72.68V78H211.809V73.6832H209.408V78H208.184V72.68H213.033ZM216.655 72.68C217.126 72.68 217.534 72.7585 217.878 72.9156C218.228 73.0727 218.496 73.2956 218.684 73.5844C218.871 73.8732 218.965 74.2152 218.965 74.6104C218.965 75.0005 218.871 75.3425 218.684 75.6364C218.496 75.9252 218.228 76.1481 217.878 76.3052C217.534 76.4572 217.126 76.5332 216.655 76.5332H215.583V78H214.352V72.68H216.655ZM216.586 75.53C216.956 75.53 217.237 75.4515 217.43 75.2944C217.622 75.1323 217.719 74.9043 217.719 74.6104C217.719 74.3115 217.622 74.0835 217.43 73.9264C217.237 73.7643 216.956 73.6832 216.586 73.6832H215.583V75.53H216.586ZM219.777 72.68H221.001V76.1456L223.539 72.68H224.694V78H223.478V74.542L220.94 78H219.777V72.68ZM230.267 72.68V78H229.051V76.5864H227.927L226.984 78H225.685L226.794 76.3964C226.434 76.2495 226.158 76.0291 225.966 75.7352C225.773 75.4363 225.677 75.0791 225.677 74.6636C225.677 74.2532 225.771 73.9011 225.958 73.6072C226.146 73.3083 226.412 73.0803 226.756 72.9232C227.101 72.7611 227.506 72.68 227.972 72.68H230.267ZM228.003 73.6832C227.653 73.6832 227.384 73.7643 227.197 73.9264C227.015 74.0885 226.923 74.3292 226.923 74.6484C226.923 74.9575 227.012 75.1956 227.189 75.3628C227.367 75.53 227.628 75.6136 227.972 75.6136H229.051V73.6832H228.003ZM235.666 73.6832H233.964V78H232.748V73.6832H231.053V72.68H235.666V73.6832ZM236.439 72.68H237.663V76.1456L240.201 72.68H241.357V78H240.141V74.542L237.602 78H236.439V72.68ZM242.681 72.68H243.905V76.1456L246.443 72.68H247.598V78H246.382V74.542L243.844 78H242.681V72.68ZM245.136 72.338C244.163 72.338 243.672 71.9504 243.662 71.1752H244.505C244.515 71.5451 244.726 71.73 245.136 71.73C245.339 71.73 245.493 71.6844 245.6 71.5932C245.706 71.4969 245.762 71.3576 245.767 71.1752H246.61C246.605 71.5552 246.481 71.844 246.238 72.0416C245.995 72.2392 245.627 72.338 245.136 72.338ZM253.614 78.0912C253.061 78.0912 252.562 77.9721 252.116 77.734C251.676 77.4959 251.329 77.1691 251.075 76.7536C250.827 76.3331 250.703 75.8619 250.703 75.34C250.703 74.8181 250.827 74.3495 251.075 73.934C251.329 73.5135 251.676 73.1841 252.116 72.946C252.562 72.7079 253.061 72.5888 253.614 72.5888C254.166 72.5888 254.662 72.7079 255.103 72.946C255.544 73.1841 255.891 73.5135 256.144 73.934C256.398 74.3495 256.524 74.8181 256.524 75.34C256.524 75.8619 256.398 76.3331 256.144 76.7536C255.891 77.1691 255.544 77.4959 255.103 77.734C254.662 77.9721 254.166 78.0912 253.614 78.0912ZM253.614 77.0424C253.928 77.0424 254.212 76.9715 254.465 76.8296C254.718 76.6827 254.916 76.48 255.058 76.2216C255.205 75.9632 255.278 75.6693 255.278 75.34C255.278 75.0107 255.205 74.7168 255.058 74.4584C254.916 74.2 254.718 73.9999 254.465 73.858C254.212 73.7111 253.928 73.6376 253.614 73.6376C253.3 73.6376 253.016 73.7111 252.762 73.858C252.509 73.9999 252.309 74.2 252.162 74.4584C252.02 74.7168 251.949 75.0107 251.949 75.34C251.949 75.6693 252.02 75.9632 252.162 76.2216C252.309 76.48 252.509 76.6827 252.762 76.8296C253.016 76.9715 253.3 77.0424 253.614 77.0424ZM257.473 72.68H261.767V73.6604H258.697V74.7548H260.171C260.814 74.7548 261.303 74.8891 261.638 75.1576C261.977 75.4261 262.147 75.8137 262.147 76.3204C262.147 76.8524 261.959 77.2653 261.585 77.5592C261.21 77.8531 260.68 78 259.996 78H257.473V72.68ZM259.928 77.088C260.242 77.088 260.483 77.0272 260.65 76.9056C260.817 76.7789 260.901 76.5965 260.901 76.3584C260.901 75.8923 260.576 75.6592 259.928 75.6592H258.697V77.088H259.928ZM270.106 72.68V78H263.084V72.68H264.307V76.9968H265.987V72.68H267.211V76.9968H268.883V72.68H270.106ZM270.828 76.9968V79.102H269.688V78H268.86V76.9968H270.828ZM275.79 77.012V78H271.671V72.68H275.691V73.668H272.895V74.8232H275.365V75.7808H272.895V77.012H275.79ZM281.633 72.68V78H280.41V73.6832H278.008V78H276.785V72.68H281.633ZM282.952 72.68H284.176V76.1456L286.714 72.68H287.869V78H286.653V74.542L284.115 78H282.952V72.68ZM293.26 73.6832H291.558V78H290.342V73.6832H288.647V72.68H293.26V73.6832ZM297.368 76.86H294.898L294.427 78H293.165L295.537 72.68H296.753L299.131 78H297.839L297.368 76.86ZM296.981 75.9252L296.137 73.8884L295.293 75.9252H296.981Z" fill="white"/>
<path d="M163.186 8.00634C158.388 5.487 152.989 4.25732 146.991 4.25732C140.962 4.25732 135.564 5.51699 130.795 8.00634C125.996 10.5257 122.247 14.0048 119.548 18.5036C116.848 22.9424 115.469 27.9511 115.469 33.5596C115.469 39.1681 116.818 44.2068 119.548 48.6756C122.277 53.1145 126.026 56.5636 130.795 59.0829C135.594 61.6022 140.992 62.8319 146.991 62.8319C153.019 62.8319 158.417 61.5722 163.186 59.0829C167.955 56.5936 171.734 53.1145 174.433 48.6756C177.163 44.2068 178.512 39.1381 178.512 33.5596C178.512 27.9511 177.163 22.9424 174.433 18.5036C171.734 14.0048 167.985 10.4957 163.186 8.00634ZM157.848 40.9677C156.738 43.0371 155.208 44.6867 153.289 45.8564C151.429 46.9661 149.33 47.5359 146.991 47.5359C144.651 47.5359 142.522 46.9661 140.602 45.8564C138.743 44.6867 137.243 43.0671 136.133 40.9677C135.024 38.8382 134.454 36.3489 134.454 33.5296C134.454 30.7104 135.024 28.251 136.133 26.1516C137.243 24.0221 138.743 22.4025 140.602 21.2628C142.522 20.0932 144.651 19.4933 146.991 19.4933C149.33 19.4933 151.429 20.0932 153.289 21.2628C155.208 22.3726 156.708 24.0221 157.848 26.1516C158.957 28.221 159.527 30.6804 159.527 33.5296C159.527 36.3489 158.957 38.8382 157.848 40.9677Z" fill="#51F2B7"/>
<path d="M146.961 19.5533C149.3 19.5533 151.399 20.1531 153.259 21.3228C155.178 22.4325 156.678 24.0821 157.818 26.2115C158.927 28.281 159.497 30.7403 159.497 33.5896C159.497 34.7893 159.377 35.899 159.167 36.9787L178.812 0.0584106L154.249 4.88714L146.841 19.5833C146.901 19.5533 146.931 19.5533 146.961 19.5533Z" fill="#51F2B7"/>
</svg>
