<svg width="300" height="85" viewBox="0 0 300 85" fill="none" xmlns="http://www.w3.org/2000/svg">
<path d="M47.6866 30.6504C44.0576 27.7111 38.839 26.2415 32.0308 26.2415H18.7143V19.7632H48.6464V5.51697H0.179138V61.5422H29.6314C37.0394 61.5422 42.7979 59.9227 46.9668 56.6535C51.1057 53.3844 53.2052 48.9156 53.2052 43.2171C53.2052 37.7285 51.3757 33.5296 47.6866 30.6504ZM32.6906 47.146C31.6709 47.9558 30.2312 48.3457 28.3717 48.3457H18.7143V39.3781H28.3717C32.3007 39.3781 34.2802 40.8177 34.2802 43.6969C34.2802 45.1965 33.7403 46.3362 32.6906 47.146Z" fill="white"/>
<path d="M273.167 5.51697C267.889 5.51697 263.33 6.38674 259.431 8.15628C255.532 9.92581 252.533 12.4152 250.403 15.6843C248.334 18.9534 247.284 22.7924 247.284 27.2013C247.284 31.4601 248.244 35.1792 250.163 38.3283C252.143 41.4175 254.932 43.8169 258.561 45.5264L247.554 61.5422H267.289L275.837 48.2557H280.875V61.5422H299.41V5.51697H273.167ZM280.815 34.0095H273.467C268.669 34.0095 266.269 31.6401 266.269 26.8714C266.269 22.3425 268.669 20.0631 273.467 20.0631H280.815V34.0095Z" fill="white"/>
<path d="M163.186 8.00634C158.388 5.487 152.989 4.25732 146.991 4.25732C140.962 4.25732 135.564 5.51699 130.795 8.00634C125.996 10.5257 122.247 14.0048 119.548 18.5036C116.848 22.9424 115.469 27.9511 115.469 33.5596C115.469 39.1681 116.818 44.2068 119.548 48.6756C122.277 53.1145 126.026 56.5636 130.795 59.0829C135.594 61.6022 140.992 62.8319 146.991 62.8319C153.019 62.8319 158.418 61.5722 163.186 59.0829C167.955 56.5936 171.734 53.1145 174.433 48.6756C177.163 44.2068 178.512 39.1381 178.512 33.5596C178.512 27.9511 177.163 22.9424 174.433 18.5036C171.734 14.0048 167.985 10.4957 163.186 8.00634ZM157.848 40.9677C156.738 43.0371 155.208 44.6867 153.289 45.8564C151.429 46.9661 149.33 47.5359 146.991 47.5359C144.651 47.5359 142.522 46.9661 140.602 45.8564C138.743 44.6867 137.243 43.0671 136.133 40.9677C135.024 38.8382 134.454 36.3489 134.454 33.5296C134.454 30.7104 135.024 28.251 136.133 26.1516C137.243 24.0221 138.743 22.4025 140.602 21.2628C142.522 20.0932 144.651 19.4933 146.991 19.4933C149.33 19.4933 151.429 20.0932 153.289 21.2628C155.208 22.3726 156.708 24.0221 157.848 26.1516C158.957 28.221 159.527 30.6804 159.527 33.5296C159.527 36.3489 158.957 38.8382 157.848 40.9677Z" fill="#51F2B7"/>
<path d="M100.083 8.0663C96.2439 6.35675 91.7451 5.51697 86.5865 5.51697H59.6835V61.5422H78.5186V47.7759H86.5865C91.7451 47.7759 96.2439 46.9361 100.083 45.2265C103.922 43.517 106.861 41.0576 108.961 37.8485C111.03 34.6393 112.08 30.9203 112.08 26.6314C112.08 22.3725 111.03 18.6235 108.961 15.4144C106.861 12.2352 103.922 9.77585 100.083 8.0663ZM91.1453 31.5201C89.8556 32.6298 87.9661 33.1997 85.3868 33.1997H78.5186V20.0631H85.3868C87.9361 20.0631 89.8556 20.663 91.1453 21.8327C92.4349 22.9424 93.0647 24.562 93.0647 26.6314C93.0647 28.7309 92.4349 30.3504 91.1453 31.5201Z" fill="white"/>
<path d="M221.551 25.3717H204.156V5.51697H185.29V61.5422H204.156V40.9077H221.551V61.5422H240.386V5.51697H221.551V25.3717Z" fill="white"/>
<path d="M2.12866 80.7072C1.46883 80.3473 0.958967 79.8674 0.599062 79.2375C0.239157 78.6077 0.0592041 77.9179 0.0592041 77.1381C0.0592041 76.3583 0.239157 75.6385 0.599062 75.0387C0.958967 74.4088 1.46883 73.929 2.12866 73.599C2.78849 73.2391 3.53829 73.0892 4.34808 73.0892C5.12787 73.0892 5.81769 73.2391 6.41753 73.5691C7.01737 73.899 7.46726 74.3488 7.76718 74.9487L6.32756 75.7885C6.08762 75.4286 5.81769 75.1586 5.45778 74.9487C5.12787 74.7687 4.73797 74.6788 4.31808 74.6788C3.62827 74.6788 3.02842 74.9187 2.57854 75.3686C2.12866 75.8185 1.88872 76.4183 1.88872 77.1981C1.88872 77.9479 2.12866 78.5477 2.57854 79.0276C3.02842 79.4775 3.59827 79.7174 4.31808 79.7174C4.73797 79.7174 5.09788 79.6274 5.45778 79.4475C5.7877 79.2675 6.08762 78.9976 6.32756 78.6077L7.76718 79.4475C7.46726 80.0473 7.01737 80.4972 6.41753 80.8271C5.81769 81.1571 5.12787 81.307 4.34808 81.307C3.5083 81.247 2.78849 81.0671 2.12866 80.7072Z" fill="white"/>
<path d="M9.38678 73.1492H11.2463V78.3978L15.6551 73.1492H17.3647V81.1271H15.5052V75.8785L11.0963 81.1271H9.38678V73.1492Z" fill="white"/>
<path d="M21.2936 80.7072C20.6338 80.3473 20.1239 79.8674 19.764 79.2375C19.4041 78.6077 19.2241 77.9179 19.2241 77.1381C19.2241 76.3583 19.4041 75.6385 19.764 75.0387C20.1239 74.4088 20.6338 73.929 21.2936 73.599C21.9534 73.2391 22.7032 73.0892 23.513 73.0892C24.2928 73.0892 24.9826 73.2391 25.5824 73.5691C26.1823 73.899 26.6322 74.3488 26.9321 74.9487L25.4925 75.7585C25.2525 75.3986 24.9826 75.1286 24.6227 74.9187C24.2928 74.7387 23.9029 74.6488 23.483 74.6488C22.7932 74.6488 22.1933 74.8887 21.7435 75.3386C21.2936 75.7885 21.0536 76.3883 21.0536 77.1681C21.0536 77.9179 21.2936 78.5177 21.7435 78.9976C22.1933 79.4475 22.7632 79.6874 23.483 79.6874C23.9029 79.6874 24.2628 79.5975 24.6227 79.4175C24.9526 79.2376 25.2525 78.9676 25.4925 78.5777L26.9321 79.4175C26.6322 80.0174 26.1823 80.4672 25.5824 80.7971C24.9826 81.1271 24.2928 81.277 23.513 81.277C22.6732 81.247 21.9534 81.0671 21.2936 80.7072Z" fill="white"/>
<path d="M34.7901 74.7387H32.0008V81.1271H30.1413V74.7387H27.322V73.1492H34.7901V74.7387Z" fill="white"/>
<path d="M43.2478 77.738H36.9795C37.0995 78.3378 37.3694 78.7877 37.8493 79.1476C38.2992 79.4775 38.899 79.6575 39.5888 79.6575C40.4586 79.6575 41.1784 79.3575 41.7482 78.7877L42.738 79.9274C42.3781 80.3473 41.9282 80.6772 41.3883 80.8871C40.8485 81.0971 40.2186 81.2171 39.5288 81.2171C38.6591 81.2171 37.8793 81.0371 37.2194 80.7072C36.5596 80.3773 36.0497 79.8674 35.6599 79.2376C35.27 78.6077 35.12 77.9179 35.12 77.1381C35.12 76.3583 35.2999 75.6685 35.6599 75.0387C36.0198 74.4088 36.4996 73.929 37.1295 73.5691C37.7593 73.2092 38.4491 73.0592 39.2589 73.0592C40.0387 73.0592 40.7285 73.2392 41.3583 73.5691C41.9582 73.899 42.4381 74.4088 42.798 75.0087C43.1279 75.6385 43.3078 76.3583 43.3078 77.1681C43.2778 77.3181 43.2778 77.498 43.2478 77.738ZM37.7293 75.0987C37.3094 75.4586 37.0695 75.9085 36.9795 76.5083H41.5083C41.4183 75.9384 41.1784 75.4586 40.7885 75.0987C40.3686 74.7388 39.8587 74.5588 39.2589 74.5588C38.6591 74.5588 38.1492 74.7388 37.7293 75.0987Z" fill="white"/>
<path d="M53.1752 81.1271V75.8485L50.4759 80.2873H49.6661L47.0268 75.8185V81.1271H45.3173V73.1492H47.2667L50.116 78.1279L53.0852 73.1492H54.8248V81.1271H53.1752Z" fill="white"/>
<path d="M63.0426 73.929C63.6725 74.4988 63.9724 75.3386 63.9724 76.4783V81.1571H62.2028V80.1973C61.9629 80.5572 61.633 80.8272 61.2131 81.0071C60.7932 81.1871 60.2834 81.2771 59.6835 81.2771C59.0837 81.2771 58.5738 81.1871 58.1239 80.9771C57.674 80.7672 57.3441 80.4972 57.0742 80.1373C56.8343 79.7774 56.7143 79.3576 56.7143 78.9077C56.7143 78.1879 56.9842 77.618 57.5241 77.1681C58.0639 76.7483 58.9037 76.5083 60.0434 76.5083H62.1129V76.3583C62.1129 75.7885 61.9329 75.3686 61.603 75.0687C61.2731 74.7688 60.7632 74.6188 60.1034 74.6188C59.6535 74.6188 59.2036 74.6788 58.7837 74.8288C58.3639 74.9787 57.974 75.1587 57.674 75.3986L56.9542 74.049C57.3741 73.719 57.884 73.4791 58.4538 73.3292C59.0537 73.1492 59.6535 73.0892 60.3133 73.0892C61.513 73.0592 62.4128 73.3592 63.0426 73.929ZM61.3331 79.5675C61.693 79.3576 61.9629 79.0576 62.1129 78.6377V77.708H60.1934C59.1137 77.708 58.5738 78.0679 58.5738 78.7577C58.5738 79.0876 58.6938 79.3576 58.9637 79.5675C59.2336 79.7774 59.5935 79.8674 60.0734 79.8674C60.5533 79.8974 60.9732 79.7774 61.3331 79.5675Z" fill="white"/>
<path d="M77.9487 73.1492L74.1997 81.7569C73.8398 82.6267 73.4199 83.2265 72.94 83.5864C72.4301 83.9463 71.8303 84.1263 71.1405 84.1263C70.7506 84.1263 70.3607 84.0663 69.9708 83.9463C69.5809 83.8264 69.251 83.6464 69.011 83.4065L69.7609 82.0268C69.9408 82.2068 70.1507 82.3268 70.3907 82.4167C70.6306 82.5067 70.8706 82.5667 71.1405 82.5667C71.4704 82.5667 71.7403 82.4767 71.9503 82.3268C72.1602 82.1768 72.3702 81.8769 72.5501 81.487L72.6701 81.1871L69.191 73.1792H71.1405L73.6598 79.0876L76.1792 73.1792H77.9487V73.1492Z" fill="white"/>
<path d="M86.8863 73.1492V81.1271H85.0268V74.7387H81.0978V81.1271H79.2383V73.1492H86.8863Z" fill="white"/>
<path d="M95.914 73.5691C96.5138 73.899 96.9937 74.3789 97.3536 75.0087C97.7135 75.6385 97.8635 76.3283 97.8635 77.1381C97.8635 77.9479 97.6835 78.6677 97.3536 79.2676C96.9937 79.8974 96.5138 80.3773 95.914 80.7072C95.3141 81.0371 94.5943 81.2171 93.8145 81.2171C92.7348 81.2171 91.895 80.8571 91.2652 80.1373V84.0063H89.4057V73.1192H91.1752V74.1689C91.4752 73.779 91.865 73.5091 92.3149 73.3291C92.7648 73.1492 93.2747 73.0592 93.8145 73.0592C94.6243 73.0592 95.3141 73.2392 95.914 73.5691ZM95.3141 78.9676C95.764 78.5178 95.974 77.9179 95.974 77.1681C95.974 76.4183 95.764 75.8185 95.3141 75.3686C94.8643 74.9187 94.2944 74.6788 93.6046 74.6788C93.1547 74.6788 92.7648 74.7688 92.4049 74.9787C92.045 75.1886 91.7751 75.4886 91.5651 75.8485C91.3552 76.2384 91.2652 76.6583 91.2652 77.1681C91.2652 77.678 91.3552 78.0979 91.5651 78.4878C91.7751 78.8777 92.045 79.1476 92.4049 79.3575C92.7648 79.5675 93.1547 79.6575 93.6046 79.6575C94.3244 79.6575 94.8643 79.4175 95.3141 78.9676Z" fill="white"/>
<path d="M105.301 73.929C105.931 74.4988 106.231 75.3386 106.231 76.4783V81.1571H104.462V80.1973C104.222 80.5572 103.892 80.8272 103.472 81.0071C103.052 81.1871 102.542 81.2771 101.942 81.2771C101.343 81.2771 100.833 81.1871 100.383 80.9771C99.9329 80.7672 99.603 80.4972 99.3331 80.1373C99.0931 79.7774 98.9731 79.3576 98.9731 78.9077C98.9731 78.1879 99.2431 77.618 99.7829 77.1681C100.323 76.7483 101.163 76.5083 102.302 76.5083H104.372V76.3583C104.372 75.7885 104.192 75.3686 103.862 75.0687C103.532 74.7688 103.022 74.6188 102.362 74.6188C101.912 74.6188 101.462 74.6788 101.043 74.8288C100.623 74.9787 100.233 75.1587 99.9329 75.3986L99.2131 74.049C99.633 73.719 100.143 73.4791 100.713 73.3292C101.313 73.1492 101.912 73.0892 102.572 73.0892C103.772 73.0592 104.672 73.3592 105.301 73.929ZM103.592 79.5675C103.952 79.3576 104.222 79.0576 104.372 78.6377V77.708H102.452C101.373 77.708 100.833 78.0679 100.833 78.7577C100.833 79.0876 100.953 79.3576 101.223 79.5675C101.492 79.7774 101.852 79.8674 102.332 79.8674C102.812 79.8974 103.232 79.7774 103.592 79.5675Z" fill="white"/>
<path d="M115.799 78.9077C115.799 79.6275 115.529 80.1673 114.989 80.5572C114.449 80.9471 113.639 81.1271 112.59 81.1271H108.511V73.1492H112.41C113.399 73.1492 114.149 73.3291 114.689 73.689C115.229 74.0489 115.499 74.5588 115.499 75.2186C115.499 75.6385 115.379 75.9684 115.169 76.2684C114.959 76.5683 114.659 76.8082 114.269 76.9582C115.319 77.2881 115.799 77.9179 115.799 78.9077ZM110.34 76.4783H112.29C113.249 76.4783 113.729 76.1484 113.729 75.4886C113.729 74.8287 113.249 74.5288 112.29 74.5288H110.34V76.4783ZM113.999 78.7877C113.999 78.4278 113.879 78.1879 113.639 78.0079C113.399 77.8279 113.039 77.738 112.53 77.738H110.34V79.7774H112.47C113.489 79.7774 113.999 79.4475 113.999 78.7877Z" fill="white"/>
<path d="M125.036 73.1492V81.1271H123.177V74.7387H120.178L120.118 76.3283C120.058 77.3781 119.968 78.2778 119.818 78.9676C119.668 79.6875 119.428 80.2573 119.098 80.6472C118.768 81.0671 118.288 81.277 117.688 81.277C117.418 81.277 117.058 81.2171 116.669 81.1271L116.758 79.5675C116.908 79.5975 117.028 79.5975 117.118 79.5975C117.508 79.5975 117.778 79.4475 117.958 79.1476C118.138 78.8477 118.258 78.4878 118.318 78.0679C118.378 77.648 118.408 77.0481 118.468 76.2384L118.588 73.1492H125.036Z" fill="white"/>
<path d="M134.964 77.738H128.695C128.815 78.3378 129.085 78.7877 129.565 79.1476C130.015 79.4775 130.615 79.6575 131.305 79.6575C132.174 79.6575 132.894 79.3575 133.464 78.7877L134.454 79.9274C134.094 80.3473 133.644 80.6772 133.104 80.8871C132.564 81.0971 131.934 81.2171 131.245 81.2171C130.375 81.2171 129.595 81.0371 128.935 80.7072C128.275 80.3473 127.766 79.8674 127.376 79.2376C126.986 78.6077 126.836 77.9179 126.836 77.1381C126.836 76.3583 127.016 75.6685 127.376 75.0387C127.736 74.4088 128.215 73.929 128.845 73.5691C129.475 73.2092 130.165 73.0592 130.975 73.0592C131.755 73.0592 132.444 73.2392 133.074 73.5691C133.674 73.899 134.154 74.4088 134.514 75.0087C134.844 75.6385 135.024 76.3583 135.024 77.1681C134.994 77.3181 134.994 77.498 134.964 77.738ZM129.445 75.0987C129.025 75.4586 128.785 75.9085 128.695 76.5083H133.224C133.134 75.9384 132.894 75.4586 132.504 75.0987C132.084 74.7388 131.575 74.5588 130.975 74.5588C130.375 74.5588 129.865 74.7388 129.445 75.0987Z" fill="white"/>
<path d="M137.063 73.1492H138.923V76.3883H142.942V73.1492H144.801V81.1271H142.942V77.9779H138.923V81.1271H137.063V73.1492Z" fill="white"/>
<path d="M147.32 73.1492H149.18V78.3978L153.589 73.1492H155.298V81.1271H153.439V75.8785L149.06 81.1271H147.35V73.1492H147.32Z" fill="white"/>
<path d="M164.536 73.1492V81.1271H162.856V78.7277H160.757L159.137 81.1271H157.128L159.017 78.4578C158.448 78.2479 157.998 77.9479 157.698 77.528C157.398 77.1082 157.248 76.5983 157.248 75.9984C157.248 75.0687 157.578 74.3789 158.208 73.869C158.867 73.3591 159.737 73.1192 160.877 73.1192H164.536V73.1492ZM159.137 76.0884C159.137 76.9882 159.707 77.4381 160.877 77.4381H162.856V74.7388H160.937C159.737 74.7388 159.137 75.1886 159.137 76.0884Z" fill="white"/>
<path d="M177.493 74.0489C178.062 74.3788 178.512 74.8287 178.842 75.3986C179.172 75.9684 179.322 76.6283 179.322 77.3781C179.322 78.1579 179.142 78.8177 178.782 79.4175C178.422 80.0174 177.912 80.4672 177.283 80.7972C176.623 81.1271 175.903 81.277 175.063 81.277C173.684 81.277 172.604 80.8271 171.854 79.8974C171.104 78.9676 170.714 77.648 170.714 75.9384C170.714 74.3489 171.044 73.0592 171.734 72.1295C172.424 71.1997 173.474 70.5699 174.883 70.2699L178.602 69.4901L178.872 71.1697L175.513 71.8595C174.553 72.0695 173.833 72.3994 173.354 72.8793C172.874 73.3591 172.604 74.0189 172.514 74.8887C172.874 74.4688 173.294 74.1389 173.803 73.899C174.313 73.659 174.883 73.5391 175.483 73.5391C176.233 73.5391 176.923 73.719 177.493 74.0489ZM176.773 79.1176C177.193 78.6677 177.403 78.0979 177.403 77.4081C177.403 76.7182 177.193 76.1784 176.773 75.7585C176.353 75.3386 175.783 75.1287 175.093 75.1287C174.403 75.1287 173.833 75.3386 173.414 75.7585C172.994 76.1784 172.784 76.7182 172.784 77.4081C172.784 78.0979 172.994 78.6677 173.444 79.1176C173.863 79.5675 174.433 79.7774 175.123 79.7774C175.813 79.7774 176.353 79.5675 176.773 79.1176Z" fill="white"/>
<path d="M187.63 73.5691C188.23 73.899 188.71 74.3789 189.069 75.0087C189.429 75.6385 189.579 76.3283 189.579 77.1381C189.579 77.9479 189.399 78.6677 189.069 79.2676C188.71 79.8974 188.23 80.3773 187.63 80.7072C187.03 81.0371 186.31 81.2171 185.53 81.2171C184.451 81.2171 183.611 80.8571 182.981 80.1373V84.0063H181.122V73.1192H182.891V74.1689C183.191 73.779 183.581 73.5091 184.031 73.3291C184.481 73.1492 184.991 73.0592 185.53 73.0592C186.34 73.0592 187.03 73.2392 187.63 73.5691ZM187.03 78.9676C187.48 78.5178 187.69 77.9179 187.69 77.1681C187.69 76.4183 187.48 75.8185 187.03 75.3686C186.58 74.9187 186.01 74.6788 185.32 74.6788C184.871 74.6788 184.481 74.7688 184.121 74.9787C183.761 75.1886 183.491 75.4886 183.281 75.8485C183.071 76.2384 182.981 76.6583 182.981 77.1681C182.981 77.678 183.071 78.0979 183.281 78.4878C183.491 78.8777 183.761 79.1476 184.121 79.3575C184.481 79.5675 184.871 79.6575 185.32 79.6575C186.04 79.6575 186.61 79.4175 187.03 78.9676Z" fill="white"/>
<path d="M192.818 80.7072C192.159 80.3473 191.679 79.8674 191.289 79.2376C190.899 78.6077 190.749 77.9179 190.749 77.1381C190.749 76.3583 190.929 75.6385 191.289 75.0387C191.649 74.4088 192.159 73.929 192.818 73.599C193.478 73.2391 194.198 73.0892 195.008 73.0892C195.818 73.0892 196.567 73.2691 197.197 73.599C197.857 73.9589 198.337 74.4388 198.727 75.0387C199.087 75.6685 199.267 76.3583 199.267 77.1381C199.267 77.9179 199.087 78.6377 198.727 79.2376C198.367 79.8374 197.857 80.3473 197.197 80.7072C196.537 81.0671 195.818 81.2171 195.008 81.2171C194.198 81.247 193.478 81.0671 192.818 80.7072ZM196.717 78.9676C197.167 78.5178 197.377 77.9179 197.377 77.1681C197.377 76.4183 197.167 75.8185 196.717 75.3686C196.268 74.9187 195.698 74.6788 195.008 74.6788C194.318 74.6788 193.748 74.9187 193.298 75.3686C192.848 75.8185 192.639 76.4183 192.639 77.1681C192.639 77.9179 192.848 78.5178 193.298 78.9676C193.748 79.4175 194.318 79.6575 195.008 79.6575C195.698 79.6575 196.268 79.4175 196.717 78.9676Z" fill="white"/>
<path d="M201.096 73.1492H202.956V76.3883H206.975V73.1492H208.834V81.1271H206.975V77.9779H202.956V81.1271H201.096V73.1492Z" fill="white"/>
<path d="M211.354 73.1492H213.213V78.3978L217.622 73.1492H219.331V81.1271H217.472V75.8785L213.093 81.1271H211.384V73.1492H211.354Z" fill="white"/>
<path d="M228.359 73.5691C228.959 73.899 229.439 74.3789 229.799 75.0087C230.159 75.6385 230.309 76.3283 230.309 77.1381C230.309 77.9479 230.129 78.6677 229.799 79.2676C229.439 79.8974 228.959 80.3773 228.359 80.7072C227.759 81.0371 227.039 81.2171 226.26 81.2171C225.18 81.2171 224.34 80.8571 223.71 80.1373V84.0063H221.851V73.1192H223.62V74.1689C223.92 73.779 224.31 73.5091 224.76 73.3291C225.21 73.1492 225.72 73.0592 226.26 73.0592C227.039 73.0592 227.759 73.2392 228.359 73.5691ZM227.759 78.9676C228.209 78.5178 228.419 77.9179 228.419 77.1681C228.419 76.4183 228.209 75.8185 227.759 75.3686C227.309 74.9187 226.74 74.6788 226.05 74.6788C225.6 74.6788 225.21 74.7688 224.85 74.9787C224.49 75.1886 224.22 75.4886 224.01 75.8485C223.8 76.2384 223.71 76.6583 223.71 77.1681C223.71 77.678 223.8 78.0979 224.01 78.4878C224.22 78.8777 224.49 79.1476 224.85 79.3575C225.21 79.5675 225.6 79.6575 226.05 79.6575C226.74 79.6575 227.309 79.4175 227.759 78.9676Z" fill="white"/>
<path d="M233.548 80.7072C232.888 80.3473 232.408 79.8674 232.018 79.2376C231.658 78.6077 231.478 77.9179 231.478 77.1381C231.478 76.3583 231.658 75.6385 232.018 75.0387C232.378 74.4088 232.888 73.929 233.548 73.599C234.208 73.2391 234.927 73.0892 235.737 73.0892C236.547 73.0892 237.297 73.2691 237.927 73.599C238.586 73.9589 239.066 74.4388 239.456 75.0387C239.816 75.6685 239.996 76.3583 239.996 77.1381C239.996 77.9179 239.816 78.6377 239.456 79.2376C239.096 79.8674 238.586 80.3473 237.927 80.7072C237.267 81.0671 236.547 81.2171 235.737 81.2171C234.927 81.247 234.208 81.0671 233.548 80.7072ZM237.447 78.9676C237.897 78.5178 238.107 77.9179 238.107 77.1681C238.107 76.4183 237.897 75.8185 237.447 75.3686C236.997 74.9187 236.427 74.6788 235.737 74.6788C235.047 74.6788 234.478 74.9187 234.028 75.3686C233.578 75.8185 233.368 76.4183 233.368 77.1681C233.368 77.9179 233.578 78.5178 234.028 78.9676C234.478 79.4175 235.047 79.6575 235.737 79.6575C236.427 79.6575 236.997 79.4175 237.447 78.9676Z" fill="white"/>
<path d="M249.084 78.9077C249.084 79.6275 248.814 80.1673 248.274 80.5572C247.734 80.9471 246.924 81.1271 245.875 81.1271H241.796V73.1492H245.695C246.684 73.1492 247.434 73.3291 247.974 73.689C248.514 74.0489 248.784 74.5588 248.784 75.2186C248.784 75.6385 248.664 75.9684 248.454 76.2684C248.244 76.5683 247.944 76.8082 247.554 76.9582C248.604 77.2881 249.084 77.9179 249.084 78.9077ZM243.595 76.4783H245.545C246.504 76.4783 246.984 76.1484 246.984 75.4886C246.984 74.8287 246.504 74.5288 245.545 74.5288H243.595V76.4783ZM247.284 78.7877C247.284 78.4278 247.164 78.1879 246.924 78.0079C246.684 77.8279 246.324 77.738 245.815 77.738H243.625V79.7774H245.755C246.774 79.7774 247.284 79.4475 247.284 78.7877Z" fill="white"/>
<path d="M256.732 73.929C257.362 74.4988 257.661 75.3386 257.661 76.4783V81.1571H255.892V80.1973C255.652 80.5572 255.322 80.8272 254.902 81.0071C254.482 81.1871 253.972 81.2771 253.373 81.2771C252.773 81.2771 252.263 81.1871 251.813 80.9771C251.363 80.7672 251.033 80.4972 250.763 80.1373C250.523 79.7774 250.403 79.3576 250.403 78.9077C250.403 78.1879 250.673 77.618 251.213 77.1681C251.753 76.7483 252.593 76.5083 253.732 76.5083H255.802V76.3583C255.802 75.7885 255.622 75.3686 255.292 75.0687C254.962 74.7688 254.452 74.6188 253.792 74.6188C253.343 74.6188 252.893 74.6788 252.473 74.8288C252.053 74.9787 251.663 75.1587 251.363 75.3986L250.643 74.049C251.063 73.719 251.573 73.4791 252.143 73.3292C252.743 73.1492 253.343 73.0892 254.002 73.0892C255.232 73.0592 256.132 73.3592 256.732 73.929ZM255.052 79.5675C255.412 79.3576 255.682 79.0576 255.832 78.6377V77.708H253.912C252.833 77.708 252.293 78.0679 252.293 78.7577C252.293 79.0876 252.413 79.3576 252.683 79.5675C252.953 79.7774 253.313 79.8674 253.792 79.8674C254.272 79.8974 254.662 79.7774 255.052 79.5675Z" fill="white"/>
<path d="M260.001 73.1492H261.86V76.3883H265.879V73.1492H267.739V81.1271H265.879V77.9779H261.86V81.1271H260.001V73.1492Z" fill="white"/>
<path d="M270.258 73.1492H272.118V78.3978L276.526 73.1492H278.236V81.1271H276.377V75.8785L271.998 81.1271H270.288V73.1492H270.258Z" fill="white"/>
<path d="M288.163 77.738H281.925C282.045 78.3378 282.315 78.7877 282.795 79.1476C283.245 79.4775 283.845 79.6575 284.534 79.6575C285.404 79.6575 286.124 79.3575 286.694 78.7877L287.684 79.9274C287.324 80.3473 286.874 80.6772 286.334 80.8871C285.794 81.0971 285.164 81.2171 284.474 81.2171C283.605 81.2171 282.825 81.0371 282.165 80.7072C281.505 80.3473 280.995 79.8674 280.605 79.2376C280.216 78.6077 280.066 77.9179 280.066 77.1381C280.066 76.3583 280.246 75.6685 280.605 75.0387C280.965 74.4088 281.445 73.929 282.075 73.5691C282.705 73.2092 283.395 73.0592 284.204 73.0592C284.984 73.0592 285.674 73.2392 286.304 73.5691C286.904 73.899 287.384 74.4088 287.744 75.0087C288.073 75.6385 288.253 76.3583 288.253 77.1681C288.193 77.3181 288.193 77.498 288.163 77.738ZM282.645 75.0987C282.225 75.4586 281.985 75.9085 281.895 76.5083H286.424C286.334 75.9384 286.094 75.4586 285.704 75.0987C285.284 74.7388 284.774 74.5588 284.174 74.5588C283.575 74.5588 283.065 74.7388 282.645 75.0987Z" fill="white"/>
<path d="M298.091 81.1271V75.8485L295.392 80.2873H294.582L291.942 75.8185V81.1271H290.233V73.1492H292.182L295.032 78.1279L298.001 73.1492H299.74V81.1271H298.091Z" fill="white"/>
<path d="M146.961 19.5533C149.3 19.5533 151.399 20.1531 153.259 21.3228C155.178 22.4325 156.678 24.0821 157.818 26.2115C158.927 28.281 159.497 30.7403 159.497 33.5896C159.497 34.7893 159.377 35.899 159.167 36.9787L178.812 0.0584106L154.249 4.88714L146.841 19.5833C146.901 19.5533 146.931 19.5533 146.961 19.5533Z" fill="#51F2B7"/>
</svg>
