<?xml version="1.0" encoding="iso-8859-1"?>
<!-- Generator: Adobe Illustrator 19.0.0, SVG Export Plug-In . SVG Version: 6.00 Build 0)  -->
<svg version="1.1" id="Capa_1" xmlns="http://www.w3.org/2000/svg" xmlns:xlink="http://www.w3.org/1999/xlink" x="0px" y="0px"
	 viewBox="0 0 447.216 447.216" style="enable-background:new 0 0 447.216 447.216;" xml:space="preserve">
<g>
	<path style="fill:#00EFD1;" d="M249.731,29.257c36.049,36.049,36.049,94.563-0.522,130.612
		c-36.049,36.049-94.563,36.049-130.612-0.522c-36.049-36.049-36.049-94.563,0-130.612c17.241-17.241,41.273-27.167,65.829-27.167
		C208.98,1.567,232.49,12.016,249.731,29.257z"/>
	<path style="fill:#00EFD1;" d="M260.18,217.861c-21.943,15.673-48.065,24.033-75.233,24.033
		c-26.645,0.522-53.29-7.837-75.233-22.988C45.453,234.057,0,291.004,0,356.833v15.673h273.763l50.155-119.118v-1.045
		C306.155,235.102,284.212,223.608,260.18,217.861z"/>
</g>
<path style="fill:#00ACEA;" d="M447.216,369.894l-9.927,26.645h-16.196c-5.224,7.837-12.016,14.629-19.331,20.375l1.567,15.673
	l-26.645,11.494l-10.971-11.494c-8.882,1.567-18.286,2.09-27.69,1.045l-10.449,12.016L300.93,435.2v-16.718
	c-7.837-5.224-14.629-11.494-19.853-18.808l-16.196,1.045l-10.971-26.645l4.18-4.18l7.314-6.792
	c-1.567-8.882-2.09-18.286-1.045-27.167l-12.016-10.449l10.449-27.167h16.196c5.224-7.837,11.494-14.629,18.808-19.853
	l-1.045-15.673l26.645-11.494l10.971,11.494c8.882-1.567,18.286-2.09,27.69-0.522l9.927-12.016l27.167,10.449v15.673
	c7.314,5.224,14.106,12.016,19.331,19.331l16.196-1.567l11.494,26.645l-11.494,10.971c1.567,8.882,2.09,18.286,0.522,27.69
	L447.216,369.894z M393.404,347.951c0-24.033-19.331-43.363-43.363-43.363l0,0c-24.033,0-43.363,19.331-43.886,43.363
	c0.522,24.033,19.853,43.363,43.886,43.886C374.073,390.792,393.404,371.984,393.404,347.951z"/>
<g>
</g>
<g>
</g>
<g>
</g>
<g>
</g>
<g>
</g>
<g>
</g>
<g>
</g>
<g>
</g>
<g>
</g>
<g>
</g>
<g>
</g>
<g>
</g>
<g>
</g>
<g>
</g>
<g>
</g>
</svg>
