<svg width="230" height="230" viewBox="0 0 230 230" fill="none" xmlns="http://www.w3.org/2000/svg">
<path d="M199.827 0L102.168 4.30935L5.16511 112.388L5.1714 123.375C5.19296 156.106 23.1774 187.041 51.5949 203.332L51.5895 203.333L74.156 216.426L74.1385 216.383C89.3243 225.722 108.567 230.856 127.176 229.883L152.072 202.532C198.889 151.098 224.835 84.0487 224.835 14.4981L199.827 0Z" fill="#00D16D"/>
<path d="M201.533 38.9992C198.297 93.4813 176.61 145.123 139.645 185.732L121.084 206.124C83.4427 205.222 53.0796 174.284 53.0576 136.385L53.0549 131.674L133.539 41.9995L201.533 38.9992ZM215.613 24.7083L127.208 28.6093L39.3955 126.448L39.4013 136.393C39.4279 182.684 77.0382 219.8 122.773 219.8C124.245 219.8 125.719 219.762 127.207 219.684L149.744 194.925C192.126 148.365 215.613 87.6688 215.613 24.7083Z" fill="white"/>
<path d="M102.168 4.30935L127.176 18.8074L224.835 14.4981L199.827 0L102.168 4.30935Z" fill="#009F5E"/>
<path d="M56.8795 202.685H56.8777C39.9067 185.535 30.196 162.011 30.1794 137.873L30.1731 126.886L5.16466 112.388L5.17095 123.375C5.19071 157.731 23.9617 187.49 51.5949 203.332L51.5891 203.333L74.1555 216.426L74.138 216.383C67.8499 212.513 62.0563 207.909 56.8795 202.685Z" fill="#007A6E"/>
<path d="M136.802 117.941C145.229 107.957 150.997 93.0843 150.574 80.0516C150.047 63.8573 139.828 56.509 127.445 63.3915C114.266 70.7164 103.515 91.083 103.515 108.591C103.515 121.288 109.173 128.95 117.308 129.196C106.551 140.695 98.88 158.913 98.88 175.091V187.083C116.168 191.233 137.942 178.662 155.23 154.549V142.558C155.23 126.378 147.559 117.019 136.802 117.941Z" fill="white"/>
<path d="M30.1735 126.887L127.176 18.8074L102.168 4.30933L5.16511 112.388L30.1735 126.887Z" fill="#33CD87"/>
</svg>
