<svg width="106" height="106" viewBox="0 0 106 106" fill="none" xmlns="http://www.w3.org/2000/svg">
<g clip-path="url(#clip0)">
<path d="M40.0771 4.5542L0 24.5926V31.8795L1.82177 32.7904V66.4915L5.46511 68.3131L9.10844 66.4915V36.4337L27.3253 45.5422V53.7397L30.9687 55.5613L34.612 53.7397V49.1855L65.5807 64.6697L67.4024 63.7591V99.2817L71.0458 101.104L74.6891 99.2817V60.1155L92.906 51.0071V86.53L96.5493 88.3517L100.193 86.53V47.3637L105.658 44.6313V37.3446L40.0771 4.5542Z" fill="#CBB292"/>
<path d="M65.5807 57.3831V64.6697L0 31.8795V24.5927L65.5807 57.3831Z" fill="#CB8252"/>
<path d="M105.658 37.3446V44.6313L65.5807 64.6697V57.3831L105.658 37.3446Z" fill="#805333"/>
<path d="M100.193 47.3638V86.53L96.5493 88.3518V49.1855L100.193 47.3638Z" fill="#5E5F62"/>
<path d="M96.5493 49.1855V88.3518L92.9059 86.53V51.0071L96.5493 49.1855Z" fill="#A5A5A4"/>
<path d="M74.6891 60.1155V99.2817L71.0457 101.104V61.9373L74.6891 60.1155Z" fill="#5E5F62"/>
<path d="M71.0458 61.9373V101.104L67.4024 99.2818V63.7591L71.0458 61.9373Z" fill="#A5A5A4"/>
<path d="M34.612 49.1855V53.7398L30.9687 55.5613V47.3638L34.612 49.1855Z" fill="#5E5F62"/>
<path d="M30.9686 47.3637V55.5613L27.3253 53.7397V45.5422L30.9686 47.3637Z" fill="#A5A5A4"/>
<path d="M5.46511 34.612V68.3131L1.82178 66.4915V32.7904L5.46511 34.612Z" fill="#A5A5A4"/>
<path d="M9.10842 36.4338V66.4915L5.46509 68.3131V34.612L9.10842 36.4338Z" fill="#5E5F62"/>
</g>
<defs>
<clipPath id="clip0">
<rect width="105.658" height="105.658" fill="white"/>
</clipPath>
</defs>
</svg>
