<?xml version="1.0" standalone="no"?>
<!DOCTYPE svg PUBLIC "-//W3C//DTD SVG 20010904//EN"
 "http://www.w3.org/TR/2001/REC-SVG-20010904/DTD/svg10.dtd">
<svg version="1.0" xmlns="http://www.w3.org/2000/svg"
 width="606.000000pt" height="606.000000pt" viewBox="0 0 606.000000 606.000000"
 preserveAspectRatio="xMidYMid meet">
<metadata>
Created by potrace 1.11, written by Peter Selinger 2001-2013
</metadata>
<g transform="translate(0.000000,606.000000) scale(0.100000,-0.100000)"
fill="#000000" stroke="none">
<path d="M6019 6026 c-3 -3 -19 -8 -37 -11 -18 -3 -63 -12 -100 -19 -37 -8
-83 -17 -102 -20 -19 -3 -183 -35 -365 -72 -181 -36 -342 -67 -357 -69 -15 -2
-44 -8 -65 -14 -21 -5 -58 -13 -83 -16 -24 -4 -47 -8 -50 -10 -3 -2 -21 -6
-40 -9 -19 -3 -46 -8 -60 -11 -14 -3 -63 -12 -110 -21 -47 -9 -92 -18 -100
-19 -8 -2 -64 -13 -125 -25 -60 -12 -220 -44 -355 -71 -135 -26 -263 -52 -285
-56 -51 -10 -128 -10 -185 0 -25 4 -58 9 -75 12 -174 28 -587 40 -820 22 -96
-7 -362 -43 -397 -53 -9 -3 -27 -7 -40 -9 -13 -3 -35 -7 -50 -11 -15 -3 -30
-5 -33 -5 -2 0 -19 -5 -37 -10 -36 -11 -57 -17 -88 -23 -45 -10 -295 -97 -362
-127 -494 -213 -862 -496 -1152 -884 -179 -238 -296 -458 -397 -741 -28 -80
-84 -284 -94 -347 -3 -18 -10 -59 -16 -92 -6 -33 -13 -78 -15 -100 -3 -22 -8
-71 -12 -110 -9 -91 -9 -478 1 -575 95 -943 616 -1704 1472 -2151 256 -133
599 -248 875 -293 19 -4 44 -8 56 -10 12 -2 45 -7 74 -11 29 -4 61 -8 72 -10
132 -26 758 -26 894 -1 10 2 44 7 74 11 61 7 93 12 130 20 14 3 61 12 105 20
44 9 130 29 190 46 124 34 438 148 443 161 2 4 10 8 17 8 7 0 55 22 106 48
148 77 215 117 338 200 511 347 887 862 1055 1449 38 132 70 282 81 378 4 33
9 68 11 78 9 49 17 207 17 337 1 143 -10 377 -18 389 -2 4 -6 31 -10 62 -5 46
-22 135 -50 269 -7 32 -73 249 -84 275 -5 11 -21 52 -36 90 -89 224 -304 576
-442 725 -46 49 -48 61 -15 122 16 29 49 91 74 138 25 47 79 148 120 225 76
141 134 251 236 445 30 58 58 110 62 115 4 6 33 60 65 120 32 61 73 138 91
172 19 34 34 65 34 68 0 6 -25 7 -31 1z m-2784 -1881 c235 -49 455 -169 614
-335 49 -52 135 -167 170 -230 43 -74 91 -178 91 -193 0 -7 4 -17 9 -23 11
-10 55 -174 65 -239 17 -108 21 -161 21 -295 0 -142 -2 -167 -24 -320 -11 -76
-62 -251 -87 -299 -8 -14 -14 -29 -14 -33 0 -15 -87 -158 -136 -224 -155 -207
-349 -342 -599 -417 -45 -13 -77 -20 -155 -34 -14 -2 -82 -6 -151 -8 -154 -3
-278 14 -418 61 -178 59 -289 129 -432 273 -245 247 -373 588 -372 996 0 99
11 274 19 286 2 3 5 22 8 41 19 154 125 401 240 558 47 65 164 185 221 226 22
16 42 32 45 35 7 9 104 63 168 93 76 36 195 74 282 90 98 18 329 13 435 -9z"/>
</g>
</svg>
